GeistMono-Italic.glyphspackage
{
glyphname = exclam;
layers = (
{
background = {
shapes = (
{
closed = 1;
nodes = (
(311,205,l),
(313,297,o),
(316,368,o),
(316,460,c),
(316,710,l),
(284,710,l),
(284,460,l),
(284,368,o),
(287,297,o),
(289,205,c)
);
},
{
ref = period;
}
);
};
layerId = "EE2FFE84-06F1-4AFB-BBEC-60D09A436D14";
name = Regular;
shapes = (
{
ref = period;
},
{
closed = 1;
nodes = (
(297,205,l),
(318,295,o),
(339,378,o),
(356,460,cs),
(409,710,l),
(377,710,l),
(324,460,ls),
(307,378,o),
(292,295,o),
(275,205,c)
);
}
);
width = 600;
},
{
background = {
shapes = (
{
closed = 1;
nodes = (
(327,205,l),
(332,297,o),
(343,387,o),
(343,479,c),
(343,710,l),
(257,710,l),
(257,479,l),
(257,387,o),
(268,297,o),
(273,205,c)
);
},
{
alignment = -1;
ref = period;
}
);
};
layerId = "574EE4B9-5C1A-4E7E-9985-C08FACB65BD8";
name = Regular;
shapes = (
{
alignment = -1;
ref = period;
},
{
closed = 1;
nodes = (
(318,209,l),
(339,279,o),
(374,400,o),
(391,480,cs),
(439,710,l),
(353,710,l),
(305,480,ls),
(288,400,o),
(272,279,o),
(263,209,c)
);
}
);
width = 600;
},
{
background = {
shapes = (
{
closed = 1;
nodes = (
(350,243,l),
(358,326,o),
(373,423,o),
(373,507,c),
(373,710,l),
(227,710,l),
(227,507,l),
(227,423,o),
(242,326,o),
(250,243,c)
);
},
{
alignment = -1;
ref = period;
}
);
};
layerId = "58B1DC7A-69F8-4375-AD2E-AC5103CCF536";
name = Regular;
shapes = (
{
alignment = -1;
ref = period;
},
{
closed = 1;
nodes = (
(360,240,l),
(382,296,o),
(418,410,o),
(435,490,cs),
(482,710,l),
(318,710,l),
(271,490,ls),
(254,410,o),
(242,296,o),
(240,240,c)
);
}
);
width = 600;
}
);
unicode = 33;
}
{
color = 9;
glyphname = quotedbl;
kernLeft = "0";
kernRight = "0";
layers = (
{
layerId = "EE2FFE84-06F1-4AFB-BBEC-60D09A436D14";
shapes = (
{
closed = 1;
nodes = (
(387,383,l),
(452,640,l),
(467,710,l),
(427,710,l),
(359,383,l)
);
},
{
closed = 1;
nodes = (
(291,383,l),
(363,710,l),
(323,710,l),
(308,641,l),
(263,383,l)
);
}
);
width = 600;
},
{
layerId = "574EE4B9-5C1A-4E7E-9985-C08FACB65BD8";
shapes = (
{
closed = 1;
nodes = (
(431,383,l),
(508,630,l),
(525,710,l),
(436,710,l),
(370,383,l)
);
},
{
closed = 1;
nodes = (
(280,383,l),
(354,710,l),
(265,710,l),
(248,630,l),
(219,383,l)
);
}
);
width = 600;
},
{
layerId = "58B1DC7A-69F8-4375-AD2E-AC5103CCF536";
shapes = (
{
closed = 1;
nodes = (
(468,372,l),
(545,624,l),
(563,710,l),
(431,710,l),
(364,372,l)
);
},
{
closed = 1;
nodes = (
(280,372,l),
(355,710,l),
(223,710,l),
(205,624,l),
(176,372,l)
);
}
);
width = 600;
}
);
unicode = 34;
}
{
glyphname = numbersign;
layers = (
{
background = {
shapes = (
{
closed = 1;
nodes = (
(151,0,l),
(282,710,l),
(249,709,l),
(119,0,l)
);
},
{
closed = 1;
nodes = (
(358,0,l),
(489,710,l),
(456,709,l),
(326,0,l)
);
},
{
closed = 1;
nodes = (
(495,216,l),
(506,246,l),
(64,246,l),
(53,216,l)
);
},
{
closed = 1;
nodes = (
(535,461,l),
(546,491,l),
(104,491,l),
(93,461,l)
);
}
);
};
guides = (
{
pos = (185,513);
},
{
pos = (138,267);
},
{
angle = 270;
pos = (185,513);
},
{
angle = 270;
pos = (138,267);
},
{
angle = 270;
pos = (245,447);
}
);
layerId = "EE2FFE84-06F1-4AFB-BBEC-60D09A436D14";
shapes = (
{
closed = 1;
nodes = (
(292,0,l),
(575,710,l),
(543,710,l),
(260,0,l)
);
},
{
closed = 1;
nodes = (
(492,216,l),
(506,246,l),
(54,246,l),
(40,216,l)
);
},
{
closed = 1;
nodes = (
(96,0,l),
(379,710,l),
(347,710,l),
(64,0,l)
);
},
{
closed = 1;
nodes = (
(584,461,l),
(598,491,l),
(146,491,l),
(132,461,l)
);
}
);
width = 600;
},
{
background = {
shapes = (
{
closed = 1;
nodes = (
(171,0,l),
(302,710,l),
(230,709,l),
(100,0,l)
);
},
{
closed = 1;
nodes = (
(377,0,l),
(508,710,l),
(436,709,l),
(306,0,l)
);
},
{
closed = 1;
nodes = (
(495,197,l),
(506,267,l),
(64,267,l),
(53,197,l)
);
},
{
closed = 1;
nodes = (
(535,440,l),
(546,510,l),
(104,510,l),
(93,440,l)
);
}
);
};
layerId = "574EE4B9-5C1A-4E7E-9985-C08FACB65BD8";
shapes = (
{
closed = 1;
nodes = (
(313,0,l),
(596,710,l),
(524,710,l),
(241,0,l)
);
},
{
closed = 1;
nodes = (
(484,197,l),
(511,267,l),
(63,267,l),
(36,197,l)
);
},
{
closed = 1;
nodes = (
(116,0,l),
(399,710,l),
(327,710,l),
(44,0,l)
);
},
{
closed = 1;
nodes = (
(576,440,l),
(602,510,l),
(154,510,l),
(128,440,l)
);
}
);
width = 600;
},
{
background = {
shapes = (
{
closed = 1;
nodes = (
(205,0,l),
(300,710,l),
(171,709,l),
(76,0,l)
);
},
{
closed = 1;
nodes = (
(428,0,l),
(523,710,l),
(395,709,l),
(300,0,l)
);
},
{
closed = 1;
nodes = (
(526,167,l),
(542,294,l),
(38,294,l),
(22,167,l)
);
},
{
closed = 1;
nodes = (
(562,433,l),
(578,560,l),
(73,560,l),
(57,433,l)
);
}
);
};
layerId = "58B1DC7A-69F8-4375-AD2E-AC5103CCF536";
shapes = (
{
closed = 1;
nodes = (
(364,0,l),
(626,710,l),
(492,710,l),
(230,0,l)
);
},
{
closed = 1;
nodes = (
(500,158,l),
(547,292,l),
(43,292,l),
(-4,158,l)
);
},
{
closed = 1;
nodes = (
(144,0,l),
(405,710,l),
(271,710,l),
(10,0,l)
);
},
{
closed = 1;
nodes = (
(592,412,l),
(639,546,l),
(135,546,l),
(88,412,l)
);
}
);
width = 600;
}
);
unicode = 35;
}
{
glyphname = dollar;
layers = (
{
background = {
shapes = (
{
closed = 1;
nodes = (
(238,-91,l),
(428,800,l),
(398,800,l),
(208,-91,l)
);
},
{
closed = 1;
nodes = (
(374,-16,o),
(498,56,o),
(522,170,cs),
(543,272,o),
(504,320,o),
(319,372,cs),
(183,410,o),
(144,439,o),
(162,526,cs),
(182,616,o),
(266,680,o),
(379,680,cs),
(505,680,o),
(559,593,o),
(537,491,c),
(572,494,l),
(595,602,o),
(536,712,o),
(388,712,cs),
(251,712,o),
(151,630,o),
(129,528,cs),
(105,416,o),
(166,380,o),
(302,342,cs),
(472,294,o),
(505,253,o),
(488,172,cs),
(467,74,o),
(366,16,o),
(258,16,cs),
(131,16,o),
(58,112,o),
(82,222,c),
(48,219,l),
(21,89,o),
(110,-16,o),
(249,-16,cs)
);
}
);
};
layerId = "EE2FFE84-06F1-4AFB-BBEC-60D09A436D14";
shapes = (
{
closed = 1;
nodes = (
(238,-91,l),
(428,800,l),
(398,800,l),
(208,-91,l)
);
},
{
closed = 1;
nodes = (
(419,-16,o),
(522,68,o),
(522,204,cs),
(522,286,o),
(484,328,o),
(310,376,cs),
(190,409,o),
(162,436,o),
(162,498,cs),
(162,600,o),
(236,678,o),
(374,678,cs),
(492,678,o),
(539,622,o),
(539,538,cs),
(539,520,o),
(537,504,o),
(534,489,c),
(569,492,l),
(572,507,o),
(573,523,o),
(573,540,cs),
(573,648,o),
(500,710,o),
(380,710,cs),
(212,710,o),
(129,611,o),
(129,495,cs),
(129,407,o),
(180,382,o),
(298,346,cs),
(463,296,o),
(489,271,o),
(489,202,cs),
(489,82,o),
(396,16,o),
(250,16,cs),
(124,16,o),
(78,80,o),
(78,168,cs),
(78,188,o),
(81,212,o),
(84,222,c),
(50,219,l),
(46,205,o),
(44,183,o),
(44,164,cs),
(44,56,o),
(113,-16,o),
(246,-16,cs)
);
}
);
width = 600;
},
{
background = {
shapes = (
{
closed = 1;
nodes = (
(261,-90,l),
(451,800,l),
(377,800,l),
(187,-90,l)
);
},
{
closed = 1;
nodes = (
(396,-16,o),
(513,62,o),
(537,174,cs),
(562,292,o),
(510,341,o),
(347,390,cs),
(222,428,o),
(190,451,o),
(205,518,cs),
(219,586,o),
(284,626,o),
(372,626,cs),
(468,626,o),
(506,570,o),
(499,484,c),
(591,490,l),
(602,620,o),
(537,710,o),
(391,710,cs),
(245,710,o),
(139,633,o),
(114,514,cs),
(93,418,o),
(138,357,o),
(278,318,cs),
(437,274,o),
(461,244,o),
(447,176,cs),
(432,107,o),
(370,68,o),
(271,68,cs),
(171,68,o),
(119,127,o),
(127,233,c),
(36,227,l),
(17,83,o),
(101,-16,o),
(251,-16,cs)
);
}
);
};
layerId = "574EE4B9-5C1A-4E7E-9985-C08FACB65BD8";
shapes = (
{
closed = 1;
nodes = (
(261,-90,l),
(451,800,l),
(377,800,l),
(187,-90,l)
);
},
{
closed = 1;
nodes = (
(413,-16,o),
(538,55,o),
(538,218,cs),
(538,302,o),
(494,354,o),
(350,392,cs),
(222,426,o),
(197,442,o),
(197,500,cs),
(197,566,o),
(244,626,o),
(366,626,cs),
(462,626,o),
(497,576,o),
(497,516,cs),
(497,501,o),
(496,487,o),
(493,478,c),
(583,484,l),
(586,493,o),
(587,510,o),
(587,524,cs),
(587,637,o),
(517,710,o),
(377,710,cs),
(202,710,o),
(107,616,o),
(107,492,cs),
(107,397,o),
(156,353,o),
(284,320,cs),
(426,283,o),
(448,260,o),
(448,208,cs),
(448,107,o),
(371,68,o),
(268,68,cs),
(165,68,o),
(122,109,o),
(122,182,cs),
(122,202,o),
(125,223,o),
(128,233,c),
(38,227,l),
(35,214,o),
(32,191,o),
(32,172,cs),
(32,56,o),
(115,-16,o),
(255,-16,cs)
);
}
);
width = 600;
},
{
background = {
shapes = (
{
closed = 1;
nodes = (
(269,-91,l),
(460,805,l),
(374,805,l),
(183,-91,l)
);
},
{
closed = 1;
nodes = (
(409,-6,o),
(517,68,o),
(546,206,cs),
(569,314,o),
(534,384,o),
(377,424,cs),
(274,450,o),
(254,466,o),
(263,512,cs),
(271,549,o),
(301,572,o),
(358,572,cs),
(424,572,o),
(434,539,o),
(428,473,c),
(600,480,l),
(625,635,o),
(552,716,o),
(397,716,cs),
(235,716,o),
(133,632,o),
(106,504,cs),
(79,378,o),
(151,320,o),
(267,294,cs),
(370,271,o),
(395,245,o),
(384,196,cs),
(376,158,o),
(345,138,o),
(281,138,cs),
(219,138,o),
(202,174,o),
(207,257,c),
(36,249,l),
(10,79,o),
(74,-6,o),
(243,-6,cs)
);
}
);
};
layerId = "58B1DC7A-69F8-4375-AD2E-AC5103CCF536";
shapes = (
{
closed = 1;
nodes = (
(264,-91,l),
(455,805,l),
(375,805,l),
(184,-91,l)
);
},
{
closed = 1;
nodes = (
(447,-6,o),
(547,102,o),
(547,238,cs),
(547,322,o),
(506,395,o),
(374,426,cs),
(289,446,o),
(264,456,o),
(264,502,cs),
(264,544,o),
(294,572,o),
(352,572,cs),
(409,572,o),
(429,555,o),
(429,517,cs),
(429,497,o),
(427,481,o),
(425,473,c),
(592,480,l),
(596,498,o),
(599,525,o),
(599,554,cs),
(599,653,o),
(528,716,o),
(384,716,cs),
(190,716,o),
(92,606,o),
(92,476,cs),
(92,368,o),
(157,317,o),
(268,292,cs),
(356,272,o),
(374,254,o),
(374,210,cs),
(374,162,o),
(346,138,o),
(280,138,cs),
(227,138,o),
(205,153,o),
(205,194,cs),
(205,216,o),
(208,243,o),
(210,257,c),
(36,249,l),
(31,225,o),
(28,202,o),
(28,161,cs),
(28,64,o),
(93,-6,o),
(246,-6,cs)
);
}
);
width = 600;
}
);
unicode = 36;
}
{
glyphname = percent;
layers = (
{
background = {
shapes = (
{
closed = 1;
nodes = (
(246,398,o),
(309,458,o),
(330,558,cs),
(351,658,o),
(314,718,o),
(240,718,cs),
(166,718,o),
(103,658,o),
(82,558,cs),
(61,458,o),
(98,398,o),
(172,398,cs)
);
},
{
closed = 1;
nodes = (
(120,426,o),
(93,470,o),
(112,558,cs),
(131,646,o),
(176,690,o),
(234,690,cs),
(292,690,o),
(319,646,o),
(300,558,cs),
(281,470,o),
(236,426,o),
(178,426,cs)
);
},
{
closed = 1;
nodes = (
(33,0,l),
(635,710,l),
(605,710,l),
(3,0,l)
);
},
{
closed = 1;
nodes = (
(472,-8,o),
(535,52,o),
(556,152,cs),
(577,252,o),
(540,312,o),
(466,312,cs),
(392,312,o),
(329,252,o),
(308,152,cs),
(287,52,o),
(324,-8,o),
(398,-8,cs)
);
},
{
closed = 1;
nodes = (
(346,20,o),
(319,64,o),
(338,152,cs),
(357,240,o),
(402,284,o),
(460,284,cs),
(518,284,o),
(545,240,o),
(526,152,cs),
(507,64,o),
(462,20,o),
(404,20,cs)
);
}
);
};
layerId = "EE2FFE84-06F1-4AFB-BBEC-60D09A436D14";
shapes = (
{
closed = 1;
nodes = (
(263,398,o),
(337,494,o),
(337,610,cs),
(337,678,o),
(301,718,o),
(241,718,cs),
(151,718,o),
(77,622,o),
(77,506,cs),
(77,438,o),
(113,398,o),
(173,398,cs)
);
},
{
closed = 1;
nodes = (
(132,426,o),
(107,450,o),
(107,508,cs),
(107,606,o),
(161,690,o),
(235,690,cs),
(282,690,o),
(307,666,o),
(307,608,cs),
(307,510,o),
(253,426,o),
(179,426,cs)
);
},
{
closed = 1;
nodes = (
(36,0,l),
(634,710,l),
(602,710,l),
(4,0,l)
);
},
{
closed = 1;
nodes = (
(487,-8,o),
(561,88,o),
(561,204,cs),
(561,272,o),
(525,312,o),
(465,312,cs),
(375,312,o),
(301,216,o),
(301,100,cs),
(301,32,o),
(337,-8,o),
(397,-8,cs)
);
},
{
closed = 1;
nodes = (
(356,20,o),
(331,44,o),
(331,102,cs),
(331,200,o),
(385,284,o),
(459,284,cs),
(506,284,o),
(531,260,o),
(531,202,cs),
(531,104,o),
(477,20,o),
(403,20,cs)
);
}
);
width = 600;
},
{
background = {
shapes = (
{
closed = 1;
nodes = (
(255,366,o),
(333,428,o),
(357,542,cs),
(381,656,o),
(330,718,o),
(250,718,cs),
(170,718,o),
(93,656,o),
(69,542,cs),
(45,428,o),
(95,366,o),
(175,366,cs)
);
},
{
closed = 1;
nodes = (
(145,428,o),
(125,470,o),
(141,542,cs),
(156,614,o),
(193,656,o),
(237,656,cs),
(281,656,o),
(300,614,o),
(285,542,cs),
(269,470,o),
(233,428,o),
(189,428,cs)
);
},
{
closed = 1;
nodes = (
(69,0,l),
(645,710,l),
(569,710,l),
(-7,0,l)
);
},
{
closed = 1;
nodes = (
(468,-8,o),
(545,54,o),
(569,168,cs),
(593,282,o),
(543,344,o),
(463,344,cs),
(383,344,o),
(305,282,o),
(281,168,cs),
(257,54,o),
(308,-8,o),
(388,-8,cs)
);
},
{
closed = 1;
nodes = (
(357,54,o),
(338,96,o),
(353,168,cs),
(369,240,o),
(405,282,o),
(449,282,cs),
(493,282,o),
(513,240,o),
(497,168,cs),
(482,96,o),
(445,54,o),
(401,54,cs)
);
}
);
};
layerId = "574EE4B9-5C1A-4E7E-9985-C08FACB65BD8";
shapes = (
{
closed = 1;
nodes = (
(280,366,o),
(364,471,o),
(364,595,cs),
(364,671,o),
(321,718,o),
(251,718,cs),
(147,718,o),
(64,613,o),
(64,488,cs),
(64,413,o),
(107,366,o),
(176,366,cs)
);
},
{
closed = 1;
nodes = (
(156,428,o),
(137,449,o),
(137,497,cs),
(137,581,o),
(185,656,o),
(238,656,cs),
(272,656,o),
(291,634,o),
(291,586,cs),
(291,504,o),
(242,428,o),
(190,428,cs)
);
},
{
closed = 1;
nodes = (
(72,0,l),
(644,710,l),
(566,710,l),
(-6,0,l)
);
},
{
closed = 1;
nodes = (
(491,-8,o),
(575,97,o),
(575,221,cs),
(575,297,o),
(532,344,o),
(462,344,cs),
(358,344,o),
(275,239,o),
(275,114,cs),
(275,39,o),
(318,-8,o),
(387,-8,cs)
);
},
{
closed = 1;
nodes = (
(367,54,o),
(348,75,o),
(348,123,cs),
(348,207,o),
(396,282,o),
(449,282,cs),
(483,282,o),
(502,260,o),
(502,212,cs),
(502,130,o),
(453,54,o),
(401,54,cs)
);
}
);
width = 600;
},
{
background = {
shapes = (
{
closed = 1;
nodes = (
(260,366,o),
(332,419,o),
(358,542,cs),
(384,664,o),
(335,718,o),
(245,718,cs),
(155,718,o),
(84,664,o),
(58,542,cs),
(32,419,o),
(80,366,o),
(170,366,cs)
);
},
{
closed = 1;
nodes = (
(165,452,o),
(158,479,o),
(172,542,cs),
(185,604,o),
(203,632,o),
(227,632,cs),
(251,632,o),
(257,604,o),
(244,542,cs),
(230,479,o),
(213,452,o),
(189,452,cs)
);
},
{
closed = 1;
nodes = (
(94,0,l),
(642,710,l),
(542,710,l),
(-6,0,l)
);
},
{
closed = 1;
nodes = (
(481,-8,o),
(552,45,o),
(578,168,cs),
(604,290,o),
(556,344,o),
(466,344,cs),
(376,344,o),
(304,290,o),
(278,168,cs),
(252,45,o),
(301,-8,o),
(391,-8,cs)
);
},
{
closed = 1;
nodes = (
(385,78,o),
(379,105,o),
(392,168,cs),
(405,230,o),
(423,258,o),
(447,258,cs),
(471,258,o),
(477,230,o),
(464,168,cs),
(451,105,o),
(433,78,o),
(409,78,cs)
);
}
);
};
layerId = "58B1DC7A-69F8-4375-AD2E-AC5103CCF536";
shapes = (
{
closed = 1;
nodes = (
(298,366,o),
(370,482,o),
(370,602,cs),
(370,678,o),
(331,718,o),
(253,718,cs),
(133,718,o),
(62,601,o),
(62,481,cs),
(62,405,o),
(100,366,o),
(178,366,cs)
);
},
{
closed = 1;
nodes = (
(181,452,o),
(173,464,o),
(173,489,cs),
(173,559,o),
(206,632,o),
(235,632,cs),
(251,632,o),
(259,620,o),
(259,594,cs),
(259,524,o),
(226,452,o),
(197,452,cs)
);
},
{
closed = 1;
nodes = (
(84,0,l),
(646,710,l),
(552,710,l),
(-10,0,l)
);
},
{
closed = 1;
nodes = (
(502,-8,o),
(574,108,o),
(574,228,cs),
(574,304,o),
(535,344,o),
(457,344,cs),
(337,344,o),
(266,227,o),
(266,107,cs),
(266,31,o),
(304,-8,o),
(382,-8,cs)
);
},
{
closed = 1;
nodes = (
(385,78,o),
(377,90,o),
(377,115,cs),
(377,185,o),
(410,258,o),
(439,258,cs),
(455,258,o),
(463,246,o),
(463,220,cs),
(463,150,o),
(430,78,o),
(401,78,cs)
);
}
);
width = 600;
}
);
unicode = 37;
}
{
glyphname = ampersand;
layers = (
{
background = {
shapes = (
{
closed = 1;
nodes = (
(284,-16,o),
(359,20,o),
(415,70,c),
(456,0,l),
(496,0,l),
(441,95,l),
(478,131,o),
(516,188,o),
(535,242,c),
(502,246,l),
(486,198,o),
(459,155,o),
(427,120,c),
(272,384,l),
(397,452,o),
(450,506,o),
(467,584,cs),
(486,676,o),
(436,726,o),
(352,726,cs),
(265,726,o),
(196,671,o),
(178,584,cs),
(165,524,o),
(181,486,o),
(231,395,c),
(123,335,o),
(49,272,o),
(28,170,cs),
(2,50,o),
(74,-16,o),
(198,-16,cs)
);
},
{
closed = 1;
nodes = (
(103,16,o),
(40,68,o),
(62,170,cs),
(78,246,o),
(130,306,o),
(243,370,c),
(401,96,l),
(352,48,o),
(278,16,o),
(209,16,cs)
);
},
{
closed = 1;
nodes = (
(213,494,o),
(201,534,o),
(212,584,cs),
(226,652,o),
(278,694,o),
(345,694,cs),
(414,694,o),
(447,651,o),
(432,582,cs),
(417,512,o),
(377,476,o),
(260,408,c)
);
}
);
};
layerId = "EE2FFE84-06F1-4AFB-BBEC-60D09A436D14";
name = Regular;
shapes = (
{
closed = 1;
nodes = (
(288,-16,o),
(360,18,o),
(416,72,c),
(456,0,l),
(496,0,l),
(440,95,l),
(478,132,o),
(516,188,o),
(535,242,c),
(502,246,l),
(486,198,o),
(458,156,o),
(425,120,c),
(275,384,l),
(415,454,o),
(480,499,o),
(480,600,cs),
(480,684,o),
(431,726,o),
(352,726,cs),
(252,726,o),
(177,664,o),
(177,564,cs),
(177,500,o),
(196,464,o),
(236,395,c),
(83,318,o),
(27,250,o),
(27,138,cs),
(27,32,o),
(93,-16,o),
(200,-16,cs)
);
},
{
closed = 1;
nodes = (
(119,16,o),
(61,54,o),
(61,142,cs),
(61,242,o),
(121,304,o),
(248,370,c),
(401,98,l),
(352,47,o),
(280,16,o),
(205,16,cs)
);
},
{
closed = 1;
nodes = (
(227,468,o),
(211,510,o),
(211,560,cs),
(211,636,o),
(263,694,o),
(348,694,cs),
(410,694,o),
(446,665,o),
(446,598,cs),
(446,516,o),
(405,476,o),
(263,408,c)
);
}
);
width = 600;
},
{
background = {
shapes = (
{
closed = 1;
nodes = (
(276,-16,o),
(348,8,o),
(395,45,c),
(423,0,l),
(524,0,l),
(460,103,l),
(509,150,o),
(553,230,o),
(571,310,c),
(489,318,l),
(475,250,o),
(452,199,o),
(421,166,c),
(303,373,l),
(425,444,o),
(477,498,o),
(494,574,cs),
(514,668,o),
(466,726,o),
(360,726,cs),
(252,726,o),
(173,664,o),
(151,562,cs),
(138,499,o),
(154,454,o),
(187,394,c),
(65,319,o),
(20,265,o),
(1,174,cs),
(-25,52,o),
(44,-16,o),
(180,-16,cs)
);
},
{
closed = 1;
nodes = (
(109,64,o),
(76,107,o),
(91,174,cs),
(104,236,o),
(141,278,o),
(223,328,c),
(352,106,l),
(324,82,o),
(275,64,o),
(207,64,cs)
);
},
{
closed = 1;
nodes = (
(239,488,o),
(232,521,o),
(241,562,cs),
(252,612,o),
(289,642,o),
(342,642,cs),
(390,642,o),
(412,616,o),
(402,568,cs),
(391,517,o),
(356,481,o),
(270,434,c)
);
}
);
};
layerId = "574EE4B9-5C1A-4E7E-9985-C08FACB65BD8";
name = Regular;
shapes = (
{
closed = 1;
nodes = (
(273,-16,o),
(345,8,o),
(393,45,c),
(419,0,l),
(520,0,l),
(458,103,l),
(506,150,o),
(549,230,o),
(567,310,c),
(485,318,l),
(471,250,o),
(450,199,o),
(419,164,c),
(308,373,l),
(456,460,o),
(502,498,o),
(502,588,cs),
(502,669,o),
(455,726,o),
(358,726,cs),
(220,726,o),
(152,652,o),
(152,532,cs),
(152,489,o),
(167,440,o),
(192,394,c),
(62,321,o),
(5,268,o),
(5,140,cs),
(5,35,o),
(68,-16,o),
(183,-16,cs)
);
},
{
closed = 1;
nodes = (
(126,64,o),
(95,91,o),
(95,154,cs),
(95,234,o),
(136,276,o),
(228,328,c),
(353,106,l),
(322,82,o),
(269,64,o),
(204,64,cs)
);
},
{
closed = 1;
nodes = (
(252,474,o),
(242,510,o),
(242,542,cs),
(242,594,o),
(266,642,o),
(340,642,cs),
(386,642,o),
(412,625,o),
(412,580,cs),
(412,520,o),
(386,494,o),
(275,434,c)
);
}
);
width = 600;
},
{
background = {
shapes = (
{
closed = 1;
nodes = (
(242,-16,o),
(300,8,o),
(338,34,c),
(357,0,l),
(533,0,l),
(470,120,l),
(530,173,o),
(586,243,o),
(610,316,c),
(464,336,l),
(455,307,o),
(432,275,o),
(416,260,c),
(371,348,l),
(476,404,o),
(546,465,o),
(565,554,cs),
(587,654,o),
(543,726,o),
(394,726,cs),
(255,726,o),
(160,648,o),
(136,534,cs),
(123,472,o),
(145,426,o),
(168,384,c),
(59,325,o),
(-1,266,o),
(-22,166,cs),
(-46,52,o),
(9,-16,o),
(155,-16,cs)
);
},
{
closed = 1;
nodes = (
(176,141,o),
(158,166,o),
(165,200,cs),
(171,229,o),
(194,256,o),
(225,274,c),
(281,162,l),
(262,148,o),
(240,141,o),
(211,141,cs)
);
},
{
closed = 1;
nodes = (
(300,486,o),
(299,514,o),
(303,534,cs),
(309,560,o),
(330,579,o),
(361,579,cs),
(390,579,o),
(403,560,o),
(397,534,cs),
(391,506,o),
(364,480,o),
(319,456,c)
);
}
);
};
layerId = "58B1DC7A-69F8-4375-AD2E-AC5103CCF536";
name = Regular;
shapes = (
{
closed = 1;
nodes = (
(241,-16,o),
(300,8,o),
(338,36,c),
(357,0,l),
(533,0,l),
(470,120,l),
(520,160,o),
(582,240,o),
(600,316,c),
(458,338,l),
(449,309,o),
(432,276,o),
(416,260,c),
(371,348,l),
(477,405,o),
(570,480,o),
(570,599,cs),
(570,675,o),
(519,726,o),
(394,726,cs),
(228,726,o),
(132,619,o),
(132,498,cs),
(132,453,o),
(150,417,o),
(168,384,c),
(47,319,o),
(-14,239,o),
(-14,128,cs),
(-14,40,o),
(42,-16,o),
(148,-16,cs)
);
},
{
closed = 1;
nodes = (
(181,141,o),
(164,159,o),
(164,186,cs),
(164,220,o),
(189,253,o),
(225,274,c),
(282,164,l),
(263,148,o),
(240,141,o),
(211,141,cs)
);
},
{
closed = 1;
nodes = (
(306,477,o),
(301,498,o),
(301,515,cs),
(301,550,o),
(323,579,o),
(361,579,cs),
(385,579,o),
(398,566,o),
(398,546,cs),
(398,513,o),
(370,483,o),
(319,456,c)
);
}
);
width = 600;
}
);
unicode = 38;
}
{
color = 9;
glyphname = quotesingle;
kernLeft = "0";
kernRight = "0";
layers = (
{
layerId = "EE2FFE84-06F1-4AFB-BBEC-60D09A436D14";
shapes = (
{
closed = 1;
nodes = (
(339,383,l),
(400,640,l),
(415,710,l),
(375,710,l),
(360,640,l),
(311,383,l)
);
}
);
width = 600;
},
{
layerId = "574EE4B9-5C1A-4E7E-9985-C08FACB65BD8";
shapes = (
{
closed = 1;
nodes = (
(355,383,l),
(422,634,l),
(439,710,l),
(351,710,l),
(334,634,l),
(295,383,l)
);
}
);
width = 600;
},
{
layerId = "58B1DC7A-69F8-4375-AD2E-AC5103CCF536";
shapes = (
{
closed = 1;
nodes = (
(380,372,l),
(444,620,l),
(463,710,l),
(323,710,l),
(304,620,l),
(264,372,l)
);
}
);
width = 600;
}
);
unicode = 39;
}
{
color = 9;
glyphname = parenleft;
kernLeft = parenleft;
kernRight = parenleft;
layers = (
{
background = {
shapes = (
{
closed = 1;
nodes = (
(189,-110,l),
(49,177,o),
(49,463,o),
(189,750,c),
(164,750,l),
(12,463,o),
(12,177,o),
(164,-110,c)
);
}
);
};
layerId = "EE2FFE84-06F1-4AFB-BBEC-60D09A436D14";
shapes = (
{
closed = 1;
nodes = (
(314,-110,l),
(251,-29,o),
(229,53,o),
(229,136,cs),
(229,348,o),
(322,558,o),
(496,750,c),
(471,750,l),
(292,562,o),
(197,364,o),
(197,148,cs),
(197,60,o),
(221,-24,o),
(289,-110,c)
);
}
);
width = 600;
},
{
background = {
shapes = (
{
closed = 1;
nodes = (
(362,-110,l),
(314,34,o),
(306,177,o),
(336,320,cs),
(366,463,o),
(436,607,o),
(544,750,c),
(372,750,l),
(254,608,o),
(179,464,o),
(148,320,cs),
(117,176,o),
(132,32,o),
(190,-110,c)
);
}
);
};
layerId = "58B1DC7A-69F8-4375-AD2E-AC5103CCF536";
shapes = (
{
closed = 1;
nodes = (
(383,-110,l),
(334,-22,o),
(309,64,o),
(309,152,cs),
(309,362,o),
(401,559,o),
(565,750,c),
(399,750,l),
(231,572,o),
(129,378,o),
(129,173,cs),
(129,77,o),
(159,-16,o),
(217,-110,c)
);
}
);
width = 600;
},
{
background = {
shapes = (
{
closed = 1;
nodes = (
(259,-110,l),
(90,177,o),
(90,463,o),
(259,750,c),
(184,750,l),
(-1,474,o),
(-1,166,o),
(184,-110,c)
);
}
);
};
layerId = "574EE4B9-5C1A-4E7E-9985-C08FACB65BD8";
shapes = (
{
closed = 1;
nodes = (
(346,-110,l),
(291,-17,o),
(254,73,o),
(254,167,cs),
(254,377,o),
(360,563,o),
(529,750,c),
(454,750,l),
(278,572,o),
(168,384,o),
(168,176,cs),
(168,76,o),
(209,-18,o),
(271,-110,c)
);
}
);
width = 600;
}
);
unicode = 40;
}
{
color = 9;
glyphname = asterisk;
kernLeft = "0";
kernRight = "0";
layers = (
{
background = {
shapes = (
{
closed = 1;
nodes = (
(300,493,l),
(389,337,l),
(416,352,l),
(325,507,l),
(511,507,l),
(511,537,l),
(325,537,l),
(416,693,l),
(390,708,l),
(300,551,l),
(211,707,l),
(184,692,l),
(275,537,l),
(89,537,l),
(89,507,l),
(275,507,l),
(184,351,l),
(210,336,l)
);
}
);
};
layerId = "EE2FFE84-06F1-4AFB-BBEC-60D09A436D14";
shapes = (
{
closed = 1;
nodes = (
(359,530,l),
(406,398,l),
(433,414,l),
(384,539,l),
(528,539,l),
(535,569,l),
(393,569,l),
(496,694,l),
(471,710,l),
(365,578,l),
(318,710,l),
(291,694,l),
(340,569,l),
(195,569,l),
(188,539,l),
(331,539,l),
(228,414,l),
(253,398,l)
);
}
);
width = 600;
},
{
background = {
shapes = (
{
closed = 1;
nodes = (
(300,450,l),
(378,316,l),
(433,346,l),
(355,483,l),
(515,483,l),
(515,546,l),
(355,546,l),
(433,680,l),
(378,712,l),
(300,577,l),
(222,712,l),
(167,681,l),
(245,546,l),
(85,546,l),
(85,483,l),
(245,483,l),
(167,348,l),
(222,316,l)
);
}
);
};
layerId = "574EE4B9-5C1A-4E7E-9985-C08FACB65BD8";
shapes = (
{
closed = 1;
nodes = (
(350,488,l),
(392,382,l),
(450,416,l),
(404,518,l),
(523,518,l),
(537,582,l),
(421,582,l),
(510,684,l),
(461,718,l),
(372,611,l),
(330,718,l),
(272,684,l),
(318,582,l),
(198,582,l),
(184,518,l),
(301,518,l),
(212,416,l),
(261,382,l)
);
}
);
width = 600;
},
{
background = {
shapes = (
{
closed = 1;
nodes = (
(300,391,l),
(361,277,l),
(459,332,l),
(386,443,l),
(524,437,l),
(524,550,l),
(386,544,l),
(459,654,l),
(360,711,l),
(300,588,l),
(240,711,l),
(141,655,l),
(214,544,l),
(76,550,l),
(76,437,l),
(214,443,l),
(141,332,l),
(239,276,l)
);
}
);
};
layerId = "58B1DC7A-69F8-4375-AD2E-AC5103CCF536";
shapes = (
{
closed = 1;
nodes = (
(341,444,l),
(374,356,l),
(464,405,l),
(424,488,l),
(526,487,l),
(548,592,l),
(448,591,l),
(524,674,l),
(448,723,l),
(373,634,l),
(340,723,l),
(250,674,l),
(290,591,l),
(188,592,l),
(166,487,l),
(266,488,l),
(190,405,l),
(266,356,l)
);
}
);
width = 600;
}
);
unicode = 42;
}
{
glyphname = comma;
layers = (
{
background = {
shapes = (
{
closed = 1;
nodes = (
(291,-125,l),
(340,0,l),
(305,0,l),
(266,-125,l)
);
},
{
pos = (3,0);
ref = period;
}
);
};
layerId = "EE2FFE84-06F1-4AFB-BBEC-60D09A436D14";
shapes = (
{
closed = 1;
nodes = (
(206,-162,l),
(285,8,l),
(301,80,l),
(221,80,l),
(204,0,l),
(244,0,l),
(178,-162,l)
);
}
);
width = 600;
},
{
background = {
shapes = (
{
closed = 1;
nodes = (
(290,-161,l),
(359,0,l),
(290,0,l),
(239,-161,l)
);
},
{
alignment = -1;
ref = period;
}
);
};
layerId = "574EE4B9-5C1A-4E7E-9985-C08FACB65BD8";
shapes = (
{
closed = 1;
nodes = (
(213,-162,l),
(306,12,l),
(330,122,l),
(210,122,l),
(184,0,l),
(232,0,l),
(151,-162,l)
);
}
);
width = 600;
},
{
background = {
shapes = (
{
closed = 1;
nodes = (
(285,-158,l),
(392,16,l),
(425,170,l),
(245,170,l),
(209,0,l),
(283,0,l),
(197,-158,l)
);
}
);
};
layerId = "58B1DC7A-69F8-4375-AD2E-AC5103CCF536";
shapes = (
{
closed = 1;
nodes = (
(229,-162,l),
(336,16,l),
(369,170,l),
(189,170,l),
(153,0,l),
(224,0,l),
(131,-162,l)
);
}
);
width = 600;
}
);
unicode = 44;
}
{
color = 4;
glyphname = hyphen;
layers = (
{
background = {
shapes = (
{
closed = 1;
nodes = (
(448,292,l),
(448,322,l),
(152,322,l),
(152,292,l)
);
}
);
};
layerId = "EE2FFE84-06F1-4AFB-BBEC-60D09A436D14";
shapes = (
{
closed = 1;
nodes = (
(470,266,l),
(476,296,l),
(137,296,l),
(131,266,l)
);
}
);
width = 600;
},
{
background = {
shapes = (
{
closed = 1;
nodes = (
(465,276,l),
(465,354,l),
(135,354,l),
(135,276,l)
);
}
);
};
layerId = "574EE4B9-5C1A-4E7E-9985-C08FACB65BD8";
shapes = (
{
closed = 1;
nodes = (
(477,252,l),
(494,331,l),
(134,331,l),
(117,252,l)
);
}
);
width = 600;
},
{
background = {
shapes = (
{
closed = 1;
nodes = (
(476,248,l),
(476,377,l),
(124,377,l),
(124,248,l)
);
}
);
};
layerId = "58B1DC7A-69F8-4375-AD2E-AC5103CCF536";
shapes = (
{
closed = 1;
nodes = (
(479,216,l),
(511,368,l),
(131,368,l),
(99,216,l)
);
}
);
width = 600;
}
);
unicode = 45;
}
{
glyphname = period;
layers = (
{
background = {
shapes = (
{
closed = 1;
nodes = (
(337,0,l),
(337,75,l),
(263,75,l),
(263,0,l)
);
}
);
};
layerId = "EE2FFE84-06F1-4AFB-BBEC-60D09A436D14";
shapes = (
{
closed = 1;
nodes = (
(284,0,l),
(301,80,l),
(221,80,l),
(204,0,l)
);
}
);
width = 600;
},
{
background = {
shapes = (
{
closed = 1;
nodes = (
(359,0,l),
(359,115,l),
(241,115,l),
(241,0,l)
);
}
);
};
layerId = "574EE4B9-5C1A-4E7E-9985-C08FACB65BD8";
shapes = (
{
closed = 1;
nodes = (
(306,0,l),
(332,122,l),
(208,122,l),
(182,0,l)
);
}
);
width = 600;
},
{
background = {
shapes = (
{
closed = 1;
nodes = (
(378,0,l),
(378,154,l),
(222,154,l),
(222,0,l)
);
}
);
};
layerId = "58B1DC7A-69F8-4375-AD2E-AC5103CCF536";
shapes = (
{
closed = 1;
nodes = (
(333,0,l),
(369,170,l),
(189,170,l),
(153,0,l)
);
}
);
width = 600;
}
);
unicode = 46;
}
{
glyphname = slash;
layers = (
{
background = {
shapes = (
{
closed = 1;
nodes = (
(168,-90,l),
(464,726,l),
(432,726,l),
(137,-90,l)
);
}
);
};
layerId = "EE2FFE84-06F1-4AFB-BBEC-60D09A436D14";
shapes = (
{
closed = 1;
nodes = (
(88,-110,l),
(566,746,l),
(534,746,l),
(56,-110,l)
);
}
);
width = 600;
},
{
background = {
shapes = (
{
closed = 1;
nodes = (
(195,-90,l),
(491,769,l),
(404,769,l),
(108,-90,l)
);
}
);
};
layerId = "574EE4B9-5C1A-4E7E-9985-C08FACB65BD8";
shapes = (
{
closed = 1;
nodes = (
(108,-110,l),
(595,750,l),
(515,750,l),
(28,-110,l)
);
}
);
width = 600;
},
{
background = {
shapes = (
{
closed = 1;
nodes = (
(220,-90,l),
(516,738,l),
(380,738,l),
(84,-90,l)
);
}
);
};
layerId = "58B1DC7A-69F8-4375-AD2E-AC5103CCF536";
shapes = (
{
closed = 1;
nodes = (
(151,-110,l),
(630,750,l),
(470,750,l),
(-9,-110,l)
);
}
);
width = 600;
}
);
unicode = 47;
}
{
glyphname = one;
layers = (
{
background = {
shapes = (
{
closed = 1;
nodes = (
(233,0,l),
(383,710,l),
(357,710,l),
(336,610,o),
(303,590,o),
(228,590,cs),
(165,590,l),
(159,564,l),
(320,564,l),
(201,0,l)
);
},
{
closed = 1;
nodes = (
(423,0,l),
(428,28,l),
(-12,28,l),
(-17,0,l)
);
}
);
};
layerId = "EE2FFE84-06F1-4AFB-BBEC-60D09A436D14";
shapes = (
{
closed = 1;
nodes = (
(464,0,l),
(470,28,l),
(266,28,l),
(277,14,l),
(425,710,l),
(399,710,l),
(378,610,o),
(344,590,o),
(269,590,cs),
(206,590,l),
(201,564,l),
(362,564,l),
(245,14,l),
(262,28,l),
(30,28,l),
(24,0,l)
);
}
);
width = 600;
},
{
background = {
shapes = (
{
closed = 1;
nodes = (
(283,0,l),
(434,710,l),
(364,710,l),
(347,630,o),
(311,600,o),
(235,600,cs),
(139,600,l),
(123,526,l),
(309,526,l),
(197,0,l)
);
},
{
closed = 1;
nodes = (
(453,0,l),
(471,84,l),
(-9,84,l),
(-27,0,l)
);
}
);
};
layerId = "574EE4B9-5C1A-4E7E-9985-C08FACB65BD8";
shapes = (
{
closed = 1;
nodes = (
(484,0,l),
(502,84,l),
(292,84,l),
(324,44,l),
(465,710,l),
(395,710,l),
(378,630,o),
(342,600,o),
(266,600,cs),
(170,600,l),
(154,526,l),
(340,526,l),
(238,44,l),
(287,84,l),
(22,84,l),
(4,0,l)
);
}
);
width = 600;
},
{
background = {
shapes = (
{
closed = 1;
nodes = (
(327,0,l),
(477,710,l),
(317,710,l),
(296,610,o),
(253,574,o),
(169,574,cs),
(103,574,l),
(71,426,l),
(237,426,l),
(147,0,l)
);
},
{
closed = 1;
nodes = (
(477,0,l),
(510,158,l),
(-10,158,l),
(-43,0,l)
);
}
);
};
layerId = "58B1DC7A-69F8-4375-AD2E-AC5103CCF536";
shapes = (
{
closed = 1;
nodes = (
(503,0,l),
(536,158,l),
(317,158,l),
(372,90,l),
(503,710,l),
(343,710,l),
(322,610,o),
(279,574,o),
(195,574,cs),
(129,574,l),
(97,426,l),
(263,426,l),
(192,90,l),
(275,158,l),
(16,158,l),
(-17,0,l)
);
}
);
width = 600;
}
);
unicode = 49;
}
{
glyphname = two;
layers = (
{
background = {
shapes = (
{
closed = 1;
nodes = (
(459,0,l),
(465,30,l),
(21,30,l),
(47,122,o),
(140,213,o),
(310,288,cs),
(460,354,o),
(539,412,o),
(563,522,cs),
(587,637,o),
(524,726,o),
(388,726,cs),
(248,726,o),
(135,639,o),
(86,496,c),
(120,493,l),
(168,625,o),
(260,694,o),
(381,694,cs),
(500,694,o),
(549,618,o),
(528,520,cs),
(508,426,o),
(439,379,o),
(298,315,cs),
(99,225,o),
(6,130,o),
(-21,0,c)
);
}
);
};
layerId = "EE2FFE84-06F1-4AFB-BBEC-60D09A436D14";
shapes = (
{
closed = 1;
nodes = (
(480,0,l),
(486,30,l),
(55,30,l),
(81,122,o),
(168,215,o),
(338,288,cs),
(524,368,o),
(596,448,o),
(596,568,cs),
(596,660,o),
(533,726,o),
(412,726,cs),
(258,726,o),
(159,640,o),
(111,496,c),
(145,493,l),
(193,627,o),
(282,694,o),
(404,694,cs),
(509,694,o),
(562,643,o),
(562,562,cs),
(562,459,o),
(501,391,o),
(326,315,cs),
(126,228,o),
(40,130,o),
(13,0,c)
);
}
);
width = 600;
},
{
background = {
shapes = (
{
closed = 1;
nodes = (
(468,0,l),
(486,84,l),
(92,84,l),
(108,138,o),
(189,212,o),
(332,280,cs),
(495,358,o),
(555,412,o),
(578,520,cs),
(604,642,o),
(536,726,o),
(390,726,cs),
(236,726,o),
(124,637,o),
(78,498,c),
(167,492,l),
(202,588,o),
(272,642,o),
(372,642,cs),
(466,642,o),
(503,591,o),
(487,518,cs),
(472,446,o),
(426,414,o),
(317,362,cs),
(80,249,o),
(0,150,o),
(-32,0,c)
);
}
);
};
layerId = "574EE4B9-5C1A-4E7E-9985-C08FACB65BD8";
shapes = (
{
closed = 1;
nodes = (
(491,0,l),
(509,84,l),
(131,84,l),
(147,148,o),
(213,214,o),
(355,280,cs),
(511,352,o),
(602,413,o),
(606,563,cs),
(606,658,o),
(539,726,o),
(413,726,cs),
(259,726,o),
(147,637,o),
(102,498,c),
(190,492,l),
(226,588,o),
(295,642,o),
(395,642,cs),
(476,642,o),
(516,605,o),
(516,548,cs),
(514,448,o),
(447,408,o),
(341,362,cs),
(102,258,o),
(39,150,o),
(7,0,c)
);
}
);
width = 600;
},
{
background = {
shapes = (
{
closed = 1;
nodes = (
(478,0,l),
(511,158,l),
(192,158,l),
(202,182,o),
(231,203,o),
(350,262,cs),
(500,337,o),
(562,394,o),
(587,512,cs),
(614,641,o),
(554,726,o),
(386,726,cs),
(216,726,o),
(108,635,o),
(63,486,c),
(247,476,l),
(270,538,o),
(296,572,o),
(349,572,cs),
(392,572,o),
(410,546,o),
(400,500,cs),
(387,440,o),
(347,414,o),
(286,386,cs),
(76,290,o),
(-2,188,o),
(-42,0,c)
);
}
);
};
layerId = "58B1DC7A-69F8-4375-AD2E-AC5103CCF536";
shapes = (
{
closed = 1;
nodes = (
(503,0,l),
(536,158,l),
(217,158,l),
(227,182,o),
(255,204,o),
(375,262,cs),
(526,335,o),
(613,405,o),
(613,552,cs),
(613,649,o),
(553,726,o),
(406,726,cs),
(218,726,o),
(132,636,o),
(88,486,c),
(272,476,l),
(292,540,o),
(321,572,o),
(374,572,cs),
(409,572,o),
(429,548,o),
(429,512,cs),
(429,452,o),
(382,418,o),
(310,386,cs),
(94,290,o),
(23,190,o),
(-17,0,c)
);
}
);
width = 600;
}
);
unicode = 50;
}
{
glyphname = three;
layers = (
{
background = {
shapes = (
{
closed = 1;
nodes = (
(366,-16,o),
(486,69,o),
(513,195,cs),
(535,299,o),
(472,374,o),
(355,392,c),
(351,376,l),
(464,389,o),
(544,452,o),
(563,543,cs),
(587,654,o),
(515,726,o),
(394,726,cs),
(274,726,o),
(181,663,o),
(141,564,c),
(175,561,l),
(208,643,o),
(289,694,o),
(387,694,cs),
(490,694,o),
(549,635,o),
(529,543,cs),
(510,454,o),
(425,397,o),
(314,397,cs),
(247,397,l),
(241,367,l),
(308,367,ls),
(430,367,o),
(501,300,o),
(480,199,cs),
(456,85,o),
(355,16,o),
(239,16,cs),
(116,16,o),
(50,80,o),
(60,177,c),
(29,174,l),
(14,60,o),
(91,-16,o),
(232,-16,cs)
);
}
);
};
layerId = "EE2FFE84-06F1-4AFB-BBEC-60D09A436D14";
shapes = (
{
closed = 1;
nodes = (
(407,-16,o),
(526,76,o),
(526,228,cs),
(526,313,o),
(463,376,o),
(354,392,c),
(350,376,l),
(475,389,o),
(576,450,o),
(576,578,cs),
(576,673,o),
(513,726,o),
(393,726,cs),
(263,726,o),
(180,663,o),
(140,564,c),
(174,561,l),
(207,643,o),
(284,694,o),
(386,694,cs),
(498,694,o),
(542,650,o),
(542,570,cs),
(542,459,o),
(438,397,o),
(313,397,cs),
(246,397,l),
(240,367,l),
(307,367,ls),
(423,367,o),
(492,311,o),
(492,225,cs),
(492,85,o),
(378,16,o),
(240,16,cs),
(120,16,o),
(72,64,o),
(72,177,c),
(41,174,l),
(41,43,o),
(107,-16,o),
(237,-16,cs)
);
}
);
width = 600;
},
{
background = {
shapes = (
{
closed = 1;
nodes = (
(376,-16,o),
(500,62,o),
(529,198,cs),
(551,302,o),
(494,376,o),
(381,390,c),
(377,372,l),
(489,392,o),
(557,446,o),
(576,534,cs),
(601,652,o),
(528,726,o),
(390,726,cs),
(252,726,o),
(155,653,o),
(119,547,c),
(208,541,l),
(230,604,o),
(283,642,o),
(373,642,cs),
(461,642,o),
(500,603,o),
(485,530,cs),
(467,449,o),
(399,419,o),
(325,419,cs),
(269,419,l),
(251,335,l),
(307,335,ls),
(399,335,o),
(459,292,o),
(439,198,cs),
(419,102,o),
(331,68,o),
(245,68,cs),
(160,68,o),
(106,102,o),
(116,189,c),
(26,183,l),
(7,66,o),
(74,-16,o),
(228,-16,cs)
);
}
);
};
layerId = "574EE4B9-5C1A-4E7E-9985-C08FACB65BD8";
shapes = (
{
closed = 1;
nodes = (
(407,-16,o),
(542,72,o),
(542,240,cs),
(542,322,o),
(487,374,o),
(390,386,c),
(387,368,l),
(510,390,o),
(586,442,o),
(586,558,cs),
(586,660,o),
(523,726,o),
(393,726,cs),
(230,726,o),
(153,653,o),
(118,547,c),
(207,541,l),
(229,604,o),
(273,642,o),
(379,642,cs),
(460,642,o),
(496,613,o),
(496,548,cs),
(496,458,o),
(424,419,o),
(325,419,cs),
(269,419,l),
(251,335,l),
(307,335,ls),
(396,335,o),
(452,302,o),
(452,232,cs),
(452,111,o),
(349,68,o),
(255,68,cs),
(161,68,o),
(120,95,o),
(120,189,c),
(29,183,l),
(29,53,o),
(97,-16,o),
(241,-16,cs)
);
}
);
width = 600;
},
{
background = {
shapes = (
{
closed = 1;
nodes = (
(398,-16,o),
(512,68,o),
(540,202,cs),
(563,306,o),
(515,374,o),
(405,388,c),
(401,368,l),
(503,384,o),
(571,438,o),
(590,530,cs),
(617,656,o),
(540,726,o),
(390,726,cs),
(238,726,o),
(137,647,o),
(95,516,c),
(274,508,l),
(286,548,o),
(312,574,o),
(356,574,cs),
(390,574,o),
(411,552,o),
(400,502,cs),
(390,454,o),
(359,432,o),
(315,432,cs),
(263,432,l),
(235,300,l),
(287,300,ls),
(349,300,o),
(371,269,o),
(360,218,cs),
(349,166,o),
(315,138,o),
(267,138,cs),
(227,138,o),
(197,156,o),
(203,212,c),
(21,204,l),
(0,68,o),
(60,-16,o),
(230,-16,cs)
);
}
);
};
layerId = "58B1DC7A-69F8-4375-AD2E-AC5103CCF536";
shapes = (
{
closed = 1;
nodes = (
(417,-16,o),
(550,80,o),
(550,240,cs),
(550,318,o),
(502,376,o),
(411,388,c),
(406,368,l),
(529,387,o),
(598,453,o),
(598,556,cs),
(598,661,o),
(530,726,o),
(390,726,cs),
(228,726,o),
(139,652,o),
(96,516,c),
(274,508,l),
(288,551,o),
(314,574,o),
(360,574,cs),
(397,574,o),
(414,556,o),
(414,514,cs),
(414,460,o),
(377,432,o),
(321,432,cs),
(269,432,l),
(241,300,l),
(294,300,ls),
(344,300,o),
(366,279,o),
(366,240,cs),
(366,174,o),
(328,138,o),
(272,138,cs),
(227,138,o),
(206,161,o),
(206,212,c),
(24,204,l),
(24,54,o),
(90,-16,o),
(240,-16,cs)
);
}
);
width = 600;
}
);
unicode = 51;
}
{
glyphname = four;
layers = (
{
background = {
shapes = (
{
closed = 1;
nodes = (
(368,0,l),
(405,175,l),
(495,175,l),
(502,205,l),
(412,205,l),
(519,710,l),
(487,710,l),
(1,201,l),
(-5,175,l),
(373,175,l),
(336,0,l)
);
},
{
closed = 1;
nodes = (
(476,660,l),
(380,205,l),
(40,205,l)
);
}
);
};
layerId = "EE2FFE84-06F1-4AFB-BBEC-60D09A436D14";
shapes = (
{
closed = 1;
nodes = (
(404,0,l),
(441,175,l),
(531,175,l),
(537,205,l),
(447,205,l),
(554,710,l),
(522,710,l),
(36,201,l),
(31,175,l),
(409,175,l),
(372,0,l)
);
},
{
closed = 1;
nodes = (
(512,659,l),
(415,205,l),
(76,205,l)
);
}
);
width = 600;
},
{
background = {
shapes = (
{
closed = 1;
nodes = (
(383,0,l),
(416,154,l),
(502,154,l),
(520,238,l),
(434,238,l),
(534,710,l),
(442,710,l),
(-2,232,l),
(-18,154,l),
(330,154,l),
(297,0,l)
);
},
{
closed = 1;
nodes = (
(422,590,l),
(348,238,l),
(88,238,l)
);
}
);
};
layerId = "574EE4B9-5C1A-4E7E-9985-C08FACB65BD8";
shapes = (
{
closed = 1;
nodes = (
(418,0,l),
(450,154,l),
(536,154,l),
(554,238,l),
(468,238,l),
(568,710,l),
(476,710,l),
(33,232,l),
(16,154,l),
(364,154,l),
(332,0,l)
);
},
{
closed = 1;
nodes = (
(457,588,l),
(382,238,l),
(126,238,l)
);
}
);
width = 600;
},
{
background = {
shapes = (
{
closed = 1;
nodes = (
(408,0,l),
(436,134,l),
(519,134,l),
(551,284,l),
(468,284,l),
(558,710,l),
(349,710,l),
(-11,277,l),
(-41,134,l),
(256,134,l),
(228,0,l)
);
},
{
closed = 1;
nodes = (
(332,492,l),
(288,284,l),
(155,284,l)
);
}
);
};
layerId = "58B1DC7A-69F8-4375-AD2E-AC5103CCF536";
shapes = (
{
closed = 1;
nodes = (
(440,0,l),
(468,134,l),
(551,134,l),
(583,284,l),
(500,284,l),
(590,710,l),
(381,710,l),
(21,277,l),
(-9,134,l),
(288,134,l),
(260,0,l)
);
},
{
closed = 1;
nodes = (
(364,490,l),
(320,284,l),
(190,284,l)
);
}
);
width = 600;
}
);
unicode = 52;
}
{
glyphname = five;
layers = (
{
background = {
shapes = (
{
closed = 1;
nodes = (
(372,-16,o),
(485,76,o),
(518,228,cs),
(547,367,o),
(488,471,o),
(343,471,cs),
(255,471,o),
(162,418,o),
(116,344,c),
(123,336,l),
(236,680,l),
(592,680,l),
(598,710,l),
(214,710,l),
(89,327,l),
(128,327,l),
(174,395,o),
(259,439,o),
(337,439,cs),
(463,439,o),
(509,349,o),
(484,228,cs),
(455,91,o),
(362,16,o),
(248,16,cs),
(134,16,o),
(71,76,o),
(79,176,c),
(46,173,l),
(35,63,o),
(107,-16,o),
(241,-16,cs)
);
}
);
};
layerId = "EE2FFE84-06F1-4AFB-BBEC-60D09A436D14";
shapes = (
{
closed = 1;
nodes = (
(425,-16,o),
(531,120,o),
(531,290,cs),
(531,395,o),
(473,471,o),
(346,471,cs),
(246,471,o),
(158,420,o),
(116,344,c),
(123,336,l),
(236,680,l),
(582,680,l),
(588,710,l),
(214,710,l),
(89,327,l),
(128,327,l),
(174,395,o),
(258,439,o),
(340,439,cs),
(456,439,o),
(497,376,o),
(497,286,cs),
(497,132,o),
(399,16,o),
(247,16,cs),
(127,16,o),
(79,60,o),
(79,176,c),
(46,173,l),
(46,43,o),
(107,-16,o),
(243,-16,cs)
);
}
);
width = 600;
},
{
background = {
shapes = (
{
closed = 1;
nodes = (
(373,-16,o),
(495,85,o),
(526,228,cs),
(556,370,o),
(486,472,o),
(350,472,cs),
(288,472,o),
(212,441,o),
(168,380,c),
(181,364,l),
(268,626,l),
(567,626,l),
(585,710,l),
(207,710,l),
(75,311,l),
(167,311,l),
(201,361,o),
(264,390,o),
(320,390,cs),
(414,390,o),
(457,328,o),
(436,228,cs),
(414,128,o),
(342,68,o),
(250,68,cs),
(168,68,o),
(120,109,o),
(127,189,c),
(36,183,l),
(21,65,o),
(94,-16,o),
(232,-16,cs)
);
}
);
};
layerId = "574EE4B9-5C1A-4E7E-9985-C08FACB65BD8";
shapes = (
{
closed = 1;
nodes = (
(431,-16,o),
(543,116,o),
(543,288,cs),
(543,398,o),
(475,473,o),
(358,473,cs),
(272,473,o),
(206,441,o),
(162,380,c),
(175,364,l),
(262,626,l),
(581,626,l),
(599,710,l),
(201,710,l),
(69,311,l),
(161,311,l),
(195,361,o),
(258,391,o),
(324,391,cs),
(412,391,o),
(453,348,o),
(453,278,cs),
(453,148,o),
(376,68,o),
(252,68,cs),
(161,68,o),
(128,101,o),
(128,189,c),
(37,183,l),
(37,45,o),
(101,-16,o),
(237,-16,cs)
);
}
);
width = 600;
},
{
background = {
shapes = (
{
closed = 1;
nodes = (
(399,-16,o),
(520,85,o),
(552,235,cs),
(581,372,o),
(519,474,o),
(375,474,cs),
(301,474,o),
(240,440,o),
(194,386,c),
(232,373,l),
(290,552,l),
(594,552,l),
(627,710,l),
(181,710,l),
(54,298,l),
(235,286,l),
(249,312,o),
(278,336,o),
(314,336,cs),
(358,336,o),
(382,302,o),
(368,236,cs),
(354,168,o),
(320,138,o),
(272,138,cs),
(224,138,o),
(208,160,o),
(210,204,c),
(23,194,l),
(9,78,o),
(81,-16,o),
(239,-16,cs)
);
}
);
};
layerId = "58B1DC7A-69F8-4375-AD2E-AC5103CCF536";
shapes = (
{
closed = 1;
nodes = (
(420,-16,o),
(556,121,o),
(556,298,cs),
(556,409,o),
(490,474,o),
(376,474,cs),
(302,474,o),
(241,440,o),
(195,386,c),
(233,373,l),
(291,552,l),
(589,552,l),
(622,710,l),
(182,710,l),
(55,298,l),
(236,286,l),
(250,312,o),
(279,336,o),
(315,336,cs),
(352,336,o),
(372,312,o),
(372,270,cs),
(372,190,o),
(330,138,o),
(272,138,cs),
(225,138,o),
(211,160,o),
(211,204,c),
(26,194,l),
(26,68,o),
(82,-16,o),
(240,-16,cs)
);
}
);
width = 600;
}
);
unicode = 53;
}
{
glyphname = six;
layers = (
{
background = {
shapes = (
{
closed = 1;
nodes = (
(370,-16,o),
(478,84,o),
(510,234,cs),
(540,376,o),
(478,472,o),
(338,472,cs),
(232,472,o),
(130,404,o),
(85,302,c),
(94,298,l),
(157,568,o),
(277,694,o),
(399,694,cs),
(490,694,o),
(530,633,o),
(534,559,c),
(568,563,l),
(559,659,o),
(510,726,o),
(406,726,cs),
(233,726,o),
(114,533,o),
(64,298,cs),
(17,78,o),
(99,-16,o),
(234,-16,cs)
);
},
{
closed = 1;
nodes = (
(121,16,o),
(63,113,o),
(90,242,cs),
(115,362,o),
(224,441,o),
(331,441,cs),
(451,441,o),
(502,357,o),
(476,234,cs),
(447,96,o),
(357,16,o),
(241,16,cs)
);
}
);
};
layerId = "EE2FFE84-06F1-4AFB-BBEC-60D09A436D14";
shapes = (
{
closed = 1;
nodes = (
(429,-16,o),
(536,105,o),
(536,296,cs),
(536,403,o),
(475,472,o),
(359,472,cs),
(231,472,o),
(142,404,o),
(98,302,c),
(107,298,l),
(136,556,o),
(273,694,o),
(419,694,cs),
(527,694,o),
(558,637,o),
(564,559,c),
(598,563,l),
(590,661,o),
(541,726,o),
(427,726,cs),
(223,726,o),
(65,518,o),
(65,194,cs),
(65,48,o),
(140,-16,o),
(255,-16,cs)
);
},
{
closed = 1;
nodes = (
(155,16,o),
(99,66,o),
(99,194,cs),
(99,331,o),
(211,441,o),
(353,441,cs),
(451,441,o),
(502,382,o),
(502,290,cs),
(502,122,o),
(411,16,o),
(261,16,cs)
);
}
);
width = 600;
},
{
background = {
shapes = (
{
closed = 1;
nodes = (
(377,-16,o),
(499,80,o),
(532,236,cs),
(563,382,o),
(491,478,o),
(351,478,cs),
(249,478,o),
(162,416,o),
(125,344,c),
(142,340,l),
(189,542,o),
(280,642,o),
(398,642,cs),
(476,642,o),
(504,606,o),
(508,550,c),
(600,558,l),
(593,658,o),
(542,726,o),
(416,726,cs),
(206,726,o),
(95,534,o),
(45,300,cs),
(2,97,o),
(70,-16,o),
(230,-16,cs)
);
},
{
closed = 1;
nodes = (
(152,68,o),
(105,138,o),
(126,236,cs),
(147,334,o),
(232,396,o),
(328,396,cs),
(417,396,o),
(463,334,o),
(442,236,cs),
(419,130,o),
(343,68,o),
(250,68,cs)
);
}
);
};
layerId = "574EE4B9-5C1A-4E7E-9985-C08FACB65BD8";
shapes = (
{
closed = 1;
nodes = (
(436,-16,o),
(550,131,o),
(549,298,cs),
(549,409,o),
(486,478,o),
(367,478,cs),
(249,478,o),
(178,416,o),
(141,344,c),
(157,340,l),
(201,542,o),
(296,642,o),
(415,642,cs),
(492,642,o),
(522,606,o),
(524,550,c),
(616,558,l),
(612,658,o),
(559,726,o),
(433,726,cs),
(209,726,o),
(49,503,o),
(49,192,cs),
(49,54,o),
(118,-16,o),
(246,-16,cs)
);
},
{
closed = 1;
nodes = (
(182,68,o),
(139,108,o),
(139,192,cs),
(139,317,o),
(236,396,o),
(344,396,cs),
(419,396,o),
(459,353,o),
(459,280,cs),
(460,175,o),
(385,68,o),
(265,68,cs)
);
}
);
width = 600;
},
{
background = {
shapes = (
{
closed = 1;
nodes = (
(394,-16,o),
(520,85,o),
(553,244,cs),
(583,385,o),
(515,480,o),
(374,480,cs),
(260,480,o),
(189,414,o),
(155,354,c),
(216,350,l),
(252,518,o),
(311,572,o),
(379,572,cs),
(417,572,o),
(428,552,o),
(429,530,c),
(612,542,l),
(610,645,o),
(562,726,o),
(412,726,cs),
(204,726,o),
(78,548,o),
(28,311,cs),
(-16,104,o),
(49,-16,o),
(230,-16,cs)
);
},
{
closed = 1;
nodes = (
(201,142,o),
(181,186,o),
(191,234,cs),
(204,292,o),
(243,332,o),
(302,332,cs),
(364,332,o),
(380,294,o),
(368,236,cs),
(354,173,o),
(320,142,o),
(258,142,cs)
);
}
);
};
layerId = "58B1DC7A-69F8-4375-AD2E-AC5103CCF536";
shapes = (
{
closed = 1;
nodes = (
(434,-16,o),
(570,123,o),
(570,307,cs),
(570,415,o),
(503,480,o),
(387,480,cs),
(273,480,o),
(202,414,o),
(168,354,c),
(229,350,l),
(261,499,o),
(315,572,o),
(393,572,cs),
(431,572,o),
(444,554,o),
(444,530,c),
(624,542,l),
(624,645,o),
(573,726,o),
(423,726,cs),
(191,726,o),
(34,504,o),
(34,204,cs),
(34,68,o),
(108,-16,o),
(246,-16,cs)
);
},
{
closed = 1;
nodes = (
(236,142,o),
(214,171,o),
(214,214,cs),
(214,282,o),
(258,332,o),
(321,332,cs),
(368,332,o),
(390,311,o),
(390,268,cs),
(390,194,o),
(344,142,o),
(277,142,cs)
);
}
);
width = 600;
}
);
unicode = 54;
}
{
glyphname = seven;
layers = (
{
background = {
shapes = (
{
closed = 1;
nodes = (
(285,0,l),
(339,258,o),
(507,508,o),
(692,682,c),
(697,710,l),
(237,710,l),
(231,680,l),
(654,680,l),
(463,500,o),
(302,240,o),
(251,0,c)
);
}
);
};
layerId = "EE2FFE84-06F1-4AFB-BBEC-60D09A436D14";
shapes = (
{
closed = 1;
nodes = (
(212,0,l),
(267,258,o),
(434,508,o),
(619,682,c),
(625,710,l),
(165,710,l),
(159,680,l),
(580,680,l),
(388,500,o),
(229,240,o),
(178,0,c)
);
}
);
width = 600;
},
{
background = {
shapes = (
{
closed = 1;
nodes = (
(295,0,l),
(346,240,o),
(463,428,o),
(685,632,c),
(702,710,l),
(222,710,l),
(204,626,l),
(590,626,l),
(393,444,o),
(250,220,o),
(203,0,c)
);
}
);
};
layerId = "574EE4B9-5C1A-4E7E-9985-C08FACB65BD8";
shapes = (
{
closed = 1;
nodes = (
(228,0,l),
(279,240,o),
(396,428,o),
(618,632,c),
(635,710,l),
(155,710,l),
(137,626,l),
(521,626,l),
(324,444,o),
(183,220,o),
(136,0,c)
);
}
);
width = 600;
},
{
background = {
shapes = (
{
closed = 1;
nodes = (
(341,0,l),
(393,246,o),
(482,387,o),
(672,560,c),
(703,710,l),
(203,710,l),
(170,552,l),
(496,552,l),
(321,389,o),
(198,212,o),
(153,0,c)
);
}
);
};
layerId = "58B1DC7A-69F8-4375-AD2E-AC5103CCF536";
shapes = (
{
closed = 1;
nodes = (
(281,0,l),
(333,246,o),
(422,387,o),
(612,560,c),
(644,710,l),
(144,710,l),
(110,552,l),
(430,552,l),
(256,389,o),
(138,212,o),
(93,0,c)
);
}
);
width = 600;
}
);
unicode = 55;
}
{
glyphname = eight;
layers = (
{
background = {
shapes = (
{
closed = 1;
nodes = (
(367,-16,o),
(483,67,o),
(510,193,cs),
(532,298,o),
(474,374,o),
(363,392,c),
(358,378,l),
(458,398,o),
(530,446,o),
(550,541,cs),
(573,651,o),
(510,726,o),
(383,726,cs),
(256,726,o),
(161,651,o),
(138,541,cs),
(118,446,o),
(170,399,o),
(261,378,c),
(262,392,l),
(145,374,o),
(52,298,o),
(30,193,cs),
(3,67,o),
(85,-16,o),
(226,-16,cs)
);
},
{
closed = 1;
nodes = (
(105,16,o),
(40,82,o),
(64,194,cs),
(86,297,o),
(180,370,o),
(308,370,cs),
(436,370,o),
(498,297,o),
(476,194,cs),
(452,82,o),
(359,16,o),
(232,16,cs)
);
},
{
closed = 1;
nodes = (
(217,400,o),
(152,449,o),
(172,543,cs),
(192,634,o),
(270,694,o),
(377,694,cs),
(484,694,o),
(536,634,o),
(516,543,cs),
(496,449,o),
(411,400,o),
(314,400,cs)
);
}
);
};
layerId = "EE2FFE84-06F1-4AFB-BBEC-60D09A436D14";
shapes = (
{
closed = 1;
nodes = (
(424,-16,o),
(528,71,o),
(528,223,cs),
(528,316,o),
(471,377,o),
(382,392,c),
(377,378,l),
(481,400,o),
(563,457,o),
(563,584,cs),
(563,670,o),
(501,726,o),
(392,726,cs),
(234,726,o),
(133,648,o),
(133,512,cs),
(133,423,o),
(182,396,o),
(260,378,c),
(261,392,l),
(128,371,o),
(39,301,o),
(39,147,cs),
(39,37,o),
(110,-16,o),
(240,-16,cs)
);
},
{
closed = 1;
nodes = (
(131,16,o),
(73,55,o),
(73,151,cs),
(73,297,o),
(171,370,o),
(316,370,cs),
(436,370,o),
(493,313,o),
(493,221,cs),
(493,83,o),
(391,16,o),
(247,16,cs)
);
},
{
closed = 1;
nodes = (
(207,400,o),
(167,439,o),
(167,516,cs),
(167,624,o),
(251,694,o),
(385,694,cs),
(492,694,o),
(529,649,o),
(529,578,cs),
(529,465,o),
(438,400,o),
(323,400,cs)
);
}
);
width = 600;
},
{
background = {
shapes = (
{
closed = 1;
nodes = (
(366,-16,o),
(490,57,o),
(519,195,cs),
(541,298,o),
(490,367,o),
(393,391,c),
(387,371,l),
(474,393,o),
(538,443,o),
(557,531,cs),
(581,643,o),
(508,726,o),
(382,726,cs),
(256,726,o),
(149,643,o),
(125,531,cs),
(106,443,o),
(150,393,o),
(227,371,c),
(229,391,l),
(122,367,o),
(41,298,o),
(19,195,cs),
(-10,57,o),
(84,-16,o),
(225,-16,cs)
);
},
{
closed = 1;
nodes = (
(149,68,o),
(91,110,o),
(111,200,cs),
(128,283,o),
(194,337,o),
(300,337,cs),
(406,337,o),
(448,283,o),
(431,200,cs),
(411,110,o),
(335,68,o),
(242,68,cs)
);
},
{
closed = 1;
nodes = (
(241,417,o),
(199,455,o),
(215,531,cs),
(229,599,o),
(287,642,o),
(365,642,cs),
(443,642,o),
(481,599,o),
(467,531,cs),
(451,455,o),
(393,417,o),
(317,417,cs)
);
}
);
};
layerId = "574EE4B9-5C1A-4E7E-9985-C08FACB65BD8";
shapes = (
{
closed = 1;
nodes = (
(409,-16,o),
(545,50,o),
(545,224,cs),
(545,316,o),
(491,371,o),
(409,391,c),
(402,371,l),
(510,395,o),
(575,448,o),
(575,560,cs),
(575,661,o),
(519,726,o),
(383,726,cs),
(217,726,o),
(125,634,o),
(125,502,cs),
(125,426,o),
(166,389,o),
(231,370,c),
(233,391,l),
(103,365,o),
(24,291,o),
(24,162,cs),
(24,41,o),
(111,-16,o),
(239,-16,cs)
);
},
{
closed = 1;
nodes = (
(153,68,o),
(114,101,o),
(114,176,cs),
(114,276,o),
(182,337,o),
(307,337,cs),
(407,337,o),
(455,298,o),
(455,214,cs),
(455,104,o),
(375,68,o),
(249,68,cs)
);
},
{
closed = 1;
nodes = (
(244,417,o),
(215,446,o),
(215,508,cs),
(215,590,o),
(277,642,o),
(367,642,cs),
(447,642,o),
(485,612,o),
(485,548,cs),
(485,457,o),
(417,417,o),
(324,417,cs)
);
}
);
width = 600;
},
{
background = {
shapes = (
{
closed = 1;
nodes = (
(395,-16,o),
(512,56,o),
(542,193,cs),
(564,299,o),
(508,370,o),
(401,390,c),
(395,370,l),
(491,389,o),
(569,444,o),
(587,530,cs),
(612,645,o),
(535,726,o),
(385,726,cs),
(235,726,o),
(124,645,o),
(99,530,cs),
(81,444,o),
(136,388,o),
(223,370,c),
(225,390,l),
(110,371,o),
(24,299,o),
(2,193,cs),
(-28,56,o),
(59,-16,o),
(227,-16,cs)
);
},
{
closed = 1;
nodes = (
(216,138,o),
(178,156,o),
(190,214,cs),
(202,270,o),
(244,303,o),
(295,303,cs),
(346,303,o),
(374,270,o),
(362,214,cs),
(350,156,o),
(304,138,o),
(260,138,cs)
);
},
{
closed = 1;
nodes = (
(292,452,o),
(271,471,o),
(280,514,cs),
(288,552,o),
(317,572,o),
(352,572,cs),
(387,572,o),
(408,552,o),
(400,514,cs),
(391,471,o),
(362,452,o),
(327,452,cs)
);
}
);
};
layerId = "58B1DC7A-69F8-4375-AD2E-AC5103CCF536";
shapes = (
{
closed = 1;
nodes = (
(436,-16,o),
(553,90,o),
(553,237,cs),
(553,321,o),
(502,373,o),
(409,390,c),
(403,370,l),
(523,393,o),
(595,468,o),
(595,567,cs),
(595,661,o),
(522,726,o),
(390,726,cs),
(203,726,o),
(104,625,o),
(104,498,cs),
(104,430,o),
(150,387,o),
(231,370,c),
(233,390,l),
(98,367,o),
(14,270,o),
(14,148,cs),
(14,42,o),
(89,-16,o),
(238,-16,cs)
);
},
{
closed = 1;
nodes = (
(220,138,o),
(199,158,o),
(198,194,cs),
(199,255,o),
(241,303,o),
(300,303,cs),
(344,303,o),
(370,278,o),
(369,238,cs),
(370,178,o),
(329,138,o),
(265,138,cs)
);
},
{
closed = 1;
nodes = (
(304,452,o),
(287,468,o),
(286,496,cs),
(287,541,o),
(317,572,o),
(360,572,cs),
(394,572,o),
(414,554,o),
(413,527,cs),
(414,484,o),
(379,452,o),
(335,452,cs)
);
}
);
width = 600;
}
);
unicode = 56;
}
{
glyphname = nine;
layers = (
{
background = {
shapes = (
{
closed = 1;
nodes = (
(268,726,o),
(160,626,o),
(128,476,cs),
(98,334,o),
(160,238,o),
(300,238,cs),
(406,238,o),
(508,306,o),
(553,408,c),
(544,412,l),
(481,142,o),
(361,16,o),
(239,16,cs),
(148,16,o),
(108,77,o),
(104,151,c),
(70,147,l),
(79,51,o),
(128,-16,o),
(232,-16,cs),
(405,-16,o),
(524,177,o),
(574,412,cs),
(621,632,o),
(539,726,o),
(404,726,cs)
);
},
{
closed = 1;
nodes = (
(517,694,o),
(575,597,o),
(548,468,cs),
(523,348,o),
(414,269,o),
(307,269,cs),
(187,269,o),
(136,353,o),
(162,476,cs),
(191,614,o),
(281,694,o),
(397,694,cs)
);
}
);
};
layerId = "EE2FFE84-06F1-4AFB-BBEC-60D09A436D14";
shapes = (
{
angle = 180;
pos = (638,710);
ref = six;
}
);
width = 600;
},
{
background = {
shapes = (
{
closed = 1;
nodes = (
(261,726,o),
(139,630,o),
(106,474,cs),
(75,328,o),
(147,232,o),
(287,232,cs),
(389,232,o),
(476,294,o),
(513,366,c),
(496,370,l),
(449,168,o),
(358,68,o),
(240,68,cs),
(162,68,o),
(134,104,o),
(130,160,c),
(38,152,l),
(45,52,o),
(96,-16,o),
(222,-16,cs),
(432,-16,o),
(543,176,o),
(593,410,cs),
(636,613,o),
(568,726,o),
(408,726,cs)
);
},
{
closed = 1;
nodes = (
(486,642,o),
(533,572,o),
(512,474,cs),
(491,376,o),
(406,314,o),
(310,314,cs),
(221,314,o),
(175,376,o),
(196,474,cs),
(219,580,o),
(295,642,o),
(388,642,cs)
);
}
);
};
layerId = "574EE4B9-5C1A-4E7E-9985-C08FACB65BD8";
shapes = (
{
angle = 180;
pos = (638,710);
ref = six;
}
);
width = 600;
},
{
background = {
shapes = (
{
closed = 1;
nodes = (
(242,726,o),
(116,625,o),
(83,466,cs),
(53,325,o),
(121,230,o),
(262,230,cs),
(376,230,o),
(447,296,o),
(481,356,c),
(420,360,l),
(384,192,o),
(325,138,o),
(257,138,cs),
(219,138,o),
(208,158,o),
(207,180,c),
(24,168,l),
(26,65,o),
(74,-16,o),
(224,-16,cs),
(432,-16,o),
(558,162,o),
(608,399,cs),
(652,606,o),
(587,726,o),
(406,726,cs)
);
},
{
closed = 1;
nodes = (
(435,568,o),
(455,524,o),
(445,476,cs),
(432,418,o),
(393,378,o),
(334,378,cs),
(272,378,o),
(256,416,o),
(268,474,cs),
(282,537,o),
(316,568,o),
(378,568,cs)
);
}
);
};
layerId = "58B1DC7A-69F8-4375-AD2E-AC5103CCF536";
shapes = (
{
angle = 180;
pos = (636,710);
ref = six;
}
);
width = 600;
}
);
unicode = 57;
}
{
glyphname = equal;
layers = (
{
background = {
shapes = (
{
closed = 1;
nodes = (
(62,368,l),
(538,368,l),
(538,448,l),
(62,448,l)
);
},
{
closed = 1;
nodes = (
(62,162,l),
(538,162,l),
(538,242,l),
(62,242,l)
);
}
);
};
guides = (
{
pos = (283,422);
},
{
pos = (270,136);
}
);
layerId = "EE2FFE84-06F1-4AFB-BBEC-60D09A436D14";
shapes = (
{
closed = 1;
nodes = (
(534,377,l),
(540,407,l),
(120,407,l),
(114,377,l)
);
},
{
closed = 1;
nodes = (
(490,171,l),
(496,201,l),
(76,201,l),
(70,171,l)
);
}
);
width = 600;
},
{
layerId = "574EE4B9-5C1A-4E7E-9985-C08FACB65BD8";
shapes = (
{
closed = 1;
nodes = (
(541,364,l),
(558,442,l),
(118,442,l),
(101,364,l)
);
},
{
closed = 1;
nodes = (
(497,157,l),
(514,235,l),
(74,235,l),
(57,157,l)
);
}
);
width = 600;
},
{
layerId = "58B1DC7A-69F8-4375-AD2E-AC5103CCF536";
shapes = (
{
closed = 1;
nodes = (
(547,348,l),
(575,482,l),
(115,482,l),
(87,348,l)
);
},
{
closed = 1;
nodes = (
(493,95,l),
(521,229,l),
(61,229,l),
(33,95,l)
);
}
);
width = 600;
}
);
unicode = 61;
}
{
glyphname = greater;
layers = (
{
layerId = "EE2FFE84-06F1-4AFB-BBEC-60D09A436D14";
shapes = (
{
closed = 1;
nodes = (
(523,275,l),
(531,309,l),
(134,529,l),
(128,501,l),
(516,288,l),
(518,300,l),
(40,87,l),
(34,55,l)
);
}
);
width = 600;
},
{
layerId = "574EE4B9-5C1A-4E7E-9985-C08FACB65BD8";
shapes = (
{
closed = 1;
nodes = (
(522,236,l),
(544,342,l),
(133,546,l),
(115,464,l),
(476,286,l),
(478,296,l),
(41,118,l),
(23,32,l)
);
}
);
width = 600;
},
{
layerId = "58B1DC7A-69F8-4375-AD2E-AC5103CCF536";
shapes = (
{
closed = 1;
nodes = (
(518,204,l),
(556,384,l),
(133,572,l),
(99,416,l),
(464,254,l),
(482,342,l),
(49,180,l),
(15,16,l)
);
}
);
width = 600;
}
);
unicode = 62;
}
{
glyphname = question;
layers = (
{
background = {
shapes = (
{
closed = 1;
nodes = (
(301,224,l),
(301,276,o),
(328,327,o),
(377,367,cs),
(443,421,o),
(496,464,o),
(496,537,cs),
(496,648,o),
(411,726,o),
(291,726,cs),
(168,726,o),
(88,639,o),
(80,499,c),
(114,496,l),
(121,619,o),
(182,694,o),
(291,694,cs),
(391,694,o),
(462,629,o),
(462,537,cs),
(462,475,o),
(422,445,o),
(353,389,cs),
(299,345,o),
(269,286,o),
(269,224,c)
);
},
{
pos = (-15,0);
ref = period;
}
);
};
layerId = "EE2FFE84-06F1-4AFB-BBEC-60D09A436D14";
name = Regular;
shapes = (
{
pos = (2,0);
ref = period;
},
{
closed = 1;
nodes = (
(295,216,l),
(309,290,o),
(341,325,o),
(394,356,cs),
(506,422,o),
(564,464,o),
(564,576,cs),
(564,658,o),
(516,726,o),
(402,726,cs),
(258,726,o),
(172,645,o),
(146,499,c),
(178,497,l),
(200,627,o),
(278,694,o),
(396,694,cs),
(496,694,o),
(532,648,o),
(532,574,cs),
(532,486,o),
(490,444,o),
(380,380,cs),
(313,341,o),
(279,296,o),
(263,216,c)
);
}
);
width = 600;
},
{
background = {
shapes = (
{
closed = 1;
nodes = (
(331,205,l),
(331,260,o),
(350,308,o),
(400,342,cs),
(490,404,o),
(528,458,o),
(528,527,cs),
(528,644,o),
(430,726,o),
(291,726,cs),
(165,726,o),
(69,633,o),
(57,500,c),
(147,494,l),
(158,585,o),
(216,642,o),
(296,642,cs),
(382,642,o),
(439,594,o),
(438,527,cs),
(438,461,o),
(390,440,o),
(335,395,cs),
(272,342,o),
(249,278,o),
(249,205,c)
);
},
{
alignment = -1;
pos = (-10,0);
ref = period;
}
);
};
layerId = "574EE4B9-5C1A-4E7E-9985-C08FACB65BD8";
name = Regular;
shapes = (
{
alignment = -1;
pos = (-8,0);
ref = period;
},
{
closed = 1;
nodes = (
(321,201,l),
(336,271,o),
(358,306,o),
(419,338,cs),
(527,394,o),
(586,444,o),
(586,560,cs),
(586,656,o),
(531,726,o),
(401,726,cs),
(233,726,o),
(154,632,o),
(120,500,c),
(208,494,l),
(233,590,o),
(289,642,o),
(389,642,cs),
(463,642,o),
(496,609,o),
(496,548,cs),
(496,470,o),
(469,442,o),
(371,392,cs),
(292,352,o),
(255,297,o),
(235,201,c)
);
}
);
width = 600;
},
{
background = {
shapes = (
{
closed = 1;
nodes = (
(371,222,l),
(385,286,o),
(404,313,o),
(474,348,cs),
(561,391,o),
(604,435,o),
(623,522,cs),
(648,640,o),
(580,726,o),
(414,726,cs),
(254,726,o),
(138,632,o),
(99,502,c),
(273,494,l),
(294,554,o),
(323,580,o),
(383,580,cs),
(445,580,o),
(455,550,o),
(448,518,cs),
(439,478,o),
(422,458,o),
(356,428,cs),
(276,392,o),
(246,330,o),
(223,222,c)
);
}
);
};
layerId = "58B1DC7A-69F8-4375-AD2E-AC5103CCF536";
name = Regular;
shapes = (
{
alignment = -1;
pos = (-8,0);
ref = period;
},
{
closed = 1;
nodes = (
(356,222,l),
(372,294,o),
(399,322,o),
(450,344,cs),
(565,394,o),
(614,438,o),
(614,546,cs),
(614,648,o),
(546,726,o),
(380,726,cs),
(200,726,o),
(127,631,o),
(87,501,c),
(260,493,l),
(278,549,o),
(307,580,o),
(361,580,cs),
(421,580,o),
(435,557,o),
(435,525,cs),
(435,483,o),
(417,460,o),
(355,432,cs),
(279,398,o),
(238,354,o),
(208,222,c)
);
}
);
width = 600;
}
);
unicode = 63;
}
{
glyphname = at;
layers = (
{
background = {
shapes = (
{
closed = 1;
nodes = (
(354,-32,l),
(306,-58,o),
(255,-71,o),
(204,-71,cs),
(69,-71,o),
(15,46,o),
(64,276,cs),
(113,505,o),
(268,680,o),
(422,680,cs),
(548,680,o),
(598,550,o),
(554,342,cs),
(524,202,o),
(475,111,o),
(429,111,cs),
(397,111,o),
(385,150,o),
(401,224,cs),
(411,269,o),
(437,351,o),
(479,490,c),
(449,490,l),
(418,378,l),
(428,378,l),
(444,440,o),
(413,499,o),
(348,499,cs),
(252,499,o),
(175,383,o),
(149,263,cs),
(124,142,o),
(157,81,o),
(228,81,cs),
(281,81,o),
(345,127,o),
(376,200,c),
(370,200,l),
(358,124,o),
(379,81,o),
(421,81,cs),
(484,81,o),
(555,194,o),
(587,345,cs),
(635,570,o),
(574,710,o),
(430,710,cs),
(253,710,o),
(85,526,o),
(32,275,cs),
(-22,23,o),
(41,-103,o),
(198,-103,cs),
(257,-103,o),
(311,-89,o),
(362,-59,c)
);
},
{
closed = 1;
nodes = (
(175,109,o),
(162,174,o),
(183,269,cs),
(204,369,o),
(263,470,o),
(339,470,cs),
(399,470,o),
(421,419,o),
(403,336,cs),
(386,257,o),
(327,109,o),
(237,109,cs)
);
}
);
};
layerId = "EE2FFE84-06F1-4AFB-BBEC-60D09A436D14";
shapes = (
{
closed = 1;
nodes = (
(354,-32,l),
(306,-58,o),
(254,-71,o),
(203,-71,cs),
(100,-71,o),
(50,-6,o),
(50,124,cs),
(50,412,o),
(218,680,o),
(410,680,cs),
(518,680,o),
(567,614,o),
(567,478,cs),
(567,294,o),
(494,111,o),
(429,111,cs),
(406,111,o),
(394,129,o),
(394,163,cs),
(394,211,o),
(400,233,o),
(479,490,c),
(449,490,l),
(418,378,l),
(432,405,l),
(432,461,o),
(398,499,o),
(348,499,cs),
(242,499,o),
(142,343,o),
(142,192,cs),
(142,121,o),
(172,81,o),
(228,81,cs),
(288,81,o),
(355,138,o),
(385,219,c),
(376,220,l),
(372,206,o),
(368,176,o),
(368,157,cs),
(369,107,o),
(388,81,o),
(422,81,cs),
(518,81,o),
(599,280,o),
(599,484,cs),
(599,628,o),
(539,710,o),
(417,710,cs),
(183,710,o),
(18,423,o),
(18,118,cs),
(18,-32,o),
(82,-103,o),
(198,-103,cs),
(258,-103,o),
(312,-89,o),
(362,-59,c)
);
},
{
closed = 1;
nodes = (
(196,109,o),
(174,133,o),
(174,195,cs),
(174,328,o),
(259,470,o),
(339,470,cs),
(384,470,o),
(409,440,o),
(409,387,cs),
(409,270,o),
(324,109,o),
(234,109,cs)
);
}
);
width = 600;
},
{
background = {
shapes = (
{
closed = 1;
nodes = (
(345,-4,l),
(296,-29,o),
(249,-42,o),
(211,-42,cs),
(96,-42,o),
(44,46,o),
(87,246,cs),
(143,512,o),
(274,640,o),
(406,640,cs),
(535,640,o),
(569,539,o),
(534,377,cs),
(497,202,o),
(461,144,o),
(425,144,cs),
(406,144,o),
(396,169,o),
(407,218,cs),
(417,269,o),
(448,360,o),
(493,500,c),
(423,500,l),
(392,407,l),
(404,418,l),
(416,465,o),
(392,501,o),
(344,501,cs),
(261,501,o),
(170,383,o),
(142,252,cs),
(119,147,o),
(144,80,o),
(211,80,cs),
(261,80,o),
(311,116,o),
(343,182,c),
(333,182,l),
(330,119,o),
(353,76,o),
(398,76,cs),
(477,76,o),
(554,140,o),
(605,382,cs),
(646,575,o),
(589,710,o),
(425,710,cs),
(248,710,o),
(82,554,o),
(16,245,cs),
(-37,-5,o),
(47,-110,o),
(195,-110,cs),
(247,-110,o),
(299,-97,o),
(357,-70,c)
);
},
{
closed = 1;
nodes = (
(214,142,o),
(206,188,o),
(221,260,cs),
(241,350,o),
(294,433,o),
(338,433,cs),
(373,433,o),
(384,400,o),
(370,334,cs),
(349,233,o),
(291,142,o),
(248,142,cs)
);
}
);
};
layerId = "574EE4B9-5C1A-4E7E-9985-C08FACB65BD8";
shapes = (
{
closed = 1;
nodes = (
(345,-4,l),
(297,-29,o),
(249,-42,o),
(202,-42,cs),
(114,-42,o),
(77,9,o),
(77,133,cs),
(77,410,o),
(240,640,o),
(412,640,cs),
(499,640,o),
(541,594,o),
(541,496,cs),
(541,298,o),
(469,144,o),
(425,144,cs),
(410,144,o),
(402,158,o),
(402,182,cs),
(402,215,o),
(415,267,o),
(491,500,c),
(421,500,l),
(392,407,l),
(407,441,l),
(407,478,o),
(382,501,o),
(344,501,cs),
(248,501,o),
(136,328,o),
(136,183,cs),
(136,116,o),
(165,80,o),
(216,80,cs),
(278,80,o),
(333,129,o),
(363,202,c),
(356,204,l),
(350,189,o),
(344,169,o),
(344,151,cs),
(344,102,o),
(370,76,o),
(408,76,cs),
(516,76,o),
(611,257,o),
(611,502,cs),
(611,627,o),
(549,710,o),
(431,710,cs),
(201,710,o),
(7,447,o),
(7,119,cs),
(7,-34,o),
(68,-110,o),
(193,-110,cs),
(247,-110,o),
(299,-97,o),
(357,-70,c)
);
},
{
closed = 1;
nodes = (
(228,142,o),
(216,162,o),
(216,200,cs),
(216,300,o),
(285,433,o),
(338,433,cs),
(363,433,o),
(376,418,o),
(376,384,cs),
(376,286,o),
(302,142,o),
(250,142,cs)
);
}
);
width = 600;
},
{
background = {
shapes = (
{
closed = 1;
nodes = (
(354,-11,l),
(298,-30,o),
(257,-38,o),
(207,-38,cs),
(108,-38,o),
(38,24,o),
(85,244,cs),
(137,491,o),
(273,632,o),
(413,632,cs),
(533,632,o),
(565,525,o),
(533,375,cs),
(501,226,o),
(460,166,o),
(436,166,cs),
(418,166,o),
(415,180,o),
(422,210,cs),
(440,295,o),
(479,423,o),
(502,493,c),
(404,493,l),
(379,408,l),
(397,419,l),
(409,466,o),
(390,502,o),
(333,502,cs),
(240,502,o),
(168,399,o),
(136,249,cs),
(111,133,o),
(144,80,o),
(214,80,cs),
(264,80,o),
(330,124,o),
(350,195,c),
(326,185,l),
(317,117,o),
(349,80,o),
(400,80,cs),
(514,80,o),
(579,217,o),
(613,377,cs),
(656,579,o),
(591,710,o),
(432,710,cs),
(248,710,o),
(68,540,o),
(4,240,cs),
(-51,-20,o),
(43,-120,o),
(188,-120,cs),
(232,-120,o),
(291,-110,o),
(361,-88,c)
);
},
{
closed = 1;
nodes = (
(244,166,o),
(238,195,o),
(250,250,cs),
(273,356,o),
(311,423,o),
(339,423,cs),
(361,423,o),
(365,394,o),
(356,353,cs),
(329,227,o),
(292,166,o),
(264,166,cs)
);
}
);
};
layerId = "58B1DC7A-69F8-4375-AD2E-AC5103CCF536";
shapes = (
{
closed = 1;
nodes = (
(355,-13,l),
(305,-33,o),
(256,-44,o),
(208,-44,cs),
(115,-44,o),
(78,-1,o),
(78,160,cs),
(78,406,o),
(242,634,o),
(408,634,cs),
(510,634,o),
(541,588,o),
(541,486,cs),
(541,278,o),
(467,166,o),
(437,166,cs),
(425,166,o),
(420,172,o),
(420,188,cs),
(420,218,o),
(441,301,o),
(503,493,c),
(405,493,l),
(380,408,l),
(401,434,l),
(401,481,o),
(372,502,o),
(333,502,cs),
(229,502,o),
(134,337,o),
(134,180,cs),
(134,115,o),
(159,80,o),
(210,80,cs),
(272,80,o),
(332,137,o),
(352,192,c),
(338,198,l),
(332,186,o),
(326,167,o),
(326,152,cs),
(326,110,o),
(353,80,o),
(400,80,cs),
(508,80,o),
(619,233,o),
(619,492,cs),
(619,628,o),
(556,710,o),
(420,710,cs),
(166,710,o),
(0,443,o),
(0,134,cs),
(0,-41,o),
(70,-120,o),
(194,-120,cs),
(255,-120,o),
(306,-109,o),
(362,-88,c)
);
},
{
closed = 1;
nodes = (
(256,166,o),
(250,178,o),
(250,202,cs),
(250,290,o),
(306,423,o),
(340,423,cs),
(354,423,o),
(361,412,o),
(361,389,cs),
(361,317,o),
(311,166,o),
(269,166,cs)
);
}
);
width = 600;
}
);
unicode = 64;
}
{
glyphname = A;
layers = (
{
anchors = (
{
name = bottom;
pos = (244,0);
},
{
name = ogonek;
pos = (496,0);
},
{
name = top;
pos = (395,710);
}
);
background = {
anchors = (
{
name = bottom;
pos = (244,0);
},
{
name = ogonek;
pos = (496,0);
},
{
name = top;
pos = (395,710);
}
);
shapes = (
{
closed = 1;
nodes = (
(25,0,l),
(388,678,l),
(463,0,l),
(496,0,l),
(414,710,l),
(376,710,l),
(-8,0,l)
);
},
{
closed = 1;
nodes = (
(448,235,l),
(444,265,l),
(156,265,l),
(140,235,l)
);
}
);
};
layerId = "EE2FFE84-06F1-4AFB-BBEC-60D09A436D14";
shapes = (
{
closed = 1;
nodes = (
(26,0,l),
(390,678,l),
(464,0,l),
(496,0,l),
(414,710,l),
(376,710,l),
(-8,0,l)
);
},
{
closed = 1;
nodes = (
(448,235,l),
(444,265,l),
(156,265,l),
(140,235,l)
);
}
);
width = 600;
},
{
anchors = (
{
name = bottom;
pos = (244,0);
},
{
name = ogonek;
pos = (518,0);
},
{
name = top;
pos = (395,710);
}
);
background = {
anchors = (
{
name = bottom;
pos = (244,0);
},
{
name = ogonek;
pos = (518,0);
},
{
name = top;
pos = (395,710);
}
);
shapes = (
{
closed = 1;
nodes = (
(62,0,l),
(378,632,l),
(426,0,l),
(518,0,l),
(453,710,l),
(337,710,l),
(-30,0,l)
);
},
{
closed = 1;
nodes = (
(452,202,l),
(440,286,l),
(170,286,l),
(122,202,l)
);
}
);
};
layerId = "574EE4B9-5C1A-4E7E-9985-C08FACB65BD8";
shapes = (
{
closed = 1;
nodes = (
(63,0,l),
(379,632,l),
(427,0,l),
(518,0,l),
(453,710,l),
(337,710,l),
(-30,0,l)
);
},
{
closed = 1;
nodes = (
(452,202,l),
(440,286,l),
(170,286,l),
(122,202,l)
);
}
);
width = 600;
},
{
anchors = (
{
name = bottom;
pos = (243,0);
},
{
name = ogonek;
pos = (529,0);
},
{
name = top;
pos = (394,710);
}
);
background = {
anchors = (
{
name = bottom;
pos = (243,0);
},
{
name = ogonek;
pos = (529,0);
},
{
name = top;
pos = (394,710);
}
);
shapes = (
{
closed = 1;
nodes = (
(135,0,l),
(344,476,l),
(351,0,l),
(529,0,l),
(500,710,l),
(288,710,l),
(-43,0,l)
);
},
{
closed = 1;
nodes = (
(408,117,l),
(400,268,l),
(200,268,l),
(128,117,l)
);
}
);
};
layerId = "58B1DC7A-69F8-4375-AD2E-AC5103CCF536";
shapes = (
{
closed = 1;
nodes = (
(137,0,l),
(346,476,l),
(353,0,l),
(529,0,l),
(500,710,l),
(288,710,l),
(-43,0,l)
);
},
{
closed = 1;
nodes = (
(408,117,l),
(400,268,l),
(200,268,l),
(128,117,l)
);
}
);
width = 600;
}
);
unicode = 65;
}
{
glyphname = B;
layers = (
{
anchors = (
{
name = bottom;
pos = (221,0);
},
{
name = top;
pos = (372,710);
}
);
background = {
anchors = (
{
name = bottom;
pos = (221,0);
},
{
name = top;
pos = (372,710);
}
);
shapes = (
{
closed = 1;
nodes = (
(241,0,ls),
(389,0,o),
(481,67,o),
(507,189,cs),
(529,294,o),
(464,360,o),
(338,360,c),
(336,354,l),
(439,354,o),
(528,423,o),
(549,520,cs),
(574,642,o),
(509,710,o),
(355,710,cs),
(172,710,l),
(21,0,l)
);
},
{
closed = 1;
nodes = (
(125,340,l),
(310,340,ls),
(430,340,o),
(493,281,o),
(473,189,cs),
(451,85,o),
(375,28,o),
(245,28,cs),
(59,28,l)
);
},
{
closed = 1;
nodes = (
(198,682,l),
(349,682,ls),
(481,682,o),
(536,623,o),
(515,520,cs),
(494,423,o),
(408,368,o),
(299,368,cs),
(131,368,l)
);
}
);
};
layerId = "EE2FFE84-06F1-4AFB-BBEC-60D09A436D14";
shapes = (
{
closed = 1;
nodes = (
(240,0,ls),
(400,0,o),
(508,84,o),
(508,212,cs),
(508,304,o),
(446,360,o),
(336,360,c),
(334,353,l),
(454,353,o),
(551,436,o),
(551,558,cs),
(551,654,o),
(488,710,o),
(353,710,cs),
(171,710,l),
(20,0,l)
);
},
{
closed = 1;
nodes = (
(124,340,l),
(308,340,ls),
(418,340,o),
(474,297,o),
(474,209,cs),
(474,97,o),
(377,28,o),
(243,28,cs),
(58,28,l)
);
},
{
closed = 1;
nodes = (
(197,682,l),
(347,682,ls),
(467,682,o),
(517,636,o),
(517,554,cs),
(517,437,o),
(422,368,o),
(297,368,cs),
(130,368,l)
);
}
);
width = 600;
},
{
anchors = (
{
name = bottom;
pos = (221,0);
},
{
name = top;
pos = (372,710);
}
);
background = {
anchors = (
{
name = bottom;
pos = (221,0);
},
{
name = top;
pos = (372,710);
}
);
shapes = (
{
closed = 1;
nodes = (
(236,0,ls),
(386,0,o),
(493,75,o),
(519,198,cs),
(541,302,o),
(481,368,o),
(357,368,c),
(356,362,l),
(456,362,o),
(538,427,o),
(557,516,cs),
(582,636,o),
(518,710,o),
(362,710,cs),
(162,710,l),
(11,0,l)
);
},
{
closed = 1;
nodes = (
(165,319,l),
(305,319,ls),
(403,319,o),
(445,274,o),
(429,198,cs),
(414,126,o),
(357,84,o),
(255,84,cs),
(115,84,l)
);
},
{
closed = 1;
nodes = (
(230,626,l),
(348,626,ls),
(446,626,o),
(482,586,o),
(466,514,cs),
(451,443,o),
(399,403,o),
(301,403,cs),
(183,403,l)
);
}
);
};
layerId = "574EE4B9-5C1A-4E7E-9985-C08FACB65BD8";
shapes = (
{
closed = 1;
nodes = (
(237,0,ls),
(403,0,o),
(521,86,o),
(521,230,cs),
(521,315,o),
(465,366,o),
(358,366,c),
(357,360,l),
(474,360,o),
(561,440,o),
(561,554,cs),
(561,649,o),
(497,710,o),
(363,710,cs),
(161,710,l),
(10,0,l)
);
},
{
closed = 1;
nodes = (
(164,319,l),
(306,319,ls),
(390,319,o),
(431,286,o),
(431,222,cs),
(431,134,o),
(365,84,o),
(256,84,cs),
(114,84,l)
);
},
{
closed = 1;
nodes = (
(229,626,l),
(349,626,ls),
(432,626,o),
(471,597,o),
(471,540,cs),
(471,458,o),
(405,403,o),
(302,403,cs),
(182,403,l)
);
}
);
width = 600;
},
{
anchors = (
{
name = bottom;
pos = (233,0);
},
{
name = top;
pos = (368,710);
}
);
background = {
anchors = (
{
name = bottom;
pos = (233,0);
},
{
name = top;
pos = (368,710);
}
);
shapes = (
{
closed = 1;
nodes = (
(237,0,ls),
(409,0,o),
(511,60,o),
(539,192,cs),
(560,290,o),
(519,362,o),
(369,370,c),
(367,362,l),
(502,376,o),
(561,436,o),
(579,522,cs),
(607,650,o),
(527,710,o),
(367,710,cs),
(137,710,l),
(-13,0,l)
);
},
{
closed = 1;
nodes = (
(227,285,l),
(297,285,ls),
(347,285,o),
(370,261,o),
(361,218,cs),
(353,179,o),
(320,156,o),
(269,155,cs),
(199,154,l)
);
},
{
closed = 1;
nodes = (
(285,556,l),
(331,556,ls),
(377,556,o),
(398,534,o),
(390,496,cs),
(381,456,o),
(351,433,o),
(305,433,cs),
(259,433,l)
);
}
);
};
layerId = "58B1DC7A-69F8-4375-AD2E-AC5103CCF536";
shapes = (
{
closed = 1;
nodes = (
(238,0,ls),
(410,0,o),
(543,72,o),
(543,224,cs),
(543,302,o),
(494,363,o),
(368,370,c),
(366,362,l),
(495,375,o),
(578,426,o),
(578,550,cs),
(578,650,o),
(508,710,o),
(366,710,cs),
(136,710,l),
(-14,0,l)
);
},
{
closed = 1;
nodes = (
(226,285,l),
(298,285,ls),
(339,285,o),
(359,264,o),
(359,228,cs),
(359,183,o),
(328,156,o),
(270,155,cs),
(198,154,l)
);
},
{
closed = 1;
nodes = (
(284,556,l),
(330,556,ls),
(370,556,o),
(392,540,o),
(392,508,cs),
(392,464,o),
(360,433,o),
(306,433,cs),
(258,433,l)
);
}
);
width = 600;
}
);
unicode = 66;
}
{
glyphname = C;
layers = (
{
anchors = (
{
name = bottom;
pos = (254,0);
},
{
name = top;
pos = (405,710);
}
);
background = {
anchors = (
{
name = bottom;
pos = (253,0);
},
{
name = top;
pos = (404,710);
}
);
shapes = (
{
closed = 1;
nodes = (
(376,-16,o),
(479,78,o),
(539,226,c),
(506,230,l),
(452,90,o),
(360,16,o),
(256,16,cs),
(130,16,o),
(62,146,o),
(106,354,cs),
(151,563,o),
(274,694,o),
(400,694,cs),
(504,694,o),
(559,622,o),
(556,494,c),
(591,498,l),
(591,642,o),
(533,726,o),
(407,726,cs),
(257,726,o),
(121,583,o),
(72,354,cs),
(24,127,o),
(99,-16,o),
(250,-16,cs)
);
}
);
};
layerId = "EE2FFE84-06F1-4AFB-BBEC-60D09A436D14";
shapes = (
{
closed = 1;
nodes = (
(380,-16,o),
(478,72,o),
(540,226,c),
(506,230,l),
(454,94,o),
(368,16,o),
(256,16,cs),
(154,16,o),
(94,81,o),
(94,235,cs),
(94,470,o),
(238,694,o),
(402,694,cs),
(510,694,o),
(558,630,o),
(558,494,c),
(592,498,l),
(592,648,o),
(524,726,o),
(410,726,cs),
(219,726,o),
(59,491,o),
(59,227,cs),
(59,73,o),
(130,-16,o),
(250,-16,cs)
);
}
);
width = 600;
},
{
anchors = (
{
name = bottom;
pos = (254,0);
},
{
name = top;
pos = (400,710);
}
);
background = {
anchors = (
{
name = bottom;
pos = (261,0);
},
{
name = top;
pos = (399,710);
}
);
shapes = (
{
closed = 1;
nodes = (
(379,-16,o),
(493,78,o),
(552,234,c),
(462,239,l),
(418,126,o),
(345,68,o),
(263,68,cs),
(150,68,o),
(111,171,o),
(150,354,cs),
(189,538,o),
(272,642,o),
(385,642,cs),
(459,642,o),
(507,589,o),
(508,487,c),
(601,493,l),
(602,640,o),
(528,726,o),
(403,726,cs),
(233,726,o),
(108,583,o),
(60,354,cs),
(11,127,o),
(75,-16,o),
(245,-16,cs)
);
}
);
};
layerId = "574EE4B9-5C1A-4E7E-9985-C08FACB65BD8";
shapes = (
{
closed = 1;
nodes = (
(384,-16,o),
(494,77,o),
(553,234,c),
(463,239,l),
(420,130,o),
(348,68,o),
(262,68,cs),
(174,68,o),
(137,124,o),
(137,231,cs),
(137,461,o),
(252,642,o),
(386,642,cs),
(464,642,o),
(509,590,o),
(509,487,c),
(602,493,l),
(602,641,o),
(529,726,o),
(404,726,cs),
(194,726,o),
(47,496,o),
(47,218,cs),
(47,67,o),
(116,-16,o),
(246,-16,cs)
);
}
);
width = 600;
},
{
anchors = (
{
name = bottom;
pos = (256,0);
},
{
name = top;
pos = (400,710);
}
);
background = {
anchors = (
{
name = bottom;
pos = (255,0);
},
{
name = top;
pos = (401,710);
}
);
shapes = (
{
closed = 1;
nodes = (
(393,-16,o),
(509,88,o),
(570,273,c),
(391,280,l),
(362,189,o),
(319,138,o),
(280,138,cs),
(220,138,o),
(202,215,o),
(232,354,cs),
(261,494,o),
(312,572,o),
(372,572,cs),
(414,572,o),
(434,523,o),
(424,436,c),
(607,443,l),
(623,625,o),
(551,726,o),
(405,726,cs),
(229,726,o),
(97,584,o),
(48,354,cs),
(-1,124,o),
(71,-16,o),
(247,-16,cs)
);
}
);
};
layerId = "58B1DC7A-69F8-4375-AD2E-AC5103CCF536";
shapes = (
{
closed = 1;
nodes = (
(396,-16,o),
(515,81,o),
(571,273,c),
(392,280,l),
(366,186,o),
(322,138,o),
(281,138,cs),
(240,138,o),
(220,170,o),
(220,240,cs),
(220,426,o),
(297,572,o),
(371,572,cs),
(413,572,o),
(426,542,o),
(426,436,c),
(609,443,l),
(609,644,o),
(538,726,o),
(396,726,cs),
(182,726,o),
(36,518,o),
(36,224,cs),
(36,64,o),
(106,-16,o),
(248,-16,cs)
);
}
);
width = 600;
}
);
unicode = 67;
}
{
glyphname = D;
layers = (
{
anchors = (
{
name = bottom;
pos = (218,0);
},
{
name = center;
pos = (183,355);
},
{
name = top;
pos = (320,710);
}
);
background = {
anchors = (
{
name = bottom;
pos = (218,0);
},
{
name = center;
pos = (183,355);
},
{
name = top;
pos = (369,710);
}
);
shapes = (
{
closed = 1;
nodes = (
(158,0,ls),
(356,0,o),
(497,128,o),
(545,354,cs),
(593,580,o),
(507,710,o),
(309,710,cs),
(169,710,l),
(18,0,l)
);
},
{
closed = 1;
nodes = (
(195,680,l),
(299,680,ls),
(479,680,o),
(556,564,o),
(511,354,cs),
(467,144,o),
(341,30,o),
(160,30,cs),
(56,30,l)
);
}
);
};
layerId = "EE2FFE84-06F1-4AFB-BBEC-60D09A436D14";
shapes = (
{
closed = 1;
nodes = (
(158,0,ls),
(385,0,o),
(556,203,o),
(556,468,cs),
(556,623,o),
(471,710,o),
(309,710,cs),
(169,710,l),
(18,0,l)
);
},
{
closed = 1;
nodes = (
(195,680,l),
(299,680,ls),
(445,680,o),
(522,610,o),
(522,462,cs),
(522,216,o),
(368,30,o),
(160,30,cs),
(56,30,l)
);
}
);
width = 600;
},
{
anchors = (
{
name = bottom;
pos = (218,0);
},
{
name = center;
pos = (173,355);
},
{
name = top;
pos = (320,710);
}
);
background = {
anchors = (
{
name = bottom;
pos = (218,0);
},
{
name = center;
pos = (173,355);
},
{
name = top;
pos = (369,710);
}
);
shapes = (
{
closed = 1;
nodes = (
(176,0,ls),
(360,0,o),
(507,126,o),
(555,354,cs),
(604,582,o),
(511,710,o),
(327,710,cs),
(159,710,l),
(8,0,l)
);
},
{
closed = 1;
nodes = (
(227,626,l),
(304,626,ls),
(442,626,o),
(504,534,o),
(465,354,cs),
(427,174,o),
(327,84,o),
(189,84,cs),
(112,84,l)
);
}
);
};
layerId = "574EE4B9-5C1A-4E7E-9985-C08FACB65BD8";
shapes = (
{
closed = 1;
nodes = (
(176,0,ls),
(400,0,o),
(564,196,o),
(564,462,cs),
(564,624,o),
(477,710,o),
(327,710,cs),
(159,710,l),
(8,0,l)
);
},
{
closed = 1;
nodes = (
(227,626,l),
(306,626,ls),
(422,626,o),
(474,567,o),
(474,448,cs),
(474,237,o),
(351,84,o),
(189,84,cs),
(112,84,l)
);
}
);
width = 600;
},
{
anchors = (
{
name = bottom;
pos = (229,0);
},
{
name = center;
pos = (184,355);
},
{
name = top;
pos = (320,710);
}
);
background = {
anchors = (
{
name = bottom;
pos = (230,0);
},
{
name = center;
pos = (185,355);
},
{
name = top;
pos = (381,710);
}
);
shapes = (
{
closed = 1;
nodes = (
(176,0,ls),
(385,0,o),
(529,127,o),
(577,355,cs),
(626,583,o),
(536,710,o),
(327,710,cs),
(135,710,l),
(-16,0,l)
);
},
{
closed = 1;
nodes = (
(281,552,l),
(299,552,ls),
(390,552,o),
(422,487,o),
(393,355,cs),
(365,223,o),
(307,158,o),
(216,158,cs),
(198,158,l)
);
}
);
};
layerId = "58B1DC7A-69F8-4375-AD2E-AC5103CCF536";
shapes = (
{
closed = 1;
nodes = (
(175,0,ls),
(414,0,o),
(588,191,o),
(588,467,cs),
(588,625,o),
(498,710,o),
(326,710,cs),
(134,710,l),
(-17,0,l)
);
},
{
closed = 1;
nodes = (
(280,552,l),
(301,552,ls),
(370,552,o),
(404,514,o),
(404,438,cs),
(404,278,o),
(322,158,o),
(218,158,cs),
(197,158,l)
);
}
);
width = 600;
}
);
unicode = 68;
}
{
glyphname = E;
layers = (
{
anchors = (
{
name = bottom;
pos = (240,0);
},
{
name = ogonek;
pos = (454,0);
},
{
name = top;
pos = (391,710);
}
);
background = {
anchors = (
{
name = bottom;
pos = (240,0);
},
{
name = ogonek;
pos = (451,0);
},
{
name = top;
pos = (391,710);
}
);
shapes = (
{
closed = 1;
nodes = (
(454,0,l),
(460,30,l),
(72,30,l),
(138,339,l),
(506,339,l),
(512,369,l),
(144,369,l),
(211,680,l),
(591,680,l),
(597,710,l),
(185,710,l),
(34,0,l)
);
}
);
};
layerId = "EE2FFE84-06F1-4AFB-BBEC-60D09A436D14";
shapes = (
{
closed = 1;
nodes = (
(454,0,l),
(460,30,l),
(72,30,l),
(138,339,l),
(506,339,l),
(512,369,l),
(144,369,l),
(211,680,l),
(591,680,l),
(597,710,l),
(185,710,l),
(34,0,l)
);
}
);
width = 600;
},
{
anchors = (
{
name = bottom;
pos = (252,0);
},
{
name = ogonek;
pos = (464,0);
},
{
name = top;
pos = (403,711);
}
);
background = {
anchors = (
{
name = bottom;
pos = (252,0);
},
{
name = ogonek;
pos = (468,0);
},
{
name = top;
pos = (403,711);
}
);
shapes = (
{
closed = 1;
nodes = (
(464,0,l),
(482,84,l),
(128,84,l),
(177,315,l),
(511,315,l),
(528,397,l),
(194,397,l),
(243,626,l),
(589,626,l),
(607,710,l),
(175,710,l),
(24,0,l)
);
}
);
};
layerId = "574EE4B9-5C1A-4E7E-9985-C08FACB65BD8";
shapes = (
{
closed = 1;
nodes = (
(464,0,l),
(482,84,l),
(128,84,l),
(177,315,l),
(511,315,l),
(528,397,l),
(194,397,l),
(243,626,l),
(589,626,l),
(607,710,l),
(175,710,l),
(24,0,l)
);
}
);
width = 600;
},
{
anchors = (
{
name = bottom;
pos = (241,0);
},
{
name = ogonek;
pos = (473,0);
},
{
name = top;
pos = (392,711);
}
);
background = {
anchors = (
{
name = bottom;
pos = (241,0);
},
{
name = ogonek;
pos = (473,0);
},
{
name = top;
pos = (392,711);
}
);
shapes = (
{
closed = 1;
nodes = (
(473,0,l),
(506,158,l),
(226,158,l),
(252,279,l),
(512,279,l),
(545,433,l),
(285,433,l),
(310,552,l),
(582,552,l),
(615,710,l),
(163,710,l),
(13,0,l)
);
}
);
};
layerId = "58B1DC7A-69F8-4375-AD2E-AC5103CCF536";
shapes = (
{
closed = 1;
nodes = (
(473,0,l),
(506,158,l),
(227,158,l),
(253,279,l),
(512,279,l),
(545,433,l),
(286,433,l),
(311,552,l),
(582,552,l),
(615,710,l),
(164,710,l),
(14,0,l)
);
}
);
width = 600;
}
);
unicode = 69;
}
{
glyphname = F;
layers = (
{
anchors = (
{
name = bottom;
pos = (224,0);
},
{
name = top;
pos = (374,710);
}
);
background = {
anchors = (
{
name = bottom;
pos = (224,0);
},
{
name = top;
pos = (374,710);
}
);
shapes = (
{
closed = 1;
nodes = (
(66,0,l),
(140,350,l),
(131,339,l),
(508,339,l),
(514,369,l),
(137,369,l),
(139,344,l),
(212,689,l),
(203,680,l),
(598,680,l),
(604,710,l),
(184,710,l),
(34,0,l)
);
}
);
};
layerId = "EE2FFE84-06F1-4AFB-BBEC-60D09A436D14";
shapes = (
{
closed = 1;
nodes = (
(66,0,l),
(213,694,l),
(196,680,l),
(598,680,l),
(604,710,l),
(184,710,l),
(34,0,l)
);
},
{
closed = 1;
nodes = (
(508,339,l),
(514,369,l),
(136,369,l),
(130,339,l)
);
}
);
width = 600;
},
{
anchors = (
{
name = bottom;
pos = (224,0);
},
{
name = top;
pos = (375,710);
}
);
background = {
anchors = (
{
name = bottom;
pos = (224,0);
},
{
name = top;
pos = (375,710);
}
);
shapes = (
{
closed = 1;
nodes = (
(110,0,l),
(184,350,l),
(131,306,l),
(511,306,l),
(528,388,l),
(148,388,l),
(183,344,l),
(252,670,l),
(199,628,l),
(597,628,l),
(615,710,l),
(175,710,l),
(24,0,l)
);
}
);
};
layerId = "574EE4B9-5C1A-4E7E-9985-C08FACB65BD8";
shapes = (
{
closed = 1;
nodes = (
(110,0,l),
(251,668,l),
(203,628,l),
(597,628,l),
(615,710,l),
(175,710,l),
(24,0,l)
);
},
{
closed = 1;
nodes = (
(511,306,l),
(528,388,l),
(176,388,l),
(159,306,l)
);
}
);
width = 600;
},
{
anchors = (
{
name = bottom;
pos = (193,0);
},
{
name = top;
pos = (388,710);
}
);
background = {
anchors = (
{
name = bottom;
pos = (193,0);
},
{
name = top;
pos = (388,710);
}
);
shapes = (
{
closed = 1;
nodes = (
(193,0,l),
(267,350,l),
(129,271,l),
(513,271,l),
(545,425,l),
(161,425,l),
(266,344,l),
(335,669,l),
(188,552,l),
(590,552,l),
(624,710,l),
(164,710,l),
(13,0,l)
);
}
);
};
layerId = "58B1DC7A-69F8-4375-AD2E-AC5103CCF536";
shapes = (
{
closed = 1;
nodes = (
(193,0,l),
(324,620,l),
(241,552,l),
(590,552,l),
(624,710,l),
(164,710,l),
(13,0,l)
);
},
{
closed = 1;
nodes = (
(513,271,l),
(545,425,l),
(267,425,l),
(234,271,l)
);
}
);
width = 600;
}
);
unicode = 70;
}
{
glyphname = G;
layers = (
{
anchors = (
{
name = bottom;
pos = (255,0);
},
{
name = top;
pos = (396,710);
}
);
background = {
anchors = (
{
name = bottom;
pos = (255,0);
},
{
name = top;
pos = (394,710);
}
);
shapes = (
{
closed = 1;
nodes = (
(361,-16,o),
(462,78,o),
(512,210,c),
(506,212,l),
(461,0,l),
(489,0,l),
(560,330,l),
(324,330,l),
(318,302,l),
(524,302,l),
(484,134,o),
(374,16,o),
(255,16,cs),
(121,16,o),
(63,147,o),
(107,354,cs),
(149,554,o),
(269,694,o),
(397,694,cs),
(507,694,o),
(556,626,o),
(557,496,c),
(592,500,l),
(591,648,o),
(530,726,o),
(404,726,cs),
(254,726,o),
(120,575,o),
(73,354,cs),
(24,125,o),
(90,-16,o),
(246,-16,cs)
);
}
);
};
layerId = "EE2FFE84-06F1-4AFB-BBEC-60D09A436D14";
shapes = (
{
closed = 1;
nodes = (
(361,-16,o),
(464,78,o),
(516,210,c),
(506,212,l),
(461,0,l),
(489,0,l),
(560,330,l),
(324,330,l),
(318,302,l),
(524,302,l),
(484,134,o),
(371,16,o),
(250,16,cs),
(146,16,o),
(94,90,o),
(94,224,cs),
(94,472,o),
(234,694,o),
(396,694,cs),
(510,694,o),
(557,626,o),
(557,496,c),
(592,500,l),
(592,644,o),
(528,726,o),
(402,726,cs),
(208,726,o),
(60,487,o),
(60,218,cs),
(60,70,o),
(124,-16,o),
(246,-16,cs)
);
}
);
width = 600;
},
{
anchors = (
{
name = bottom;
pos = (246,0);
},
{
name = top;
pos = (397,710);
}
);
background = {
anchors = (
{
name = bottom;
pos = (246,0);
},
{
name = top;
pos = (397,710);
}
);
shapes = (
{
closed = 1;
nodes = (
(354,-16,o),
(426,57,o),
(475,160,c),
(453,168,l),
(421,0,l),
(501,0,l),
(578,359,l),
(328,359,l),
(310,277,l),
(480,277,l),
(450,154,o),
(369,68,o),
(268,68,cs),
(155,68,o),
(112,171,o),
(151,354,cs),
(190,538,o),
(275,642,o),
(386,642,cs),
(470,642,o),
(509,580,o),
(513,492,c),
(604,498,l),
(602,632,o),
(534,726,o),
(404,726,cs),
(238,726,o),
(109,583,o),
(61,354,cs),
(9,110,o),
(92,-16,o),
(242,-16,cs)
);
}
);
};
layerId = "574EE4B9-5C1A-4E7E-9985-C08FACB65BD8";
shapes = (
{
closed = 1;
nodes = (
(354,-16,o),
(429,59,o),
(478,162,c),
(453,168,l),
(421,0,l),
(501,0,l),
(578,359,l),
(328,359,l),
(310,277,l),
(480,277,l),
(450,154,o),
(365,68,o),
(262,68,cs),
(176,68,o),
(141,118,o),
(141,232,cs),
(141,454,o),
(248,642,o),
(386,642,cs),
(472,642,o),
(511,587,o),
(513,492,c),
(604,498,l),
(604,636,o),
(534,726,o),
(404,726,cs),
(200,726,o),
(51,510,o),
(51,224,cs),
(51,64,o),
(122,-16,o),
(242,-16,cs)
);
}
);
width = 600;
},
{
anchors = (
{
name = bottom;
pos = (251,0);
},
{
name = top;
pos = (403,710);
}
);
background = {
anchors = (
{
name = bottom;
pos = (248,0);
},
{
name = top;
pos = (400,710);
}
);
shapes = (
{
closed = 1;
nodes = (
(358,-16,o),
(448,78,o),
(469,178,c),
(425,144,l),
(402,0,l),
(507,0,l),
(587,376,l),
(323,376,l),
(296,246,l),
(394,246,l),
(376,174,o),
(341,141,o),
(291,141,cs),
(223,141,o),
(201,215,o),
(231,354,cs),
(260,494,o),
(310,569,o),
(370,569,cs),
(413,569,o),
(434,536,o),
(426,452,c),
(612,462,l),
(618,639,o),
(549,726,o),
(402,726,cs),
(230,726,o),
(96,584,o),
(47,354,cs),
(-2,124,o),
(76,-16,o),
(244,-16,cs)
);
}
);
};
layerId = "58B1DC7A-69F8-4375-AD2E-AC5103CCF536";
shapes = (
{
closed = 1;
nodes = (
(358,-16,o),
(444,72,o),
(464,174,c),
(430,154,l),
(405,0,l),
(510,0,l),
(588,376,l),
(328,376,l),
(301,246,l),
(404,246,l),
(384,168,o),
(340,141,o),
(290,141,cs),
(244,141,o),
(223,168,o),
(223,248,cs),
(223,418,o),
(298,569,o),
(370,569,cs),
(413,569,o),
(429,540,o),
(429,452,c),
(611,462,l),
(611,640,o),
(545,726,o),
(400,726,cs),
(196,726,o),
(39,528,o),
(39,228,cs),
(39,68,o),
(112,-16,o),
(236,-16,cs)
);
}
);
width = 600;
}
);
unicode = 71;
}
{
glyphname = H;
layers = (
{
anchors = (
{
name = bottom;
pos = (244,0);
},
{
name = center;
pos = (363,560);
},
{
name = top;
pos = (395,710);
}
);
background = {
anchors = (
{
name = bottom;
pos = (244,0);
},
{
name = center;
pos = (363,560);
},
{
name = top;
pos = (395,710);
}
);
shapes = (
{
closed = 1;
nodes = (
(56,0,l),
(132,359,l),
(121,349,l),
(514,349,l),
(508,359,l),
(432,0,l),
(464,0,l),
(615,710,l),
(583,710,l),
(511,370,l),
(521,379,l),
(128,379,l),
(135,370,l),
(207,710,l),
(175,710,l),
(24,0,l)
);
}
);
};
layerId = "EE2FFE84-06F1-4AFB-BBEC-60D09A436D14";
shapes = (
{
closed = 1;
nodes = (
(56,0,l),
(132,359,l),
(121,349,l),
(514,349,l),
(508,359,l),
(432,0,l),
(464,0,l),
(615,710,l),
(583,710,l),
(511,370,l),
(521,379,l),
(128,379,l),
(135,370,l),
(207,710,l),
(175,710,l),
(24,0,l)
);
}
);
width = 600;
},
{
anchors = (
{
name = bottom;
pos = (244,0);
},
{
name = center;
pos = (365,568);
},
{
name = top;
pos = (395,710);
}
);
background = {
anchors = (
{
name = bottom;
pos = (244,0);
},
{
name = center;
pos = (365,568);
},
{
name = top;
pos = (395,710);
}
);
shapes = (
{
closed = 1;
nodes = (
(90,0,l),
(164,349,l),
(113,315,l),
(509,315,l),
(472,349,l),
(398,0,l),
(484,0,l),
(635,710,l),
(549,710,l),
(476,365,l),
(527,399,l),
(131,399,l),
(168,365,l),
(241,710,l),
(155,710,l),
(4,0,l)
);
}
);
};
layerId = "574EE4B9-5C1A-4E7E-9985-C08FACB65BD8";
shapes = (
{
closed = 1;
nodes = (
(90,0,l),
(164,349,l),
(113,315,l),
(509,315,l),
(472,349,l),
(398,0,l),
(484,0,l),
(635,710,l),
(549,710,l),
(476,365,l),
(527,399,l),
(131,399,l),
(168,365,l),
(241,710,l),
(155,710,l),
(4,0,l)
);
}
);
width = 600;
},
{
anchors = (
{
name = bottom;
pos = (243,0);
},
{
name = center;
pos = (366,580);
},
{
name = top;
pos = (394,710);
}
);
background = {
anchors = (
{
name = bottom;
pos = (243,0);
},
{
name = center;
pos = (366,580);
},
{
name = top;
pos = (394,710);
}
);
shapes = (
{
closed = 1;
nodes = (
(163,0,l),
(234,335,l),
(163,278,l),
(441,278,l),
(394,335,l),
(323,0,l),
(503,0,l),
(654,710,l),
(474,710,l),
(404,379,l),
(475,436,l),
(197,436,l),
(244,379,l),
(314,710,l),
(134,710,l),
(-17,0,l)
);
}
);
};
layerId = "58B1DC7A-69F8-4375-AD2E-AC5103CCF536";
shapes = (
{
closed = 1;
nodes = (
(163,0,l),
(234,335,l),
(163,278,l),
(441,278,l),
(394,335,l),
(323,0,l),
(503,0,l),
(654,710,l),
(474,710,l),
(404,379,l),
(475,436,l),
(197,436,l),
(244,379,l),
(314,710,l),
(134,710,l),
(-17,0,l)
);
}
);
width = 600;
}
);
unicode = 72;
}
{
glyphname = I;
layers = (
{
anchors = (
{
name = bottom;
pos = (244,0);
},
{
name = ogonek;
pos = (454,0);
},
{
name = top;
pos = (394,710);
}
);
background = {
shapes = (
{
closed = 1;
nodes = (
(454,0,l),
(460,30,l),
(266,30,l),
(404,680,l),
(598,680,l),
(604,710,l),
(184,710,l),
(178,680,l),
(372,680,l),
(234,30,l),
(40,30,l),
(34,0,l)
);
}
);
};
layerId = "EE2FFE84-06F1-4AFB-BBEC-60D09A436D14";
shapes = (
{
closed = 1;
nodes = (
(454,0,l),
(460,30,l),
(266,30,l),
(404,680,l),
(598,680,l),
(604,710,l),
(185,710,l),
(179,680,l),
(372,680,l),
(234,30,l),
(40,30,l),
(34,0,l)
);
}
);
width = 600;
},
{
anchors = (
{
name = bottom;
pos = (244,0);
},
{
name = ogonek;
pos = (464,0);
},
{
name = top;
pos = (395,710);
}
);
background = {
shapes = (
{
closed = 1;
nodes = (
(464,0,l),
(482,84,l),
(305,84,l),
(420,626,l),
(597,626,l),
(615,710,l),
(175,710,l),
(157,626,l),
(334,626,l),
(219,84,l),
(42,84,l),
(24,0,l)
);
}
);
};
layerId = "574EE4B9-5C1A-4E7E-9985-C08FACB65BD8";
shapes = (
{
closed = 1;
nodes = (
(464,0,l),
(482,84,l),
(305,84,l),
(420,626,l),
(597,626,l),
(615,710,l),
(175,710,l),
(157,626,l),
(334,626,l),
(219,84,l),
(42,84,l),
(24,0,l)
);
}
);
width = 600;
},
{
anchors = (
{
name = bottom;
pos = (243,0);
},
{
name = ogonek;
pos = (473,0);
},
{
name = top;
pos = (393,710);
}
);
background = {
shapes = (
{
closed = 1;
nodes = (
(473,0,l),
(506,158,l),
(366,158,l),
(450,552,l),
(590,552,l),
(623,710,l),
(163,710,l),
(130,552,l),
(270,552,l),
(186,158,l),
(46,158,l),
(13,0,l)
);
}
);
};
layerId = "58B1DC7A-69F8-4375-AD2E-AC5103CCF536";
shapes = (
{
closed = 1;
nodes = (
(473,0,l),
(506,158,l),
(366,158,l),
(450,552,l),
(590,552,l),
(623,710,l),
(164,710,l),
(131,552,l),
(270,552,l),
(186,158,l),
(46,158,l),
(13,0,l)
);
}
);
width = 600;
}
);
unicode = 73;
}
{
glyphname = J;
layers = (
{
anchors = (
{
name = top;
pos = (602,710);
}
);
background = {
anchors = (
{
name = top;
pos = (604,710);
}
);
shapes = (
{
closed = 1;
nodes = (
(383,-16,o),
(487,83,o),
(523,254,cs),
(620,710,l),
(588,710,l),
(491,254,ls),
(458,99,o),
(372,16,o),
(244,16,cs),
(128,16,o),
(77,96,o),
(103,236,c),
(68,232,l),
(40,82,o),
(108,-16,o),
(238,-16,cs)
);
}
);
};
layerId = "EE2FFE84-06F1-4AFB-BBEC-60D09A436D14";
shapes = (
{
closed = 1;
nodes = (
(386,-16,o),
(485,72,o),
(523,252,cs),
(620,710,l),
(588,710,l),
(490,254,ls),
(456,98,o),
(372,16,o),
(244,16,cs),
(144,16,o),
(95,68,o),
(95,168,cs),
(95,188,o),
(98,212,o),
(102,236,c),
(67,232,l),
(63,210,o),
(61,186,o),
(61,166,cs),
(61,53,o),
(127,-16,o),
(238,-16,cs)
);
}
);
width = 600;
},
{
anchors = (
{
name = top;
pos = (585,710);
}
);
background = {
anchors = (
{
name = top;
pos = (585,710);
}
);
shapes = (
{
closed = 1;
nodes = (
(386,-16,o),
(496,81,o),
(529,238,cs),
(630,710,l),
(544,710,l),
(443,238,ls),
(419,125,o),
(357,68,o),
(258,68,cs),
(159,68,o),
(123,123,o),
(143,238,c),
(58,230,l),
(30,80,o),
(101,-16,o),
(241,-16,cs)
);
}
);
};
layerId = "574EE4B9-5C1A-4E7E-9985-C08FACB65BD8";
shapes = (
{
closed = 1;
nodes = (
(388,-16,o),
(491,60,o),
(529,236,cs),
(630,710,l),
(544,710,l),
(444,242,ls),
(418,122,o),
(353,68,o),
(258,68,cs),
(174,68,o),
(137,102,o),
(137,180,cs),
(137,196,o),
(140,222,o),
(143,238,c),
(58,230,l),
(55,216,o),
(52,190,o),
(52,168,cs),
(52,54,o),
(122,-16,o),
(242,-16,cs)
);
}
);
width = 600;
},
{
anchors = (
{
name = top;
pos = (546,710);
}
);
background = {
anchors = (
{
name = top;
pos = (563,710);
}
);
shapes = (
{
closed = 1;
nodes = (
(397,-16,o),
(504,80,o),
(541,252,cs),
(638,710,l),
(458,710,l),
(361,252,ls),
(344,170,o),
(320,138,o),
(275,138,cs),
(229,138,o),
(219,176,o),
(238,274,c),
(54,266,l),
(17,85,o),
(85,-16,o),
(241,-16,cs)
);
}
);
};
layerId = "58B1DC7A-69F8-4375-AD2E-AC5103CCF536";
shapes = (
{
closed = 1;
nodes = (
(416,-16,o),
(503,74,o),
(541,252,cs),
(638,710,l),
(458,710,l),
(361,252,ls),
(343,166,o),
(316,138,o),
(274,138,cs),
(243,138,o),
(229,156,o),
(229,194,cs),
(229,220,o),
(234,251,o),
(238,274,c),
(54,266,l),
(48,240,o),
(44,206,o),
(44,176,cs),
(44,51,o),
(114,-16,o),
(242,-16,cs)
);
}
);
width = 600;
}
);
unicode = 74;
}
{
glyphname = K;
layers = (
{
anchors = (
{
name = bottom;
pos = (222,0);
},
{
name = top;
pos = (373,710);
}
);
background = {
anchors = (
{
name = bottom;
pos = (222,0);
},
{
name = top;
pos = (373,710);
}
);
shapes = (
{
closed = 1;
nodes = (
(619,710,l),
(581,710,l),
(91,268,l),
(82,226,l)
);
},
{
closed = 1;
nodes = (
(41,0,l),
(192,710,l),
(160,710,l),
(9,0,l)
);
},
{
closed = 1;
nodes = (
(479,0,l),
(270,410,l),
(245,388,l),
(441,0,l)
);
}
);
};
layerId = "EE2FFE84-06F1-4AFB-BBEC-60D09A436D14";
shapes = (
{
closed = 1;
nodes = (
(616,710,l),
(574,710,l),
(86,268,l),
(80,226,l)
);
},
{
closed = 1;
nodes = (
(44,0,l),
(195,710,l),
(163,710,l),
(12,0,l)
);
},
{
closed = 1;
nodes = (
(476,0,l),
(267,410,l),
(243,388,l),
(439,0,l)
);
}
);
width = 600;
},
{
anchors = (
{
name = bottom;
pos = (218,0);
},
{
name = top;
pos = (362,710);
}
);
background = {
anchors = (
{
name = bottom;
pos = (218,0);
},
{
name = top;
pos = (362,710);
}
);
shapes = (
{
closed = 1;
nodes = (
(635,710,l),
(529,710,l),
(143,342,l),
(118,226,l)
);
},
{
closed = 1;
nodes = (
(80,0,l),
(231,710,l),
(145,710,l),
(-6,0,l)
);
},
{
closed = 1;
nodes = (
(494,0,l),
(290,422,l),
(217,360,l),
(388,0,l)
);
}
);
};
layerId = "574EE4B9-5C1A-4E7E-9985-C08FACB65BD8";
shapes = (
{
closed = 1;
nodes = (
(633,710,l),
(525,710,l),
(138,344,l),
(114,224,l)
);
},
{
closed = 1;
nodes = (
(86,0,l),
(237,710,l),
(151,710,l),
(0,0,l)
);
},
{
closed = 1;
nodes = (
(488,0,l),
(284,422,l),
(214,360,l),
(384,0,l)
);
}
);
width = 600;
},
{
anchors = (
{
name = bottom;
pos = (218,0);
},
{
name = top;
pos = (363,710);
}
);
background = {
anchors = (
{
name = bottom;
pos = (218,0);
},
{
name = top;
pos = (363,710);
}
);
shapes = (
{
closed = 1;
nodes = (
(659,710,l),
(447,710,l),
(243,448,l),
(184,168,l)
);
},
{
closed = 1;
nodes = (
(158,0,l),
(309,710,l),
(129,710,l),
(-22,0,l)
);
},
{
closed = 1;
nodes = (
(508,0,l),
(387,420,l),
(244,310,l),
(318,0,l)
);
}
);
};
layerId = "58B1DC7A-69F8-4375-AD2E-AC5103CCF536";
shapes = (
{
closed = 1;
nodes = (
(658,710,l),
(444,710,l),
(238,444,l),
(178,162,l)
);
},
{
closed = 1;
nodes = (
(159,0,l),
(310,710,l),
(130,710,l),
(-21,0,l)
);
},
{
closed = 1;
nodes = (
(507,0,l),
(386,427,l),
(243,314,l),
(317,0,l)
);
}
);
width = 600;
}
);
unicode = 75;
}
{
glyphname = L;
layers = (
{
anchors = (
{
name = bottom;
pos = (241,0);
},
{
name = center;
pos = (155,382);
},
{
name = top;
pos = (201,710);
},
{
name = topright;
pos = (367,530);
}
);
background = {
anchors = (
{
name = bottom;
pos = (241,0);
},
{
name = center;
pos = (155,382);
},
{
name = top;
pos = (201,710);
},
{
name = topright;
pos = (367,530);
}
);
shapes = (
{
closed = 1;
nodes = (
(454,0,l),
(460,30,l),
(64,30,l),
(70,20,l),
(217,710,l),
(185,710,l),
(34,0,l)
);
}
);
};
layerId = "EE2FFE84-06F1-4AFB-BBEC-60D09A436D14";
shapes = (
{
closed = 1;
nodes = (
(464,0,l),
(470,30,l),
(64,30,l),
(70,20,l),
(217,710,l),
(185,710,l),
(34,0,l)
);
}
);
width = 600;
},
{
anchors = (
{
name = bottom;
pos = (245,0);
},
{
name = center;
pos = (189,380);
},
{
name = top;
pos = (218,710);
},
{
name = topright;
pos = (371,530);
}
);
background = {
anchors = (
{
name = bottom;
pos = (245,0);
},
{
name = center;
pos = (189,380);
},
{
name = top;
pos = (218,710);
},
{
name = topright;
pos = (371,530);
}
);
shapes = (
{
closed = 1;
nodes = (
(464,0,l),
(482,84,l),
(85,84,l),
(119,40,l),
(261,710,l),
(175,710,l),
(24,0,l)
);
}
);
};
layerId = "574EE4B9-5C1A-4E7E-9985-C08FACB65BD8";
shapes = (
{
closed = 1;
nodes = (
(474,0,l),
(492,84,l),
(85,84,l),
(119,40,l),
(261,710,l),
(175,710,l),
(24,0,l)
);
}
);
width = 600;
},
{
anchors = (
{
name = bottom;
pos = (243,0);
},
{
name = center;
pos = (208,380);
},
{
name = top;
pos = (244,710);
},
{
name = topright;
pos = (397,540);
}
);
background = {
anchors = (
{
name = bottom;
pos = (243,0);
},
{
name = center;
pos = (208,380);
},
{
name = top;
pos = (244,710);
},
{
name = topright;
pos = (397,540);
}
);
shapes = (
{
closed = 1;
nodes = (
(473,0,l),
(506,158,l),
(80,158,l),
(201,41,l),
(343,710,l),
(163,710,l),
(13,0,l)
);
}
);
};
layerId = "58B1DC7A-69F8-4375-AD2E-AC5103CCF536";
shapes = (
{
closed = 1;
nodes = (
(483,0,l),
(516,158,l),
(81,158,l),
(202,41,l),
(344,710,l),
(164,710,l),
(14,0,l)
);
}
);
width = 600;
}
);
unicode = 76;
}
{
glyphname = M;
layers = (
{
anchors = (
{
name = bottom;
pos = (244,0);
},
{
name = top;
pos = (395,710);
}
);
background = {
anchors = (
{
name = bottom;
pos = (244,0);
},
{
name = top;
pos = (395,710);
}
);
shapes = (
{
closed = 1;
nodes = (
(277,80,l),
(611,702,l),
(601,702,l),
(452,0,l),
(484,0,l),
(635,710,l),
(585,710,l),
(257,96,l),
(271,96,l),
(205,710,l),
(155,710,l),
(4,0,l),
(36,0,l),
(185,702,l),
(175,702,l),
(245,80,l)
);
}
);
};
layerId = "EE2FFE84-06F1-4AFB-BBEC-60D09A436D14";
shapes = (
{
closed = 1;
nodes = (
(277,80,l),
(612,702,l),
(601,702,l),
(452,0,l),
(484,0,l),
(635,710,l),
(585,710,l),
(256,96,l),
(271,96,l),
(205,710,l),
(155,710,l),
(4,0,l),
(36,0,l),
(185,702,l),
(176,702,l),
(245,80,l)
);
}
);
width = 600;
},
{
anchors = (
{
name = bottom;
pos = (244,0);
},
{
name = top;
pos = (395,710);
}
);
background = {
anchors = (
{
name = bottom;
pos = (244,0);
},
{
name = top;
pos = (395,710);
}
);
shapes = (
{
closed = 1;
nodes = (
(299,80,l),
(550,630,l),
(542,630,l),
(408,0,l),
(494,0,l),
(645,710,l),
(515,710,l),
(251,126,l),
(291,126,l),
(275,710,l),
(145,710,l),
(-6,0,l),
(80,0,l),
(214,630,l),
(206,630,l),
(223,80,l)
);
}
);
};
layerId = "574EE4B9-5C1A-4E7E-9985-C08FACB65BD8";
shapes = (
{
closed = 1;
nodes = (
(299,80,l),
(552,630,l),
(542,630,l),
(408,0,l),
(494,0,l),
(645,710,l),
(515,710,l),
(250,126,l),
(291,126,l),
(275,710,l),
(145,710,l),
(-6,0,l),
(80,0,l),
(214,630,l),
(204,630,l),
(223,80,l)
);
}
);
width = 600;
},
{
anchors = (
{
name = bottom;
pos = (243,0);
},
{
name = top;
pos = (394,710);
}
);
background = {
anchors = (
{
name = bottom;
pos = (243,0);
},
{
name = top;
pos = (394,710);
}
);
shapes = (
{
closed = 1;
nodes = (
(312,110,l),
(463,450,l),
(440,456,l),
(343,0,l),
(503,0,l),
(654,710,l),
(474,710,l),
(299,350,l),
(335,350,l),
(314,710,l),
(134,710,l),
(-17,0,l),
(143,0,l),
(240,456,l),
(215,450,l),
(220,110,l)
);
}
);
};
layerId = "58B1DC7A-69F8-4375-AD2E-AC5103CCF536";
shapes = (
{
closed = 1;
nodes = (
(312,110,l),
(463,450,l),
(440,456,l),
(343,0,l),
(503,0,l),
(654,710,l),
(472,710,l),
(299,350,l),
(335,350,l),
(312,710,l),
(134,710,l),
(-17,0,l),
(143,0,l),
(240,456,l),
(215,450,l),
(220,110,l)
);
}
);
width = 600;
}
);
unicode = 77;
}
{
glyphname = N;
layers = (
{
anchors = (
{
name = bottom;
pos = (254,0);
},
{
name = top;
pos = (403,710);
}
);
background = {
anchors = (
{
name = bottom;
pos = (254,0);
},
{
name = top;
pos = (403,710);
}
);
shapes = (
{
closed = 1;
nodes = (
(56,0,l),
(201,680,l),
(417,0,l),
(464,0,l),
(615,710,l),
(583,710,l),
(438,30,l),
(222,710,l),
(175,710,l),
(24,0,l)
);
}
);
};
layerId = "EE2FFE84-06F1-4AFB-BBEC-60D09A436D14";
shapes = (
{
closed = 1;
nodes = (
(56,0,l),
(204,694,l),
(197,694,l),
(417,0,l),
(464,0,l),
(615,710,l),
(583,710,l),
(435,16,l),
(442,16,l),
(222,710,l),
(175,710,l),
(24,0,l)
);
}
);
width = 600;
},
{
anchors = (
{
name = bottom;
pos = (244,0);
},
{
name = top;
pos = (395,710);
}
);
background = {
anchors = (
{
name = bottom;
pos = (244,0);
},
{
name = top;
pos = (395,710);
}
);
shapes = (
{
closed = 1;
nodes = (
(100,0,l),
(230,612,l),
(352,0,l),
(474,0,l),
(625,710,l),
(539,710,l),
(409,98,l),
(287,710,l),
(165,710,l),
(14,0,l)
);
}
);
};
layerId = "574EE4B9-5C1A-4E7E-9985-C08FACB65BD8";
shapes = (
{
closed = 1;
nodes = (
(100,0,l),
(238,652,l),
(222,652,l),
(352,0,l),
(474,0,l),
(625,710,l),
(539,710,l),
(401,58,l),
(417,58,l),
(287,710,l),
(165,710,l),
(14,0,l)
);
}
);
width = 600;
},
{
anchors = (
{
name = bottom;
pos = (243,0);
},
{
name = top;
pos = (394,710);
}
);
background = {
anchors = (
{
name = bottom;
pos = (243,0);
},
{
name = top;
pos = (394,710);
}
);
shapes = (
{
closed = 1;
nodes = (
(173,0,l),
(249,357,l),
(333,0,l),
(483,0,l),
(634,710,l),
(464,710,l),
(388,353,l),
(304,710,l),
(154,710,l),
(3,0,l)
);
}
);
};
layerId = "58B1DC7A-69F8-4375-AD2E-AC5103CCF536";
shapes = (
{
closed = 1;
nodes = (
(173,0,l),
(263,425,l),
(233,424,l),
(333,0,l),
(483,0,l),
(634,710,l),
(464,710,l),
(374,285,l),
(404,286,l),
(304,710,l),
(154,710,l),
(3,0,l)
);
}
);
width = 600;
}
);
unicode = 78;
}
{
glyphname = O;
layers = (
{
anchors = (
{
name = bottom;
pos = (243,0);
},
{
name = center;
pos = (319,355);
},
{
name = ogonek;
pos = (323,0);
},
{
name = top;
pos = (394,710);
}
);
background = {
anchors = (
{
name = bottom;
pos = (243,0);
},
{
name = center;
pos = (319,355);
},
{
name = ogonek;
pos = (323,0);
},
{
name = top;
pos = (394,710);
}
);
shapes = (
{
closed = 1;
nodes = (
(396,-16,o),
(522,127,o),
(571,354,cs),
(619,583,o),
(554,726,o),
(398,726,cs),
(242,726,o),
(115,583,o),
(67,354,cs),
(18,127,o),
(84,-16,o),
(240,-16,cs)
);
},
{
closed = 1;
nodes = (
(107,16,o),
(56,146,o),
(101,354,cs),
(145,563,o),
(251,694,o),
(391,694,cs),
(531,694,o),
(581,563,o),
(537,354,cs),
(492,146,o),
(387,16,o),
(247,16,cs)
);
}
);
};
layerId = "EE2FFE84-06F1-4AFB-BBEC-60D09A436D14";
shapes = (
{
closed = 1;
nodes = (
(438,-16,o),
(585,210,o),
(585,490,cs),
(585,640,o),
(518,726,o),
(398,726,cs),
(200,726,o),
(53,498,o),
(53,218,cs),
(53,68,o),
(120,-16,o),
(240,-16,cs)
);
},
{
closed = 1;
nodes = (
(135,16,o),
(87,84,o),
(87,220,cs),
(87,494,o),
(225,694,o),
(391,694,cs),
(503,694,o),
(550,624,o),
(550,488,cs),
(550,214,o),
(413,16,o),
(247,16,cs)
);
}
);
width = 600;
},
{
anchors = (
{
name = bottom;
pos = (243,0);
},
{
name = center;
pos = (319,355);
},
{
name = ogonek;
pos = (343,0);
},
{
name = top;
pos = (394,710);
}
);
background = {
anchors = (
{
name = bottom;
pos = (243,0);
},
{
name = center;
pos = (319,355);
},
{
name = ogonek;
pos = (343,0);
},
{
name = top;
pos = (394,710);
}
);
shapes = (
{
closed = 1;
nodes = (
(408,-16,o),
(530,117,o),
(581,354,cs),
(631,593,o),
(566,726,o),
(398,726,cs),
(230,726,o),
(107,593,o),
(57,354,cs),
(6,117,o),
(72,-16,o),
(240,-16,cs)
);
},
{
closed = 1;
nodes = (
(148,68,o),
(107,168,o),
(147,354,cs),
(186,540,o),
(270,642,o),
(380,642,cs),
(490,642,o),
(530,540,o),
(491,354,cs),
(451,168,o),
(368,68,o),
(258,68,cs)
);
}
);
};
layerId = "574EE4B9-5C1A-4E7E-9985-C08FACB65BD8";
shapes = (
{
closed = 1;
nodes = (
(452,-16,o),
(595,206,o),
(595,496,cs),
(595,646,o),
(528,726,o),
(398,726,cs),
(186,726,o),
(43,502,o),
(43,212,cs),
(43,64,o),
(110,-16,o),
(240,-16,cs)
);
},
{
closed = 1;
nodes = (
(172,68,o),
(133,114,o),
(133,230,cs),
(133,480,o),
(252,642,o),
(382,642,cs),
(466,642,o),
(505,594,o),
(505,478,cs),
(505,228,o),
(387,68,o),
(256,68,cs)
);
}
);
width = 600;
},
{
anchors = (
{
name = bottom;
pos = (242,0);
},
{
name = center;
pos = (318,355);
},
{
name = ogonek;
pos = (334,0);
},
{
name = top;
pos = (393,710);
}
);
background = {
anchors = (
{
name = bottom;
pos = (242,0);
},
{
name = center;
pos = (318,355);
},
{
name = ogonek;
pos = (334,0);
},
{
name = top;
pos = (393,710);
}
);
shapes = (
{
closed = 1;
nodes = (
(413,-16,o),
(539,116,o),
(590,354,cs),
(640,592,o),
(571,726,o),
(397,726,cs),
(223,726,o),
(96,592,o),
(46,354,cs),
(-5,116,o),
(65,-16,o),
(239,-16,cs)
);
},
{
closed = 1;
nodes = (
(213,138,o),
(196,196,o),
(230,354,cs),
(263,512,o),
(305,572,o),
(364,572,cs),
(423,572,o),
(439,512,o),
(406,354,cs),
(372,196,o),
(331,138,o),
(272,138,cs)
);
}
);
};
layerId = "58B1DC7A-69F8-4375-AD2E-AC5103CCF536";
shapes = (
{
closed = 1;
nodes = (
(491,-16,o),
(601,241,o),
(601,491,cs),
(601,641,o),
(532,726,o),
(394,726,cs),
(146,726,o),
(35,466,o),
(35,216,cs),
(35,66,o),
(105,-16,o),
(243,-16,cs)
);
},
{
closed = 1;
nodes = (
(235,138,o),
(219,161,o),
(219,225,cs),
(219,415,o),
(282,572,o),
(360,572,cs),
(400,572,o),
(417,548,o),
(417,484,cs),
(417,294,o),
(356,138,o),
(276,138,cs)
);
}
);
width = 600;
}
);
unicode = 79;
}
{
glyphname = P;
layers = (
{
anchors = (
{
name = bottom;
pos = (219,0);
},
{
name = top;
pos = (370,710);
}
);
background = {
anchors = (
{
name = bottom;
pos = (219,0);
},
{
name = top;
pos = (370,710);
}
);
shapes = (
{
closed = 1;
nodes = (
(61,0,l),
(126,305,l),
(288,305,ls),
(432,305,o),
(539,377,o),
(566,505,cs),
(594,633,o),
(518,710,o),
(374,710,cs),
(180,710,l),
(29,0,l)
);
},
{
closed = 1;
nodes = (
(206,680,l),
(364,680,ls),
(494,680,o),
(557,619,o),
(532,505,cs),
(508,391,o),
(420,335,o),
(290,335,cs),
(132,335,l)
);
}
);
};
layerId = "EE2FFE84-06F1-4AFB-BBEC-60D09A436D14";
shapes = (
{
closed = 1;
nodes = (
(62,0,l),
(127,305,l),
(288,305,ls),
(456,305,o),
(569,405,o),
(569,555,cs),
(569,653,o),
(499,710,o),
(374,710,cs),
(181,710,l),
(30,0,l)
);
},
{
closed = 1;
nodes = (
(207,680,l),
(364,680,ls),
(480,680,o),
(535,635,o),
(535,552,cs),
(535,418,o),
(438,335,o),
(290,335,cs),
(133,335,l)
);
}
);
width = 600;
},
{
anchors = (
{
name = bottom;
pos = (224,0);
},
{
name = top;
pos = (374,710);
}
);
background = {
anchors = (
{
name = bottom;
pos = (224,0);
},
{
name = top;
pos = (374,710);
}
);
shapes = (
{
closed = 1;
nodes = (
(100,0,l),
(158,276,l),
(288,276,ls),
(436,276,o),
(549,357,o),
(578,493,cs),
(607,629,o),
(528,710,o),
(380,710,cs),
(164,710,l),
(14,0,l)
);
},
{
closed = 1;
nodes = (
(233,626,l),
(353,626,ls),
(465,626,o),
(507,579,o),
(488,493,cs),
(470,407,o),
(408,360,o),
(296,360,cs),
(176,360,l)
);
}
);
};
layerId = "574EE4B9-5C1A-4E7E-9985-C08FACB65BD8";
shapes = (
{
closed = 1;
nodes = (
(101,0,l),
(159,276,l),
(288,276,ls),
(458,276,o),
(582,376,o),
(582,542,cs),
(582,645,o),
(509,710,o),
(380,710,cs),
(165,710,l),
(15,0,l)
);
},
{
closed = 1;
nodes = (
(234,626,l),
(353,626,ls),
(447,626,o),
(492,594,o),
(492,530,cs),
(492,424,o),
(421,360,o),
(296,360,cs),
(177,360,l)
);
}
);
width = 600;
},
{
anchors = (
{
name = bottom;
pos = (228,0);
},
{
name = top;
pos = (378,710);
}
);
background = {
anchors = (
{
name = bottom;
pos = (228,0);
},
{
name = top;
pos = (378,710);
}
);
shapes = (
{
closed = 1;
nodes = (
(178,0,l),
(229,240,l),
(287,240,ls),
(433,240,o),
(559,336,o),
(588,474,cs),
(618,612,o),
(532,710,o),
(386,710,cs),
(148,710,l),
(-2,0,l)
);
},
{
closed = 1;
nodes = (
(295,552,l),
(335,552,ls),
(392,552,o),
(415,526,o),
(404,474,cs),
(393,423,o),
(359,398,o),
(302,398,cs),
(262,398,l)
);
}
);
};
layerId = "58B1DC7A-69F8-4375-AD2E-AC5103CCF536";
shapes = (
{
closed = 1;
nodes = (
(180,0,l),
(231,240,l),
(287,240,ls),
(454,240,o),
(590,342,o),
(590,522,cs),
(590,634,o),
(512,710,o),
(384,710,cs),
(150,710,l),
(0,0,l)
);
},
{
closed = 1;
nodes = (
(297,552,l),
(335,552,ls),
(386,552,o),
(406,531,o),
(406,494,cs),
(406,426,o),
(365,398,o),
(302,398,cs),
(264,398,l)
);
}
);
width = 600;
}
);
unicode = 80;
}
{
color = 9;
glyphname = Q;
kernLeft = "0";
kernRight = "0";
layers = (
{
anchors = (
{
name = bottom;
pos = (245,0);
},
{
name = top;
pos = (396,710);
}
);
background = {
anchors = (
{
name = bottom;
pos = (255,0);
},
{
name = top;
pos = (406,710);
}
);
shapes = (
{
closed = 1;
nodes = (
(422,-69,l),
(287,208,l),
(251,208,l),
(386,-69,l)
);
},
{
pos = (-60,0);
ref = O;
}
);
};
layerId = "EE2FFE84-06F1-4AFB-BBEC-60D09A436D14";
shapes = (
{
closed = 1;
nodes = (
(370,-69,l),
(304,208,l),
(272,208,l),
(338,-69,l)
);
},
{
ref = O;
}
);
width = 600;
},
{
anchors = (
{
name = bottom;
pos = (235,0);
},
{
name = top;
pos = (386,710);
}
);
background = {
anchors = (
{
name = bottom;
pos = (255,0);
},
{
name = top;
pos = (406,710);
}
);
shapes = (
{
closed = 1;
nodes = (
(462,-69,l),
(331,208,l),
(239,208,l),
(370,-69,l)
);
},
{
alignment = -1;
pos = (-60,0);
ref = O;
}
);
};
layerId = "574EE4B9-5C1A-4E7E-9985-C08FACB65BD8";
shapes = (
{
closed = 1;
nodes = (
(396,-69,l),
(334,208,l),
(244,208,l),
(306,-69,l)
);
},
{
alignment = -1;
ref = O;
}
);
width = 600;
},
{
anchors = (
{
name = bottom;
pos = (245,0);
},
{
name = top;
pos = (396,710);
}
);
background = {
anchors = (
{
name = bottom;
pos = (254,0);
},
{
name = top;
pos = (405,710);
}
);
shapes = (
{
closed = 1;
nodes = (
(424,-70,l),
(360,240,l),
(246,240,l),
(310,-70,l)
);
},
{
alignment = -1;
pos = (-61,0);
ref = O;
}
);
};
layerId = "58B1DC7A-69F8-4375-AD2E-AC5103CCF536";
shapes = (
{
closed = 1;
nodes = (
(387,-70,l),
(353,240,l),
(241,240,l),
(275,-70,l)
);
},
{
alignment = -1;
ref = O;
}
);
width = 600;
}
);
unicode = 81;
}
{
glyphname = R;
layers = (
{
anchors = (
{
name = bottom;
pos = (241,0);
},
{
name = top;
pos = (388,710);
}
);
background = {
anchors = (
{
name = bottom;
pos = (242,0);
},
{
name = top;
pos = (389,710);
}
);
shapes = (
{
closed = 1;
nodes = (
(62,0,l),
(128,311,l),
(326,311,ls),
(431,311,o),
(462,269,o),
(453,201,cs),
(426,0,l),
(458,0,l),
(485,207,ls),
(496,294,o),
(438,332,o),
(355,332,c),
(358,322,l),
(463,337,o),
(543,400,o),
(566,510,cs),
(594,639,o),
(523,710,o),
(389,710,cs),
(181,710,l),
(30,0,l)
);
},
{
closed = 1;
nodes = (
(207,682,l),
(381,682,ls),
(500,682,o),
(557,625,o),
(532,510,cs),
(509,398,o),
(427,341,o),
(308,341,cs),
(134,341,l)
);
}
);
};
layerId = "EE2FFE84-06F1-4AFB-BBEC-60D09A436D14";
shapes = (
{
closed = 1;
nodes = (
(61,0,l),
(127,311,l),
(325,311,ls),
(419,311,o),
(453,276,o),
(453,228,cs),
(453,206,o),
(448,168,o),
(444,141,cs),
(425,0,l),
(457,0,l),
(475,138,ls),
(478,163,o),
(485,206,o),
(485,228,cs),
(485,300,o),
(430,332,o),
(354,332,c),
(357,322,l),
(491,342,o),
(571,438,o),
(571,556,cs),
(571,658,o),
(502,710,o),
(388,710,cs),
(180,710,l),
(29,0,l)
);
},
{
closed = 1;
nodes = (
(206,680,l),
(380,680,ls),
(484,680,o),
(537,641,o),
(537,553,cs),
(537,443,o),
(461,341,o),
(307,341,cs),
(133,341,l)
);
}
);
width = 600;
},
{
anchors = (
{
name = bottom;
pos = (246,0);
},
{
name = top;
pos = (379,710);
}
);
background = {
anchors = (
{
name = bottom;
pos = (246,0);
},
{
name = top;
pos = (379,710);
}
);
shapes = (
{
closed = 1;
nodes = (
(98,0,l),
(159,286,l),
(307,286,ls),
(399,286,o),
(422,259,o),
(414,193,cs),
(390,0,l),
(476,0,l),
(501,204,ls),
(512,294,o),
(475,330,o),
(381,336,c),
(383,324,l),
(460,329,o),
(555,398,o),
(576,498,cs),
(604,630,o),
(528,710,o),
(379,710,cs),
(163,710,l),
(12,0,l)
);
},
{
closed = 1;
nodes = (
(231,626,l),
(361,626,ls),
(459,626,o),
(503,580,o),
(486,498,cs),
(468,416,o),
(405,370,o),
(307,370,cs),
(177,370,l)
);
}
);
};
layerId = "574EE4B9-5C1A-4E7E-9985-C08FACB65BD8";
shapes = (
{
closed = 1;
nodes = (
(98,0,l),
(159,286,l),
(310,286,ls),
(392,286,o),
(416,259,o),
(416,217,cs),
(416,203,o),
(413,181,o),
(410,157,cs),
(390,0,l),
(476,0,l),
(495,153,ls),
(499,187,o),
(503,218,o),
(503,233,cs),
(503,302,o),
(464,331,o),
(381,336,c),
(383,324,l),
(487,332,o),
(582,421,o),
(582,545,cs),
(582,651,o),
(508,710,o),
(379,710,cs),
(163,710,l),
(12,0,l)
);
},
{
closed = 1;
nodes = (
(231,626,l),
(361,626,ls),
(445,626,o),
(490,592,o),
(490,530,cs),
(490,432,o),
(412,370,o),
(307,370,cs),
(177,370,l)
);
}
);
width = 600;
},
{
anchors = (
{
name = bottom;
pos = (234,0);
},
{
name = top;
pos = (378,710);
}
);
background = {
anchors = (
{
name = bottom;
pos = (234,0);
},
{
name = top;
pos = (378,710);
}
);
shapes = (
{
closed = 1;
nodes = (
(174,0,l),
(225,239,l),
(255,239,ls),
(321,239,o),
(342,227,o),
(329,138,cs),
(310,0,l),
(492,0,l),
(517,194,ls),
(529,287,o),
(485,328,o),
(372,328,c),
(373,314,l),
(476,322,o),
(560,388,o),
(583,496,cs),
(611,627,o),
(539,710,o),
(383,710,cs),
(145,710,l),
(-6,0,l)
);
},
{
closed = 1;
nodes = (
(291,552,l),
(341,552,ls),
(386,552,o),
(405,524,o),
(395,475,cs),
(384,425,o),
(353,397,o),
(308,397,cs),
(258,397,l)
);
}
);
};
layerId = "58B1DC7A-69F8-4375-AD2E-AC5103CCF536";
shapes = (
{
closed = 1;
nodes = (
(174,0,l),
(225,239,l),
(265,239,ls),
(314,239,o),
(333,223,o),
(333,182,cs),
(333,168,o),
(331,148,o),
(328,130,cs),
(310,0,l),
(492,0,l),
(508,123,ls),
(512,151,o),
(519,196,o),
(519,222,cs),
(519,295,o),
(473,328,o),
(372,328,c),
(373,314,l),
(509,325,o),
(589,423,o),
(589,547,cs),
(589,649,o),
(519,710,o),
(382,710,cs),
(145,710,l),
(-6,0,l)
);
},
{
closed = 1;
nodes = (
(291,552,l),
(341,552,ls),
(378,552,o),
(398,533,o),
(398,499,cs),
(398,443,o),
(365,397,o),
(308,397,cs),
(258,397,l)
);
}
);
width = 600;
}
);
unicode = 82;
}
{
glyphname = S;
layers = (
{
anchors = (
{
name = bottom;
pos = (252,0);
},
{
name = top;
pos = (383,710);
}
);
background = {
shapes = (
{
closed = 1;
nodes = (
(374,-16,o),
(497,56,o),
(522,170,cs),
(543,272,o),
(506,330,o),
(321,382,cs),
(185,420,o),
(147,453,o),
(165,540,cs),
(184,630,o),
(269,694,o),
(382,694,cs),
(508,694,o),
(561,607,o),
(540,505,c),
(574,508,l),
(597,616,o),
(539,726,o),
(391,726,cs),
(254,726,o),
(153,644,o),
(132,542,cs),
(108,430,o),
(168,390,o),
(304,352,cs),
(474,304,o),
(505,253,o),
(488,172,cs),
(467,74,o),
(366,16,o),
(258,16,cs),
(131,16,o),
(58,112,o),
(82,222,c),
(48,219,l),
(20,89,o),
(110,-16,o),
(249,-16,cs)
);
}
);
};
layerId = "EE2FFE84-06F1-4AFB-BBEC-60D09A436D14";
shapes = (
{
closed = 1;
nodes = (
(419,-16,o),
(522,70,o),
(522,206,cs),
(522,292,o),
(484,334,o),
(310,382,cs),
(190,415,o),
(162,442,o),
(162,504,cs),
(162,616,o),
(236,694,o),
(374,694,cs),
(492,694,o),
(539,638,o),
(539,554,cs),
(539,536,o),
(537,520,o),
(534,505,c),
(569,508,l),
(572,523,o),
(573,539,o),
(573,556,cs),
(573,664,o),
(500,726,o),
(380,726,cs),
(212,726,o),
(129,627,o),
(129,501,cs),
(129,413,o),
(180,388,o),
(298,352,cs),
(463,302,o),
(489,277,o),
(489,204,cs),
(489,84,o),
(396,16,o),
(250,16,cs),
(124,16,o),
(78,80,o),
(78,168,cs),
(78,188,o),
(81,212,o),
(84,222,c),
(50,219,l),
(46,205,o),
(44,183,o),
(44,164,cs),
(44,56,o),
(113,-16,o),
(246,-16,cs)
);
}
);
width = 600;
},
{
anchors = (
{
name = bottom;
pos = (260,0);
},
{
name = top;
pos = (380,710);
}
);
background = {
anchors = (
{
name = bottom;
pos = (244,0);
},
{
name = top;
pos = (394,710);
}
);
shapes = (
{
closed = 1;
nodes = (
(397,-16,o),
(513,62,o),
(537,174,cs),
(562,292,o),
(513,351,o),
(350,400,cs),
(224,438,o),
(193,461,o),
(207,528,cs),
(222,596,o),
(287,642,o),
(375,642,cs),
(471,642,o),
(508,580,o),
(502,494,c),
(593,500,l),
(605,630,o),
(541,726,o),
(395,726,cs),
(249,726,o),
(142,643,o),
(116,524,cs),
(94,418,o),
(142,370,o),
(281,328,cs),
(436,281,o),
(462,244,o),
(447,176,cs),
(433,107,o),
(370,68,o),
(271,68,cs),
(171,68,o),
(119,127,o),
(127,233,c),
(36,227,l),
(18,83,o),
(102,-16,o),
(252,-16,cs)
);
}
);
};
layerId = "574EE4B9-5C1A-4E7E-9985-C08FACB65BD8";
shapes = (
{
closed = 1;
nodes = (
(413,-16,o),
(538,55,o),
(538,218,cs),
(538,307,o),
(494,362,o),
(350,400,cs),
(222,434,o),
(197,450,o),
(197,508,cs),
(197,582,o),
(244,642,o),
(366,642,cs),
(462,642,o),
(497,592,o),
(497,532,cs),
(497,517,o),
(496,503,o),
(493,494,c),
(583,500,l),
(586,509,o),
(587,526,o),
(587,540,cs),
(587,653,o),
(517,726,o),
(377,726,cs),
(202,726,o),
(107,632,o),
(107,500,cs),
(107,405,o),
(156,361,o),
(284,328,cs),
(426,291,o),
(448,262,o),
(448,208,cs),
(448,107,o),
(371,68,o),
(268,68,cs),
(165,68,o),
(122,109,o),
(122,182,cs),
(122,202,o),
(125,223,o),
(128,233,c),
(38,227,l),
(35,214,o),
(32,191,o),
(32,172,cs),
(32,56,o),
(115,-16,o),
(255,-16,cs)
);
}
);
width = 600;
},
{
anchors = (
{
name = bottom;
pos = (246,0);
},
{
name = top;
pos = (383,710);
}
);
background = {
anchors = (
{
name = bottom;
pos = (250,0);
},
{
name = top;
pos = (399,710);
}
);
shapes = (
{
closed = 1;
nodes = (
(408,-16,o),
(517,68,o),
(547,206,cs),
(570,314,o),
(538,389,o),
(391,424,cs),
(300,446,o),
(275,470,o),
(284,512,cs),
(292,549,o),
(320,572,o),
(357,572,cs),
(401,572,o),
(423,539,o),
(417,473,c),
(600,480,l),
(627,645,o),
(554,726,o),
(399,726,cs),
(237,726,o),
(131,640,o),
(102,502,cs),
(75,376,o),
(136,324,o),
(267,292,cs),
(349,272,o),
(374,241,o),
(365,196,cs),
(356,158,o),
(325,138,o),
(285,138,cs),
(233,138,o),
(211,174,o),
(217,257,c),
(36,249,l),
(11,79,o),
(73,-16,o),
(242,-16,cs)
);
}
);
};
layerId = "58B1DC7A-69F8-4375-AD2E-AC5103CCF536";
shapes = (
{
closed = 1;
nodes = (
(456,-16,o),
(546,95,o),
(546,236,cs),
(546,320,o),
(506,387,o),
(387,422,cs),
(305,446,o),
(274,459,o),
(274,503,cs),
(274,545,o),
(300,572,o),
(352,572,cs),
(399,572,o),
(420,557,o),
(420,519,cs),
(420,503,o),
(418,483,o),
(416,473,c),
(592,480,l),
(596,498,o),
(599,525,o),
(599,554,cs),
(599,653,o),
(526,726,o),
(380,726,cs),
(182,726,o),
(96,617,o),
(96,481,cs),
(96,373,o),
(154,324,o),
(264,296,cs),
(344,276,o),
(368,254,o),
(368,210,cs),
(368,162,o),
(340,138,o),
(284,138,cs),
(234,138,o),
(207,151,o),
(207,198,cs),
(207,214,o),
(210,243,o),
(212,257,c),
(36,249,l),
(31,225,o),
(28,202,o),
(28,161,cs),
(28,54,o),
(93,-16,o),
(246,-16,cs)
);
}
);
width = 600;
}
);
unicode = 83;
}
{
glyphname = T;
layers = (
{
anchors = (
{
name = bottom;
pos = (244,0);
},
{
name = center;
pos = (318,349);
},
{
name = top;
pos = (394,710);
}
);
background = {
anchors = (
{
name = bottom;
pos = (244,0);
},
{
name = center;
pos = (318,349);
},
{
name = top;
pos = (394,710);
}
);
shapes = (
{
closed = 1;
nodes = (
(260,0,l),
(404,680,l),
(648,680,l),
(654,710,l),
(134,710,l),
(128,680,l),
(372,680,l),
(228,0,l)
);
}
);
};
layerId = "EE2FFE84-06F1-4AFB-BBEC-60D09A436D14";
shapes = (
{
closed = 1;
nodes = (
(260,0,l),
(404,680,l),
(648,680,l),
(654,710,l),
(135,710,l),
(129,680,l),
(372,680,l),
(228,0,l)
);
}
);
width = 600;
},
{
anchors = (
{
name = bottom;
pos = (244,0);
},
{
name = center;
pos = (318,348);
},
{
name = top;
pos = (395,710);
}
);
background = {
anchors = (
{
name = bottom;
pos = (244,0);
},
{
name = center;
pos = (318,348);
},
{
name = top;
pos = (395,710);
}
);
shapes = (
{
closed = 1;
nodes = (
(287,0,l),
(420,626,l),
(637,626,l),
(655,710,l),
(135,710,l),
(117,626,l),
(334,626,l),
(201,0,l)
);
}
);
};
layerId = "574EE4B9-5C1A-4E7E-9985-C08FACB65BD8";
shapes = (
{
closed = 1;
nodes = (
(287,0,l),
(420,626,l),
(637,626,l),
(655,710,l),
(135,710,l),
(117,626,l),
(334,626,l),
(201,0,l)
);
}
);
width = 600;
},
{
anchors = (
{
name = bottom;
pos = (243,0);
},
{
name = center;
pos = (309,312);
},
{
name = top;
pos = (394,710);
}
);
background = {
anchors = (
{
name = bottom;
pos = (243,0);
},
{
name = center;
pos = (309,312);
},
{
name = top;
pos = (394,710);
}
);
shapes = (
{
closed = 1;
nodes = (
(333,0,l),
(450,552,l),
(620,552,l),
(654,710,l),
(134,710,l),
(100,552,l),
(270,552,l),
(153,0,l)
);
}
);
};
layerId = "58B1DC7A-69F8-4375-AD2E-AC5103CCF536";
shapes = (
{
closed = 1;
nodes = (
(333,0,l),
(450,552,l),
(620,552,l),
(654,710,l),
(134,710,l),
(100,552,l),
(270,552,l),
(153,0,l)
);
}
);
width = 600;
}
);
unicode = 84;
}
{
glyphname = U;
layers = (
{
anchors = (
{
name = bottom;
pos = (244,0);
},
{
name = ogonek;
pos = (330,0);
},
{
name = top;
pos = (395,710);
}
);
background = {
anchors = (
{
name = bottom;
pos = (244,0);
},
{
name = ogonek;
pos = (330,0);
},
{
name = top;
pos = (395,710);
}
);
shapes = (
{
closed = 1;
nodes = (
(382,-16,o),
(481,79,o),
(517,248,cs),
(615,710,l),
(583,710,l),
(485,248,ls),
(453,99,o),
(368,16,o),
(247,16,cs),
(126,16,o),
(77,99,o),
(109,248,cs),
(207,710,l),
(175,710,l),
(77,248,ls),
(41,79,o),
(100,-16,o),
(241,-16,cs)
);
}
);
};
layerId = "EE2FFE84-06F1-4AFB-BBEC-60D09A436D14";
shapes = (
{
closed = 1;
nodes = (
(382,-16,o),
(480,78,o),
(516,248,cs),
(614,710,l),
(582,710,l),
(484,248,ls),
(453,104,o),
(368,16,o),
(246,16,cs),
(146,16,o),
(99,62,o),
(99,164,cs),
(99,190,o),
(105,230,o),
(114,272,cs),
(207,710,l),
(175,710,l),
(82,271,ls),
(74,233,o),
(67,189,o),
(67,159,cs),
(67,46,o),
(127,-16,o),
(241,-16,cs)
);
}
);
width = 600;
},
{
anchors = (
{
name = bottom;
pos = (244,0);
},
{
name = ogonek;
pos = (338,0);
},
{
name = top;
pos = (395,710);
}
);
background = {
anchors = (
{
name = bottom;
pos = (244,0);
},
{
name = ogonek;
pos = (338,0);
},
{
name = top;
pos = (395,710);
}
);
shapes = (
{
closed = 1;
nodes = (
(390,-16,o),
(502,85,o),
(537,248,cs),
(635,710,l),
(549,710,l),
(451,248,ls),
(426,131,o),
(358,68,o),
(258,68,cs),
(158,68,o),
(118,131,o),
(143,248,cs),
(241,710,l),
(155,710,l),
(57,248,ls),
(22,85,o),
(92,-16,o),
(241,-16,cs)
);
}
);
};
layerId = "574EE4B9-5C1A-4E7E-9985-C08FACB65BD8";
shapes = (
{
closed = 1;
nodes = (
(390,-16,o),
(498,70,o),
(536,248,cs),
(634,710,l),
(548,710,l),
(450,248,ls),
(425,130,o),
(358,68,o),
(258,68,cs),
(177,68,o),
(136,105,o),
(136,182,cs),
(136,212,o),
(146,262,o),
(154,300,cs),
(241,710,l),
(155,710,l),
(71,314,ls),
(56,246,o),
(48,198,o),
(48,172,cs),
(48,54,o),
(117,-16,o),
(241,-16,cs)
);
}
);
width = 600;
},
{
anchors = (
{
name = bottom;
pos = (242,0);
},
{
name = ogonek;
pos = (338,0);
},
{
name = top;
pos = (393,710);
}
);
background = {
anchors = (
{
name = bottom;
pos = (242,0);
},
{
name = ogonek;
pos = (338,0);
},
{
name = top;
pos = (393,710);
}
);
shapes = (
{
closed = 1;
nodes = (
(399,-16,o),
(507,70,o),
(544,244,cs),
(644,711,l),
(464,711,l),
(360,224,ls),
(349,170,o),
(317,138,o),
(272,138,cs),
(227,138,o),
(209,170,o),
(220,224,cs),
(324,711,l),
(144,711,l),
(44,244,ls),
(7,70,o),
(79,-16,o),
(239,-16,cs)
);
}
);
};
layerId = "58B1DC7A-69F8-4375-AD2E-AC5103CCF536";
shapes = (
{
closed = 1;
nodes = (
(412,-16,o),
(506,66,o),
(544,244,cs),
(644,711,l),
(464,711,l),
(360,224,ls),
(346,159,o),
(312,138,o),
(270,138,cs),
(234,138,o),
(218,155,o),
(218,192,cs),
(218,207,o),
(223,238,o),
(227,258,cs),
(324,711,l),
(144,711,l),
(53,284,ls),
(47,254,o),
(34,202,o),
(34,164,cs),
(34,45,o),
(107,-16,o),
(239,-16,cs)
);
}
);
width = 600;
}
);
unicode = 85;
}
{
glyphname = V;
layers = (
{
anchors = (
{
name = bottom;
pos = (244,0);
},
{
name = top;
pos = (395,710);
}
);
background = {
anchors = (
{
name = bottom;
pos = (244,0);
},
{
name = top;
pos = (395,710);
}
);
shapes = (
{
closed = 1;
nodes = (
(262,0,l),
(655,710,l),
(623,710,l),
(244,20,l),
(252,20,l),
(167,710,l),
(135,710,l),
(226,0,l)
);
}
);
};
layerId = "EE2FFE84-06F1-4AFB-BBEC-60D09A436D14";
shapes = (
{
closed = 1;
nodes = (
(262,0,l),
(655,710,l),
(622,710,l),
(242,20,l),
(250,20,l),
(166,710,l),
(135,710,l),
(226,0,l)
);
}
);
width = 600;
},
{
anchors = (
{
name = bottom;
pos = (244,0);
},
{
name = top;
pos = (395,710);
}
);
background = {
anchors = (
{
name = bottom;
pos = (244,0);
},
{
name = top;
pos = (395,710);
}
);
shapes = (
{
closed = 1;
nodes = (
(300,0,l),
(665,710,l),
(573,710,l),
(244,56,l),
(268,56,l),
(217,710,l),
(125,710,l),
(188,0,l)
);
}
);
};
layerId = "574EE4B9-5C1A-4E7E-9985-C08FACB65BD8";
shapes = (
{
closed = 1;
nodes = (
(300,0,l),
(665,710,l),
(572,710,l),
(243,56,l),
(267,56,l),
(216,710,l),
(125,710,l),
(188,0,l)
);
}
);
width = 600;
},
{
anchors = (
{
name = bottom;
pos = (243,0);
},
{
name = top;
pos = (394,710);
}
);
background = {
anchors = (
{
name = bottom;
pos = (243,0);
},
{
name = top;
pos = (394,710);
}
);
shapes = (
{
closed = 1;
nodes = (
(327,0,l),
(680,710,l),
(490,710,l),
(256,200,l),
(316,200,l),
(298,710,l),
(108,710,l),
(159,0,l)
);
}
);
};
layerId = "58B1DC7A-69F8-4375-AD2E-AC5103CCF536";
shapes = (
{
closed = 1;
nodes = (
(327,0,l),
(680,710,l),
(488,710,l),
(254,200,l),
(314,200,l),
(296,710,l),
(108,710,l),
(159,0,l)
);
}
);
width = 600;
}
);
unicode = 86;
}
{
glyphname = W;
layers = (
{
anchors = (
{
name = bottom;
pos = (244,0);
},
{
name = top;
pos = (395,710);
}
);
background = {
anchors = (
{
name = bottom;
pos = (244,0);
},
{
name = top;
pos = (395,710);
}
);
shapes = (
{
closed = 1;
nodes = (
(134,0,l),
(383,618,l),
(367,618,l),
(354,0,l),
(400,0,l),
(655,710,l),
(623,710,l),
(375,16,l),
(381,16,l),
(396,630,l),
(360,630,l),
(113,16,l),
(119,16,l),
(167,710,l),
(135,710,l),
(88,0,l)
);
}
);
};
layerId = "EE2FFE84-06F1-4AFB-BBEC-60D09A436D14";
shapes = (
{
closed = 1;
nodes = (
(124,0,l),
(383,618,l),
(367,618,l),
(364,0,l),
(410,0,l),
(655,710,l),
(623,710,l),
(385,16,l),
(391,16,l),
(396,630,l),
(360,630,l),
(103,16,l),
(109,16,l),
(167,710,l),
(135,710,l),
(78,0,l)
);
}
);
width = 600;
},
{
anchors = (
{
name = bottom;
pos = (244,0);
},
{
name = top;
pos = (395,710);
}
);
background = {
anchors = (
{
name = bottom;
pos = (244,0);
},
{
name = top;
pos = (395,710);
}
);
shapes = (
{
closed = 1;
nodes = (
(182,0,l),
(375,560,l),
(351,560,l),
(306,0,l),
(436,0,l),
(665,710,l),
(575,710,l),
(369,50,l),
(379,50,l),
(424,630,l),
(332,630,l),
(131,50,l),
(141,50,l),
(215,710,l),
(125,710,l),
(52,0,l)
);
}
);
};
layerId = "574EE4B9-5C1A-4E7E-9985-C08FACB65BD8";
shapes = (
{
closed = 1;
nodes = (
(172,0,l),
(377,560,l),
(353,560,l),
(316,0,l),
(446,0,l),
(665,710,l),
(575,710,l),
(379,50,l),
(389,50,l),
(424,630,l),
(332,630,l),
(121,50,l),
(131,50,l),
(215,710,l),
(125,710,l),
(42,0,l)
);
}
);
width = 600;
},
{
anchors = (
{
name = bottom;
pos = (243,0);
},
{
name = top;
pos = (394,710);
}
);
background = {
anchors = (
{
name = bottom;
pos = (243,0);
},
{
name = top;
pos = (394,710);
}
);
shapes = (
{
closed = 1;
nodes = (
(197,0,l),
(332,360,l),
(308,360,l),
(289,0,l),
(453,0,l),
(674,710,l),
(510,710,l),
(378,230,l),
(394,230,l),
(422,630,l),
(332,630,l),
(190,230,l),
(206,230,l),
(278,710,l),
(114,710,l),
(33,0,l)
);
}
);
};
layerId = "58B1DC7A-69F8-4375-AD2E-AC5103CCF536";
shapes = (
{
closed = 1;
nodes = (
(187,0,l),
(332,360,l),
(308,360,l),
(299,0,l),
(463,0,l),
(674,710,l),
(510,710,l),
(388,230,l),
(404,230,l),
(422,630,l),
(332,630,l),
(180,230,l),
(196,230,l),
(278,710,l),
(114,710,l),
(23,0,l)
);
}
);
width = 600;
}
);
unicode = 87;
}
{
glyphname = X;
layers = (
{
anchors = (
{
name = bottom;
pos = (244,0);
},
{
name = top;
pos = (395,710);
}
);
background = {
anchors = (
{
name = bottom;
pos = (244,0);
},
{
name = top;
pos = (395,710);
}
);
shapes = (
{
closed = 1;
nodes = (
(40,0,l),
(314,336,l),
(448,0,l),
(484,0,l),
(342,356,l),
(627,710,l),
(591,710,l),
(327,382,l),
(199,710,l),
(163,710,l),
(300,360,l),
(4,0,l)
);
}
);
};
guides = (
{
angle = -90;
pos = (529,0);
}
);
layerId = "EE2FFE84-06F1-4AFB-BBEC-60D09A436D14";
shapes = (
{
closed = 1;
nodes = (
(43,0,l),
(315,336,l),
(450,0,l),
(484,0,l),
(342,353,l),
(627,710,l),
(588,710,l),
(326,382,l),
(197,710,l),
(163,710,l),
(300,363,l),
(4,0,l)
);
}
);
width = 600;
},
{
anchors = (
{
name = bottom;
pos = (244,0);
},
{
name = top;
pos = (395,710);
}
);
background = {
anchors = (
{
name = bottom;
pos = (244,0);
},
{
name = top;
pos = (395,710);
}
);
shapes = (
{
closed = 1;
nodes = (
(92,0,l),
(304,289,l),
(394,0,l),
(494,0,l),
(374,356,l),
(641,710,l),
(543,710,l),
(335,425,l),
(249,710,l),
(149,710,l),
(266,357,l),
(-6,0,l)
);
}
);
};
layerId = "574EE4B9-5C1A-4E7E-9985-C08FACB65BD8";
shapes = (
{
closed = 1;
nodes = (
(95,0,l),
(306,289,l),
(397,0,l),
(494,0,l),
(374,354,l),
(641,710,l),
(540,710,l),
(333,425,l),
(246,710,l),
(149,710,l),
(266,359,l),
(-6,0,l)
);
}
);
width = 600;
},
{
anchors = (
{
name = bottom;
pos = (243,0);
},
{
name = top;
pos = (394,710);
}
);
background = {
anchors = (
{
name = bottom;
pos = (243,0);
},
{
name = top;
pos = (394,710);
}
);
shapes = (
{
closed = 1;
nodes = (
(157,0,l),
(290,230,l),
(325,0,l),
(519,0,l),
(443,356,l),
(668,710,l),
(478,710,l),
(348,486,l),
(314,710,l),
(120,710,l),
(195,358,l),
(-33,0,l)
);
}
);
};
layerId = "58B1DC7A-69F8-4375-AD2E-AC5103CCF536";
shapes = (
{
closed = 1;
nodes = (
(167,0,l),
(292,230,l),
(329,0,l),
(517,0,l),
(443,352,l),
(664,710,l),
(468,710,l),
(346,486,l),
(308,710,l),
(120,710,l),
(195,362,l),
(-29,0,l)
);
}
);
width = 600;
}
);
unicode = 88;
}
{
glyphname = Y;
layers = (
{
anchors = (
{
name = bottom;
pos = (244,0);
},
{
name = top;
pos = (395,710);
}
);
background = {
anchors = (
{
name = bottom;
pos = (244,0);
},
{
name = top;
pos = (395,710);
}
);
shapes = (
{
closed = 1;
nodes = (
(260,0,l),
(322,290,l),
(645,710,l),
(607,710,l),
(313,324,l),
(183,710,l),
(145,710,l),
(290,290,l),
(228,0,l)
);
}
);
};
layerId = "EE2FFE84-06F1-4AFB-BBEC-60D09A436D14";
shapes = (
{
closed = 1;
nodes = (
(260,0,l),
(322,290,l),
(655,710,l),
(615,710,l),
(310,324,l),
(171,710,l),
(135,710,l),
(290,290,l),
(228,0,l)
);
}
);
width = 600;
},
{
anchors = (
{
name = bottom;
pos = (244,0);
},
{
name = top;
pos = (391,710);
}
);
background = {
anchors = (
{
name = bottom;
pos = (244,0);
},
{
name = top;
pos = (395,710);
}
);
shapes = (
{
closed = 1;
nodes = (
(288,0,l),
(350,290,l),
(655,710,l),
(557,710,l),
(324,378,l),
(233,710,l),
(135,710,l),
(264,290,l),
(202,0,l)
);
}
);
};
layerId = "574EE4B9-5C1A-4E7E-9985-C08FACB65BD8";
shapes = (
{
closed = 1;
nodes = (
(288,0,l),
(350,290,l),
(659,710,l),
(555,710,l),
(320,378,l),
(223,710,l),
(131,710,l),
(264,290,l),
(202,0,l)
);
}
);
width = 600;
},
{
anchors = (
{
name = bottom;
pos = (245,0);
},
{
name = top;
pos = (388,710);
}
);
background = {
anchors = (
{
name = bottom;
pos = (245,0);
},
{
name = top;
pos = (394,710);
}
);
shapes = (
{
closed = 1;
nodes = (
(333,0,l),
(397,300,l),
(670,710,l),
(480,710,l),
(346,486,l),
(308,710,l),
(118,710,l),
(217,300,l),
(153,0,l)
);
}
);
};
layerId = "58B1DC7A-69F8-4375-AD2E-AC5103CCF536";
shapes = (
{
closed = 1;
nodes = (
(333,0,l),
(397,300,l),
(674,710,l),
(476,710,l),
(340,484,l),
(296,710,l),
(114,710,l),
(217,300,l),
(153,0,l)
);
}
);
width = 600;
}
);
unicode = 89;
}
{
glyphname = Z;
layers = (
{
anchors = (
{
name = bottom;
pos = (244,0);
},
{
name = top;
pos = (395,710);
}
);
background = {
anchors = (
{
name = bottom;
pos = (244,0);
},
{
name = top;
pos = (395,710);
}
);
shapes = (
{
closed = 1;
nodes = (
(484,0,l),
(490,30,l),
(44,30,l),
(621,680,l),
(627,710,l),
(173,710,l),
(167,680,l),
(587,680,l),
(10,30,l),
(4,0,l)
);
}
);
};
layerId = "EE2FFE84-06F1-4AFB-BBEC-60D09A436D14";
shapes = (
{
closed = 1;
nodes = (
(482,0,l),
(488,30,l),
(48,30,l),
(619,680,l),
(625,710,l),
(173,710,l),
(167,680,l),
(582,680,l),
(12,30,l),
(6,0,l)
);
}
);
width = 600;
},
{
anchors = (
{
name = bottom;
pos = (244,0);
},
{
name = top;
pos = (395,710);
}
);
background = {
anchors = (
{
name = bottom;
pos = (244,0);
},
{
name = top;
pos = (395,710);
}
);
shapes = (
{
closed = 1;
nodes = (
(494,0,l),
(512,84,l),
(108,84,l),
(619,624,l),
(637,710,l),
(163,710,l),
(145,626,l),
(523,626,l),
(12,86,l),
(-6,0,l)
);
}
);
};
layerId = "574EE4B9-5C1A-4E7E-9985-C08FACB65BD8";
shapes = (
{
closed = 1;
nodes = (
(492,0,l),
(510,84,l),
(110,84,l),
(618,624,l),
(636,710,l),
(163,710,l),
(145,626,l),
(520,626,l),
(14,86,l),
(-4,0,l)
);
}
);
width = 600;
},
{
anchors = (
{
name = bottom;
pos = (241,0);
},
{
name = top;
pos = (391,710);
}
);
background = {
anchors = (
{
name = bottom;
pos = (243,0);
},
{
name = top;
pos = (393,710);
}
);
shapes = (
{
closed = 1;
nodes = (
(503,0,l),
(536,158,l),
(236,158,l),
(612,554,l),
(645,710,l),
(151,710,l),
(118,552,l),
(398,552,l),
(16,156,l),
(-17,0,l)
);
}
);
};
layerId = "58B1DC7A-69F8-4375-AD2E-AC5103CCF536";
shapes = (
{
closed = 1;
nodes = (
(501,0,l),
(534,158,l),
(236,158,l),
(606,554,l),
(639,710,l),
(149,710,l),
(116,552,l),
(394,552,l),
(18,156,l),
(-15,0,l)
);
}
);
width = 600;
}
);
unicode = 90;
}
{
glyphname = backslash;
layers = (
{
background = {
shapes = (
{
pos = (601,0);
ref = slash;
scale = (-1,1);
}
);
};
layerId = "EE2FFE84-06F1-4AFB-BBEC-60D09A436D14";
shapes = (
{
closed = 1;
nodes = (
(270,746,l),
(238,746,l),
(352,-110,l),
(384,-110,l)
);
}
);
width = 600;
},
{
background = {
shapes = (
{
alignment = -1;
pos = (600,0);
ref = slash;
scale = (-1,1);
}
);
};
layerId = "574EE4B9-5C1A-4E7E-9985-C08FACB65BD8";
shapes = (
{
closed = 1;
nodes = (
(291,750,l),
(211,750,l),
(332,-110,l),
(412,-110,l)
);
}
);
width = 600;
},
{
background = {
shapes = (
{
alignment = -1;
pos = (599,0);
ref = slash;
scale = (-1,1);
}
);
};
layerId = "58B1DC7A-69F8-4375-AD2E-AC5103CCF536";
shapes = (
{
closed = 1;
nodes = (
(334,750,l),
(174,750,l),
(287,-110,l),
(447,-110,l)
);
}
);
width = 600;
}
);
unicode = 92;
}
{
color = 3;
glyphname = bracketright;
layers = (
{
background = {
shapes = (
{
closed = 1;
nodes = (
(192,-110,l),
(192,750,l),
(39,750,l),
(39,720,l),
(160,720,l),
(160,-80,l),
(39,-80,l),
(39,-110,l)
);
}
);
};
layerId = "EE2FFE84-06F1-4AFB-BBEC-60D09A436D14";
shapes = (
{
closed = 1;
nodes = (
(330,-110,l),
(512,750,l),
(293,750,l),
(287,722,l),
(474,722,l),
(304,-82,l),
(117,-82,l),
(111,-110,l)
);
}
);
width = 600;
},
{
background = {
shapes = (
{
closed = 1;
nodes = (
(473,-110,l),
(473,750,l),
(127,750,l),
(127,600,l),
(287,600,l),
(287,40,l),
(127,40,l),
(127,-110,l)
);
}
);
};
layerId = "58B1DC7A-69F8-4375-AD2E-AC5103CCF536";
shapes = (
{
closed = 1;
nodes = (
(399,-110,l),
(581,750,l),
(222,750,l),
(191,600,l),
(372,600,l),
(252,40,l),
(71,40,l),
(40,-110,l)
);
}
);
width = 600;
},
{
background = {
shapes = (
{
closed = 1;
nodes = (
(255,-110,l),
(255,750,l),
(15,750,l),
(15,674,l),
(175,674,l),
(175,-34,l),
(15,-34,l),
(15,-110,l)
);
}
);
};
layerId = "574EE4B9-5C1A-4E7E-9985-C08FACB65BD8";
shapes = (
{
closed = 1;
nodes = (
(360,-110,l),
(542,750,l),
(263,750,l),
(249,680,l),
(448,680,l),
(294,-40,l),
(95,-40,l),
(81,-110,l)
);
}
);
width = 600;
}
);
unicode = 93;
}
{
color = 9;
glyphname = asciicircum;
kernLeft = plus;
kernRight = plus;
layers = (
{
background = {
shapes = (
{
closed = 1;
nodes = (
(94,383,l),
(186,658,l),
(182,658,l),
(274,383,l),
(308,383,l),
(208,673,l),
(160,673,l),
(60,383,l)
);
}
);
};
guides = (
{
pos = (67,383);
}
);
layerId = "EE2FFE84-06F1-4AFB-BBEC-60D09A436D14";
shapes = (
{
closed = 1;
nodes = (
(217,383,l),
(388,658,l),
(382,658,l),
(437,383,l),
(469,383,l),
(411,673,l),
(363,673,l),
(181,383,l)
);
}
);
width = 600;
},
{
background = {
shapes = (
{
closed = 1;
nodes = (
(187,383,l),
(263,611,l),
(222,611,l),
(299,383,l),
(425,383,l),
(325,673,l),
(160,673,l),
(60,383,l)
);
}
);
};
layerId = "58B1DC7A-69F8-4375-AD2E-AC5103CCF536";
shapes = (
{
closed = 1;
nodes = (
(252,383,l),
(395,611,l),
(354,611,l),
(402,383,l),
(526,383,l),
(469,673,l),
(304,673,l),
(122,383,l)
);
}
);
width = 600;
},
{
background = {
shapes = (
{
closed = 1;
nodes = (
(142,383,l),
(219,612,l),
(207,612,l),
(284,383,l),
(366,383,l),
(266,673,l),
(160,673,l),
(60,383,l)
);
}
);
};
layerId = "574EE4B9-5C1A-4E7E-9985-C08FACB65BD8";
shapes = (
{
closed = 1;
nodes = (
(235,383,l),
(382,612,l),
(370,612,l),
(419,383,l),
(499,383,l),
(440,673,l),
(334,673,l),
(151,383,l)
);
}
);
width = 600;
}
);
unicode = 94;
}
{
glyphname = underscore;
layers = (
{
background = {
shapes = (
{
closed = 1;
nodes = (
(517,-74,l),
(517,-44,l),
(83,-44,l),
(83,-74,l)
);
}
);
};
layerId = "EE2FFE84-06F1-4AFB-BBEC-60D09A436D14";
shapes = (
{
closed = 1;
nodes = (
(438,-30,l),
(444,0,l),
(44,0,l),
(38,-30,l)
);
}
);
width = 600;
},
{
background = {
shapes = (
{
closed = 1;
nodes = (
(534,-122,l),
(534,-44,l),
(66,-44,l),
(66,-122,l)
);
}
);
};
layerId = "574EE4B9-5C1A-4E7E-9985-C08FACB65BD8";
shapes = (
{
closed = 1;
nodes = (
(447,-78,l),
(464,0,l),
(24,0,l),
(7,-78,l)
);
}
);
width = 600;
},
{
background = {
shapes = (
{
closed = 1;
nodes = (
(549,-161,l),
(549,-32,l),
(51,-32,l),
(51,-161,l)
);
}
);
};
layerId = "58B1DC7A-69F8-4375-AD2E-AC5103CCF536";
shapes = (
{
closed = 1;
nodes = (
(451,-150,l),
(483,0,l),
(3,0,l),
(-29,-150,l)
);
}
);
width = 600;
}
);
unicode = 95;
}
{
color = 9;
glyphname = grave;
layers = (
{
layerId = "EE2FFE84-06F1-4AFB-BBEC-60D09A436D14";
shapes = (
{
closed = 1;
nodes = (
(360,500,l),
(308,726,l),
(268,726,l),
(332,500,l)
);
}
);
width = 600;
},
{
layerId = "574EE4B9-5C1A-4E7E-9985-C08FACB65BD8";
shapes = (
{
closed = 1;
nodes = (
(410,500,l),
(376,728,l),
(258,728,l),
(330,500,l)
);
}
);
width = 600;
},
{
layerId = "58B1DC7A-69F8-4375-AD2E-AC5103CCF536";
shapes = (
{
closed = 1;
nodes = (
(449,500,l),
(420,740,l),
(220,740,l),
(279,500,l)
);
}
);
width = 600;
}
);
unicode = 96;
}
{
glyphname = a;
layers = (
{
anchors = (
{
name = bottom;
pos = (196,0);
},
{
name = ogonek;
pos = (524,0);
},
{
name = top;
pos = (328,530);
}
);
background = {
shapes = (
{
closed = 1;
nodes = (
(430,346,l),
(430,173,o),
(324,18,o),
(190,18,cs),
(102,18,o),
(54,70,o),
(54,182,cs),
(54,364,o),
(163,512,o),
(299,512,cs),
(328,512,o),
(353,504,o),
(374,488,c),
(385,520,l),
(363,534,o),
(337,542,o),
(305,542,cs),
(146,542,o),
(22,380,o),
(22,174,cs),
(22,56,o),
(80,-12,o),
(184,-12,cs),
(282,-12,o),
(368,60,o),
(418,169,c),
(405,170,l),
(395,131,o),
(390,94,o),
(390,70,cs),
(390,16,o),
(423,0,o),
(459,0,cs),
(514,0,l),
(520,30,l),
(466,30,ls),
(431,30,o),
(418,43,o),
(418,72,cs),
(418,97,o),
(423,136,o),
(430,168,cs),
(507,530,l),
(477,530,l),
(450,402,l)
);
}
);
};
layerId = "EE2FFE84-06F1-4AFB-BBEC-60D09A436D14";
shapes = (
{
closed = 1;
nodes = (
(296,-12,o),
(364,60,o),
(415,191,c),
(405,192,l),
(395,141,o),
(386,92,o),
(386,66,cs),
(386,14,o),
(419,0,o),
(455,0,cs),
(524,0,l),
(530,30,l),
(462,30,ls),
(427,30,o),
(414,43,o),
(414,72,cs),
(414,97,o),
(419,136,o),
(426,168,cs),
(503,530,l),
(325,530,ls),
(161,530,o),
(42,380,o),
(42,174,cs),
(42,56,o),
(100,-12,o),
(194,-12,cs)
);
},
{
closed = 1;
nodes = (
(122,18,o),
(74,70,o),
(74,182,cs),
(74,364,o),
(183,502,o),
(319,502,cs),
(467,502,l),
(429,316,ls),
(391,131,o),
(306,18,o),
(198,18,cs)
);
}
);
width = 600;
},
{
anchors = (
{
name = bottom;
pos = (205,0);
},
{
name = ogonek;
pos = (524,0);
},
{
name = top;
pos = (334,530);
}
);
background = {
shapes = (
{
closed = 1;
nodes = (
(286,-12,o),
(353,38,o),
(400,148,c),
(388,148,l),
(380,115,o),
(376,89,o),
(376,69,cs),
(376,12,o),
(406,0,o),
(450,0,cs),
(504,0,l),
(519,74,l),
(470,74,ls),
(452,74,o),
(443,80,o),
(443,92,cs),
(443,104,o),
(448,126,o),
(454,152,cs),
(534,530,l),
(450,530,l),
(436,456,l),
(422,504,o),
(380,542,o),
(314,542,cs),
(144,542,o),
(34,378,o),
(34,188,cs),
(34,66,o),
(90,-12,o),
(194,-12,cs)
);
},
{
closed = 1;
nodes = (
(154,68,o),
(122,110,o),
(122,200,cs),
(122,340,o),
(195,462,o),
(303,462,cs),
(369,462,o),
(408,422,o),
(408,342,cs),
(408,189,o),
(334,68,o),
(216,68,cs)
);
}
);
};
layerId = "574EE4B9-5C1A-4E7E-9985-C08FACB65BD8";
shapes = (
{
closed = 1;
nodes = (
(282,-12,o),
(345,44,o),
(396,157,c),
(386,157,l),
(374,121,o),
(364,90,o),
(364,68,cs),
(364,18,o),
(386,0,o),
(438,0,cs),
(524,0,l),
(539,74,l),
(458,74,ls),
(440,74,o),
(431,80,o),
(431,92,cs),
(431,104,o),
(436,126,o),
(442,152,cs),
(522,530,l),
(334,530,ls),
(154,530,o),
(43,380,o),
(43,180,cs),
(43,68,o),
(100,-12,o),
(192,-12,cs)
);
},
{
closed = 1;
nodes = (
(162,68,o),
(131,106,o),
(131,190,cs),
(131,340,o),
(205,456,o),
(323,456,cs),
(425,456,l),
(396,304,ls),
(367,150,o),
(308,68,o),
(216,68,cs)
);
}
);
width = 600;
},
{
anchors = (
{
name = bottom;
pos = (179,0);
},
{
name = ogonek;
pos = (524,0);
},
{
name = top;
pos = (380,540);
}
);
background = {
shapes = (
{
closed = 1;
nodes = (
(257,-12,o),
(346,66,o),
(388,166,c),
(368,168,l),
(352,145,o),
(338,98,o),
(338,68,cs),
(338,28,o),
(361,0,o),
(418,0,cs),
(516,0,l),
(544,120,l),
(518,120,ls),
(506,120,o),
(498,124,o),
(498,138,cs),
(498,154,o),
(505,187,o),
(512,218,cs),
(585,540,l),
(419,540,l),
(396,450,l),
(386,508,o),
(354,552,o),
(278,552,cs),
(127,552,o),
(15,377,o),
(15,168,cs),
(15,46,o),
(65,-12,o),
(152,-12,cs)
);
},
{
closed = 1;
nodes = (
(214,134,o),
(196,159,o),
(196,209,cs),
(196,321,o),
(249,406,o),
(309,406,cs),
(345,406,o),
(372,377,o),
(372,321,cs),
(372,224,o),
(314,134,o),
(251,134,cs)
);
}
);
};
layerId = "58B1DC7A-69F8-4375-AD2E-AC5103CCF536";
shapes = (
{
closed = 1;
nodes = (
(273,-12,o),
(354,88,o),
(388,168,c),
(368,172,l),
(356,148,o),
(340,88,o),
(340,56,cs),
(340,20,o),
(355,0,o),
(408,0,cs),
(524,0,l),
(552,120,l),
(512,120,ls),
(500,120,o),
(492,124,o),
(492,138,cs),
(492,154,o),
(499,187,o),
(506,218,cs),
(579,540,l),
(336,540,ls),
(135,540,o),
(25,377,o),
(25,168,cs),
(25,46,o),
(77,-12,o),
(160,-12,cs)
);
},
{
closed = 1;
nodes = (
(214,134,o),
(201,156,o),
(201,206,cs),
(201,318,o),
(250,410,o),
(340,410,cs),
(388,410,l),
(364,292,ls),
(340,174,o),
(298,134,o),
(244,134,cs)
);
}
);
width = 600;
}
);
unicode = 97;
}
{
glyphname = b;
layers = (
{
anchors = (
{
name = bottom;
pos = (230,0);
},
{
name = top;
pos = (350,530);
}
);
background = {
shapes = (
{
closed = 1;
nodes = (
(374,-12,o),
(482,95,o),
(518,265,cs),
(553,433,o),
(492,542,o),
(356,542,cs),
(268,542,o),
(187,482,o),
(141,400,c),
(207,710,l),
(177,710,l),
(26,0,l),
(48,0,l),
(80,134,l),
(92,53,o),
(146,-12,o),
(238,-12,cs)
);
},
{
closed = 1;
nodes = (
(134,18,o),
(82,119,o),
(113,265,cs),
(143,408,o),
(239,512,o),
(349,512,cs),
(465,512,o),
(518,415,o),
(486,265,cs),
(453,113,o),
(360,18,o),
(244,18,cs)
);
}
);
};
layerId = "EE2FFE84-06F1-4AFB-BBEC-60D09A436D14";
shapes = (
{
closed = 1;
nodes = (
(404,-12,o),
(528,150,o),
(528,356,cs),
(528,474,o),
(470,542,o),
(358,542,cs),
(251,542,o),
(163,470,o),
(115,361,c),
(129,356,l),
(205,710,l),
(175,710,l),
(24,0,l),
(48,0,l),
(80,144,l),
(75,140,l),
(87,55,o),
(137,-12,o),
(231,-12,cs)
);
},
{
closed = 1;
nodes = (
(155,18,o),
(101,80,o),
(101,184,cs),
(101,357,o),
(209,512,o),
(352,512,cs),
(448,512,o),
(496,460,o),
(496,348,cs),
(496,166,o),
(387,18,o),
(237,18,cs)
);
}
);
width = 600;
},
{
anchors = (
{
name = bottom;
pos = (219,0);
},
{
name = top;
pos = (331,530);
}
);
background = {
shapes = (
{
closed = 1;
nodes = (
(389,-12,o),
(499,95,o),
(535,265,cs),
(571,435,o),
(507,542,o),
(367,542,cs),
(293,542,o),
(225,500,o),
(190,456,c),
(244,710,l),
(160,710,l),
(9,0,l),
(85,0,l),
(105,80,l),
(122,22,o),
(175,-12,o),
(249,-12,cs)
);
},
{
closed = 1;
nodes = (
(165,68,o),
(123,144,o),
(149,265,cs),
(175,388,o),
(249,462,o),
(347,462,cs),
(434,462,o),
(473,388,o),
(447,265,cs),
(421,144,o),
(350,68,o),
(261,68,cs)
);
}
);
};
layerId = "574EE4B9-5C1A-4E7E-9985-C08FACB65BD8";
shapes = (
{
closed = 1;
nodes = (
(424,-12,o),
(542,152,o),
(542,342,cs),
(542,462,o),
(480,542,o),
(362,542,cs),
(268,542,o),
(205,490,o),
(164,416,c),
(180,412,l),
(243,710,l),
(159,710,l),
(8,0,l),
(84,0,l),
(116,117,l),
(100,102,l),
(105,42,o),
(157,-12,o),
(236,-12,cs)
);
},
{
closed = 1;
nodes = (
(181,68,o),
(138,110,o),
(138,192,cs),
(138,360,o),
(230,462,o),
(340,462,cs),
(416,462,o),
(453,420,o),
(452,330,cs),
(451,190,o),
(373,68,o),
(247,68,cs)
);
}
);
width = 600;
},
{
anchors = (
{
name = bottom;
pos = (228,0);
},
{
name = top;
pos = (343,540);
}
);
background = {
shapes = (
{
closed = 1;
nodes = (
(423,-12,o),
(527,88,o),
(565,270,cs),
(604,452,o),
(543,552,o),
(421,552,cs),
(346,552,o),
(284,519,o),
(246,463,c),
(299,710,l),
(129,710,l),
(-22,0,l),
(144,0,l),
(167,88,l),
(181,32,o),
(222,-12,o),
(301,-12,cs)
);
},
{
closed = 1;
nodes = (
(216,134,o),
(186,180,o),
(205,270,cs),
(224,360,o),
(273,406,o),
(328,406,cs),
(391,406,o),
(409,361,o),
(389,270,cs),
(370,179,o),
(333,134,o),
(270,134,cs)
);
}
);
};
layerId = "58B1DC7A-69F8-4375-AD2E-AC5103CCF536";
shapes = (
{
closed = 1;
nodes = (
(453,-12,o),
(572,147,o),
(572,362,cs),
(572,482,o),
(523,552,o),
(418,552,cs),
(330,552,o),
(266,506,o),
(225,430,c),
(237,420,l),
(299,710,l),
(129,710,l),
(-22,0,l),
(143,0,l),
(178,145,l),
(155,131,l),
(154,40,o),
(210,-12,o),
(290,-12,cs)
);
},
{
closed = 1;
nodes = (
(217,134,o),
(198,158,o),
(198,206,cs),
(198,318,o),
(247,406,o),
(331,406,cs),
(369,406,o),
(396,376,o),
(396,328,cs),
(396,216,o),
(339,134,o),
(255,134,cs)
);
}
);
width = 600;
}
);
unicode = 98;
}
{
glyphname = c;
layers = (
{
anchors = (
{
name = bottom;
pos = (252,0);
},
{
name = top;
pos = (364,530);
}
);
background = {
shapes = (
{
closed = 1;
nodes = (
(366,-12,o),
(454,67,o),
(501,175,c),
(470,178,l),
(428,78,o),
(350,18,o),
(262,18,cs),
(144,18,o),
(90,113,o),
(122,265,cs),
(154,417,o),
(250,512,o),
(368,512,cs),
(456,512,o),
(503,457,o),
(507,363,c),
(539,365,l),
(535,465,o),
(484,542,o),
(374,542,cs),
(224,542,o),
(122,415,o),
(90,265,cs),
(58,115,o),
(106,-12,o),
(256,-12,cs)
);
}
);
};
layerId = "EE2FFE84-06F1-4AFB-BBEC-60D09A436D14";
shapes = (
{
closed = 1;
nodes = (
(368,-12,o),
(447,65,o),
(491,175,c),
(460,178,l),
(420,78,o),
(344,18,o),
(256,18,cs),
(160,18,o),
(114,80,o),
(114,185,cs),
(114,362,o),
(226,512,o),
(364,512,cs),
(450,512,o),
(497,459,o),
(497,363,c),
(529,365,l),
(529,465,o),
(474,542,o),
(368,542,cs),
(208,542,o),
(82,379,o),
(82,181,cs),
(82,70,o),
(131,-12,o),
(250,-12,cs)
);
}
);
width = 600;
},
{
anchors = (
{
name = bottom;
pos = (252,0);
},
{
name = top;
pos = (364,530);
}
);
background = {
shapes = (
{
closed = 1;
nodes = (
(373,-12,o),
(475,64,o),
(522,182,c),
(436,188,l),
(403,108,o),
(340,68,o),
(272,68,cs),
(174,68,o),
(132,142,o),
(158,265,cs),
(184,388,o),
(258,462,o),
(356,462,cs),
(424,462,o),
(465,422,o),
(466,352,c),
(556,358,l),
(559,476,o),
(491,542,o),
(373,542,cs),
(225,542,o),
(106,433,o),
(70,265,cs),
(34,97,o),
(107,-12,o),
(255,-12,cs)
);
}
);
};
layerId = "574EE4B9-5C1A-4E7E-9985-C08FACB65BD8";
shapes = (
{
closed = 1;
nodes = (
(371,-12,o),
(466,58,o),
(512,182,c),
(426,188,l),
(393,108,o),
(335,68,o),
(267,68,cs),
(187,68,o),
(151,113,o),
(151,199,cs),
(151,342,o),
(238,462,o),
(350,462,cs),
(426,462,o),
(457,428,o),
(457,352,c),
(547,358,l),
(547,474,o),
(484,542,o),
(366,542,cs),
(188,542,o),
(63,383,o),
(63,186,cs),
(63,62,o),
(131,-12,o),
(251,-12,cs)
);
}
);
width = 600;
},
{
anchors = (
{
name = bottom;
pos = (250,0);
},
{
name = top;
pos = (364,540);
}
);
background = {
shapes = (
{
closed = 1;
nodes = (
(380,-12,o),
(506,77,o),
(549,210,c),
(385,218,l),
(362,164,o),
(325,134,o),
(279,134,cs),
(220,134,o),
(196,186,o),
(214,270,cs),
(232,354,o),
(278,406,o),
(337,406,cs),
(382,406,o),
(407,377,o),
(407,324,c),
(575,332,l),
(588,463,o),
(498,552,o),
(366,552,cs),
(209,552,o),
(73,436,o),
(38,270,cs),
(3,104,o),
(89,-12,o),
(246,-12,cs)
);
}
);
};
layerId = "58B1DC7A-69F8-4375-AD2E-AC5103CCF536";
shapes = (
{
closed = 1;
nodes = (
(396,-12,o),
(502,77,o),
(537,210,c),
(373,218,l),
(358,164,o),
(325,134,o),
(279,134,cs),
(244,134,o),
(221,163,o),
(221,218,cs),
(221,326,o),
(276,406,o),
(336,406,cs),
(376,406,o),
(395,381,o),
(395,324,c),
(563,332,l),
(563,470,o),
(488,552,o),
(364,552,cs),
(170,552,o),
(45,402,o),
(45,200,cs),
(45,73,o),
(122,-12,o),
(246,-12,cs)
);
}
);
width = 600;
}
);
unicode = 99;
}
{
glyphname = d;
layers = (
{
anchors = (
{
name = bottom;
pos = (264,0);
},
{
name = center;
pos = (545,618);
},
{
name = top;
pos = (384,530);
},
{
name = topright;
pos = (602,530);
}
);
background = {
shapes = (
{
closed = 1;
nodes = (
(337,-12,o),
(419,53,o),
(465,134,c),
(439,0,l),
(461,0,l),
(612,710,l),
(582,710,l),
(516,400,l),
(506,482,o),
(451,542,o),
(363,542,cs),
(227,542,o),
(118,433,o),
(83,265,cs),
(47,95,o),
(109,-12,o),
(245,-12,cs)
);
},
{
closed = 1;
nodes = (
(135,18,o),
(82,113,o),
(115,265,cs),
(147,415,o),
(240,512,o),
(356,512,cs),
(466,512,o),
(518,408,o),
(488,265,cs),
(457,119,o),
(361,18,o),
(251,18,cs)
);
}
);
};
layerId = "EE2FFE84-06F1-4AFB-BBEC-60D09A436D14";
shapes = (
{
closed = 1;
nodes = (
(339,-12,o),
(424,58,o),
(469,143,c),
(467,148,l),
(437,0,l),
(460,0,l),
(611,710,l),
(581,710,l),
(512,386,l),
(516,390,l),
(510,477,o),
(454,542,o),
(362,542,cs),
(202,542,o),
(76,378,o),
(76,176,cs),
(76,57,o),
(135,-12,o),
(244,-12,cs)
);
},
{
closed = 1;
nodes = (
(154,18,o),
(108,76,o),
(108,182,cs),
(108,362,o),
(223,512,o),
(355,512,cs),
(441,512,o),
(495,447,o),
(495,341,cs),
(495,169,o),
(378,18,o),
(246,18,cs)
);
}
);
width = 600;
},
{
anchors = (
{
name = bottom;
pos = (269,0);
},
{
name = center;
pos = (530,616);
},
{
name = top;
pos = (381,530);
},
{
name = topright;
pos = (611,530);
}
);
background = {
shapes = (
{
closed = 1;
nodes = (
(307,-12,o),
(374,22,o),
(417,80,c),
(403,0,l),
(479,0,l),
(630,710,l),
(546,710,l),
(492,456,l),
(475,500,o),
(425,542,o),
(351,542,cs),
(146,542,o),
(55,323,o),
(55,178,cs),
(55,59,o),
(119,-12,o),
(233,-12,cs)
);
},
{
closed = 1;
nodes = (
(184,68,o),
(145,116,o),
(145,197,cs),
(145,291,o),
(201,462,o),
(337,462,cs),
(416,462,o),
(459,414,o),
(459,331,cs),
(459,235,o),
(401,68,o),
(255,68,cs)
);
}
);
};
layerId = "574EE4B9-5C1A-4E7E-9985-C08FACB65BD8";
shapes = (
{
closed = 1;
nodes = (
(316,-12,o),
(391,34,o),
(432,105,c),
(424,122,l),
(402,0,l),
(478,0,l),
(629,710,l),
(545,710,l),
(483,416,l),
(497,431,l),
(488,497,o),
(424,542,o),
(350,542,cs),
(188,542,o),
(58,386,o),
(58,178,cs),
(58,58,o),
(123,-12,o),
(233,-12,cs)
);
},
{
closed = 1;
nodes = (
(183,68,o),
(146,110,o),
(146,196,cs),
(146,340,o),
(236,462,o),
(336,462,cs),
(413,462,o),
(458,415,o),
(458,331,cs),
(458,187,o),
(365,68,o),
(255,68,cs)
);
}
);
width = 600;
},
{
anchors = (
{
name = bottom;
pos = (256,0);
},
{
name = center;
pos = (498,622);
},
{
name = top;
pos = (371,540);
},
{
name = topright;
pos = (621,540);
}
);
background = {
shapes = (
{
closed = 1;
nodes = (
(249,-12,o),
(314,24,o),
(357,88,c),
(342,0,l),
(508,0,l),
(659,710,l),
(489,710,l),
(436,463,l),
(422,520,o),
(373,552,o),
(299,552,cs),
(150,552,o),
(24,377,o),
(24,170,cs),
(24,54,o),
(80,-12,o),
(179,-12,cs)
);
},
{
closed = 1;
nodes = (
(226,134,o),
(204,158,o),
(204,209,cs),
(204,320,o),
(259,406,o),
(330,406,cs),
(376,406,o),
(401,375,o),
(401,320,cs),
(401,222,o),
(340,134,o),
(272,134,cs)
);
}
);
};
layerId = "58B1DC7A-69F8-4375-AD2E-AC5103CCF536";
shapes = (
{
closed = 1;
nodes = (
(263,-12,o),
(341,41,o),
(381,134,c),
(368,156,l),
(341,0,l),
(507,0,l),
(658,710,l),
(488,710,l),
(420,395,l),
(439,414,l),
(445,501,o),
(391,552,o),
(298,552,cs),
(149,552,o),
(27,386,o),
(27,172,cs),
(27,56,o),
(79,-12,o),
(178,-12,cs)
);
},
{
closed = 1;
nodes = (
(225,134,o),
(203,158,o),
(203,209,cs),
(203,319,o),
(258,406,o),
(329,406,cs),
(375,406,o),
(400,377,o),
(400,322,cs),
(400,222,o),
(339,134,o),
(271,134,cs)
);
}
);
width = 600;
}
);
unicode = 100;
}
{
glyphname = e;
layers = (
{
anchors = (
{
name = bottom;
pos = (253,0);
},
{
name = ogonek;
pos = (385,25);
},
{
name = top;
pos = (361,530);
}
);
background = {
shapes = (
{
closed = 1;
nodes = (
(359,-12,o),
(448,53,o),
(493,143,c),
(460,145,l),
(422,69,o),
(351,18,o),
(257,18,cs),
(139,18,o),
(81,110,o),
(111,260,c),
(529,260,l),
(531,272,ls),
(562,416,o),
(517,542,o),
(365,542,cs),
(215,542,o),
(112,415,o),
(80,265,cs),
(48,115,o),
(99,-12,o),
(251,-12,cs)
);
},
{
closed = 1;
nodes = (
(153,427,o),
(247,512,o),
(359,512,cs),
(479,512,o),
(527,424,o),
(502,288,c),
(117,288,l)
);
}
);
};
layerId = "EE2FFE84-06F1-4AFB-BBEC-60D09A436D14";
shapes = (
{
closed = 1;
nodes = (
(363,-12,o),
(445,49,o),
(489,143,c),
(456,145,l),
(420,69,o),
(351,18,o),
(251,18,cs),
(157,18,o),
(104,71,o),
(104,187,cs),
(104,368,o),
(215,512,o),
(357,512,cs),
(457,512,o),
(500,452,o),
(500,354,cs),
(500,333,o),
(498,311,o),
(494,288,c),
(108,288,l),
(102,260,l),
(521,260,l),
(527,289,o),
(532,324,o),
(532,354,cs),
(532,461,o),
(483,542,o),
(363,542,cs),
(185,542,o),
(72,379,o),
(72,183,cs),
(72,68,o),
(126,-12,o),
(245,-12,cs)
);
}
);
width = 600;
},
{
anchors = (
{
name = bottom;
pos = (253,0);
},
{
name = ogonek;
pos = (387,24);
},
{
name = top;
pos = (362,528);
}
);
background = {
shapes = (
{
closed = 1;
nodes = (
(362,-12,o),
(458,55,o),
(507,150,c),
(418,157,l),
(389,103,o),
(336,68,o),
(267,68,cs),
(175,68,o),
(130,125,o),
(148,239,c),
(534,239,l),
(540,264,ls),
(578,442,o),
(502,542,o),
(364,542,cs),
(218,542,o),
(102,433,o),
(66,265,cs),
(30,97,o),
(100,-12,o),
(250,-12,cs)
);
},
{
closed = 1;
nodes = (
(199,411,o),
(265,462,o),
(347,462,cs),
(425,462,o),
(472,415,o),
(458,313,c),
(164,313,l)
);
}
);
};
layerId = "574EE4B9-5C1A-4E7E-9985-C08FACB65BD8";
shapes = (
{
closed = 1;
nodes = (
(379,-12,o),
(460,55,o),
(504,150,c),
(415,157,l),
(392,101,o),
(335,68,o),
(266,68,cs),
(187,68,o),
(145,105,o),
(145,194,cs),
(145,344,o),
(230,462,o),
(348,462,cs),
(419,462,o),
(458,427,o),
(458,361,cs),
(458,338,o),
(456,325,o),
(454,313,c),
(151,313,l),
(135,239,l),
(530,239,l),
(540,274,o),
(546,316,o),
(546,354,cs),
(546,478,o),
(481,542,o),
(363,542,cs),
(175,542,o),
(57,383,o),
(57,182,cs),
(57,60,o),
(129,-12,o),
(249,-12,cs)
);
}
);
width = 600;
},
{
anchors = (
{
name = bottom;
pos = (246,0);
},
{
name = ogonek;
pos = (371,6);
},
{
name = top;
pos = (356,539);
}
);
background = {
shapes = (
{
closed = 1;
nodes = (
(366,-12,o),
(461,49,o),
(529,173,c),
(365,184,l),
(347,153,o),
(313,134,o),
(276,134,cs),
(226,134,o),
(198,169,o),
(203,226,c),
(553,226,l),
(561,266,ls),
(597,434,o),
(514,552,o),
(360,552,cs),
(206,552,o),
(73,436,o),
(38,270,cs),
(1,98,o),
(89,-12,o),
(240,-12,cs)
);
},
{
closed = 1;
nodes = (
(244,379,o),
(280,406,o),
(327,406,cs),
(374,406,o),
(398,379,o),
(394,331,c),
(228,331,l)
);
}
);
};
layerId = "58B1DC7A-69F8-4375-AD2E-AC5103CCF536";
shapes = (
{
closed = 1;
nodes = (
(405,-12,o),
(487,56,o),
(533,164,c),
(359,178,l),
(349,143,o),
(313,134,o),
(273,134,cs),
(236,134,o),
(200,148,o),
(200,206,cs),
(200,336,o),
(249,406,o),
(335,406,cs),
(383,406,o),
(400,382,o),
(400,356,cs),
(400,342,o),
(398,334,o),
(396,324,c),
(202,324,l),
(180,220,l),
(552,220,l),
(562,254,o),
(570,302,o),
(570,352,cs),
(570,469,o),
(498,552,o),
(359,552,cs),
(155,552,o),
(30,400,o),
(30,192,cs),
(30,70,o),
(95,-12,o),
(247,-12,cs)
);
}
);
width = 600;
}
);
unicode = 101;
}
{
glyphname = f;
layers = (
{
anchors = (
{
name = bottom;
pos = (221,0);
},
{
name = top;
pos = (371,710);
}
);
background = {
shapes = (
{
closed = 1;
nodes = (
(200,0,l),
(326,597,ls),
(338,650,o),
(369,682,o),
(433,682,cs),
(599,682,l),
(604,710,l),
(434,710,ls),
(354,710,o),
(312,669,o),
(297,600,cs),
(170,0,l)
);
},
{
closed = 1;
nodes = (
(560,502,l),
(566,530,l),
(116,530,l),
(110,502,l)
);
}
);
};
layerId = "EE2FFE84-06F1-4AFB-BBEC-60D09A436D14";
shapes = (
{
closed = 1;
nodes = (
(193,-150,l),
(351,597,ls),
(362,650,o),
(394,682,o),
(458,682,cs),
(629,682,l),
(634,710,l),
(459,710,ls),
(379,710,o),
(337,669,o),
(322,600,cs),
(166,-136,l),
(183,-122,l),
(-10,-122,l),
(-16,-150,l)
);
},
{
closed = 1;
nodes = (
(590,502,l),
(596,530,l),
(116,530,l),
(110,502,l)
);
}
);
width = 600;
},
{
anchors = (
{
name = bottom;
pos = (290,0);
},
{
name = top;
pos = (441,710);
}
);
background = {
shapes = (
{
closed = 1;
nodes = (
(296,0,l),
(416,564,ls),
(425,608,o),
(453,636,o),
(495,636,cs),
(665,636,l),
(681,710,l),
(511,710,ls),
(411,710,o),
(352,658,o),
(332,564,cs),
(212,0,l)
);
},
{
closed = 1;
nodes = (
(617,456,l),
(633,530,l),
(183,530,l),
(167,456,l)
);
}
);
};
layerId = "574EE4B9-5C1A-4E7E-9985-C08FACB65BD8";
shapes = (
{
closed = 1;
nodes = (
(228,-150,l),
(380,564,ls),
(389,608,o),
(417,636,o),
(459,636,cs),
(624,636,l),
(640,710,l),
(475,710,ls),
(375,710,o),
(316,659,o),
(296,564,cs),
(152,-116,l),
(201,-76,l),
(-17,-76,l),
(-32,-150,l)
);
},
{
closed = 1;
nodes = (
(576,456,l),
(592,530,l),
(127,530,l),
(111,456,l)
);
}
);
width = 600;
},
{
anchors = (
{
name = bottom;
pos = (254,0);
},
{
name = top;
pos = (405,710);
}
);
background = {
shapes = (
{
closed = 1;
nodes = (
(360,0,l),
(475,540,ls),
(481,568,o),
(496,580,o),
(533,580,cs),
(663,580,l),
(691,710,l),
(509,710,ls),
(392,710,o),
(330,659,o),
(305,542,cs),
(190,0,l)
);
},
{
closed = 1;
nodes = (
(627,410,l),
(655,540,l),
(175,540,l),
(147,410,l)
);
}
);
};
layerId = "58B1DC7A-69F8-4375-AD2E-AC5103CCF536";
shapes = (
{
closed = 1;
nodes = (
(290,-150,l),
(438,544,ls),
(444,572,o),
(456,580,o),
(491,580,cs),
(615,580,l),
(643,710,l),
(471,710,ls),
(354,710,o),
(292,661,o),
(268,546,cs),
(134,-88,l),
(217,-20,l),
(-12,-20,l),
(-39,-150,l)
);
},
{
closed = 1;
nodes = (
(579,410,l),
(607,540,l),
(108,540,l),
(80,410,l)
);
}
);
width = 600;
}
);
unicode = 102;
}
{
color = 3;
glyphname = g;
kernLeft = "0";
kernRight = "0";
layers = (
{
anchors = (
{
name = bottom;
pos = (212,-150);
},
{
name = top;
pos = (356,530);
}
);
background = {
shapes = (
{
closed = 1;
nodes = (
(346,-162,o),
(444,-80,o),
(473,55,cs),
(574,530,l),
(544,530,l),
(517,402,l),
(506,482,o),
(452,542,o),
(360,542,cs),
(226,542,o),
(120,441,o),
(87,285,cs),
(53,125,o),
(116,25,o),
(250,25,cs),
(340,25,o),
(416,79,o),
(465,159,c),
(443,57,ls),
(418,-63,o),
(335,-132,o),
(220,-132,cs),
(122,-132,o),
(71,-80,o),
(83,-4,c),
(51,-6,l),
(36,-96,o),
(103,-162,o),
(214,-162,cs)
);
},
{
closed = 1;
nodes = (
(143,55,o),
(89,144,o),
(119,285,cs),
(148,423,o),
(240,512,o),
(354,512,cs),
(466,512,o),
(519,415,o),
(492,285,cs),
(462,144,o),
(369,55,o),
(257,55,cs)
);
}
);
};
layerId = "EE2FFE84-06F1-4AFB-BBEC-60D09A436D14";
shapes = (
{
closed = 1;
nodes = (
(398,48,o),
(505,212,o),
(505,352,cs),
(505,472,o),
(440,542,o),
(332,542,cs),
(168,542,o),
(61,378,o),
(61,238,cs),
(61,118,o),
(126,48,o),
(234,48,cs)
);
},
{
closed = 1;
nodes = (
(146,78,o),
(93,130,o),
(93,244,cs),
(93,370,o),
(192,512,o),
(326,512,cs),
(420,512,o),
(473,460,o),
(473,346,cs),
(473,220,o),
(374,78,o),
(240,78,cs)
);
},
{
closed = 1;
nodes = (
(590,502,l),
(596,530,l),
(386,530,l),
(410,502,l)
);
},
{
closed = 1;
nodes = (
(406,-150,l),
(412,-122,l),
(129,-122,ls),
(75,-122,o),
(51,-95,o),
(51,-58,cs),
(51,-9,o),
(93,34,o),
(141,80,c),
(121,98,l),
(74,54,o),
(21,2,o),
(21,-64,cs),
(21,-120,o),
(61,-150,o),
(123,-150,cs)
);
}
);
width = 600;
},
{
anchors = (
{
name = bottom;
pos = (212,-150);
},
{
name = top;
pos = (356,530);
}
);
background = {
shapes = (
{
closed = 1;
nodes = (
(374,-162,o),
(455,-116,o),
(487,36,cs),
(592,530,l),
(512,530,l),
(494,446,l),
(483,505,o),
(438,542,o),
(350,542,cs),
(170,542,o),
(63,388,o),
(63,218,cs),
(63,98,o),
(126,28,o),
(244,28,cs),
(328,28,o),
(383,64,o),
(421,120,c),
(403,34,ls),
(385,-50,o),
(340,-82,o),
(230,-82,cs),
(137,-82,o),
(112,-55,o),
(112,-2,c),
(23,-8,l),
(23,-104,o),
(82,-162,o),
(214,-162,cs)
);
},
{
closed = 1;
nodes = (
(176,108,o),
(152,146,o),
(152,226,cs),
(152,360,o),
(226,462,o),
(340,462,cs),
(422,462,o),
(463,416,o),
(463,346,cs),
(464,232,o),
(393,108,o),
(262,108,cs)
);
}
);
};
layerId = "574EE4B9-5C1A-4E7E-9985-C08FACB65BD8";
shapes = (
{
closed = 1;
nodes = (
(427,28,o),
(521,196,o),
(521,356,cs),
(521,466,o),
(453,542,o),
(337,542,cs),
(143,542,o),
(48,374,o),
(48,214,cs),
(48,104,o),
(117,28,o),
(233,28,cs)
);
},
{
closed = 1;
nodes = (
(175,108,o),
(136,142,o),
(136,228,cs),
(136,352,o),
(209,462,o),
(325,462,cs),
(395,462,o),
(433,426,o),
(433,342,cs),
(433,218,o),
(361,108,o),
(245,108,cs)
);
},
{
closed = 1;
nodes = (
(590,456,l),
(606,530,l),
(401,530,l),
(425,456,l)
);
},
{
closed = 1;
nodes = (
(452,-150,l),
(468,-76,l),
(147,-76,ls),
(115,-76,o),
(93,-60,o),
(93,-30,cs),
(93,6,o),
(115,40,o),
(172,96,c),
(126,140,l),
(56,75,o),
(5,17,o),
(5,-57,cs),
(5,-117,o),
(46,-150,o),
(125,-150,cs)
);
}
);
width = 600;
},
{
anchors = (
{
name = bottom;
pos = (211,-150);
},
{
name = top;
pos = (357,540);
}
);
background = {
shapes = (
{
closed = 1;
nodes = (
(368,-162,o),
(490,-84,o),
(526,84,cs),
(623,540,l),
(457,540,l),
(436,460,l),
(420,520,o),
(379,552,o),
(309,552,cs),
(183,552,o),
(74,450,o),
(38,282,cs),
(6,131,o),
(76,28,o),
(200,28,cs),
(279,28,o),
(327,59,o),
(360,104,c),
(350,58,ls),
(338,0,o),
(299,-32,o),
(237,-32,cs),
(201,-32,o),
(182,-20,o),
(178,2,c),
(-2,-8,l),
(2,-102,o),
(68,-162,o),
(210,-162,cs)
);
},
{
closed = 1;
nodes = (
(221,156,o),
(196,195,o),
(215,287,cs),
(235,379,o),
(278,422,o),
(338,422,cs),
(390,422,o),
(419,379,o),
(399,287,cs),
(380,195,o),
(333,156,o),
(281,156,cs)
);
}
);
};
layerId = "58B1DC7A-69F8-4375-AD2E-AC5103CCF536";
shapes = (
{
closed = 1;
nodes = (
(456,38,o),
(546,199,o),
(546,349,cs),
(546,479,o),
(469,552,o),
(340,552,cs),
(126,552,o),
(32,390,o),
(32,240,cs),
(32,110,o),
(111,38,o),
(242,38,cs)
);
},
{
closed = 1;
nodes = (
(233,184,o),
(210,206,o),
(210,262,cs),
(210,342,o),
(255,406,o),
(314,406,cs),
(352,406,o),
(368,383,o),
(368,327,cs),
(368,247,o),
(326,184,o),
(268,184,cs)
);
},
{
closed = 1;
nodes = (
(599,410,l),
(627,540,l),
(389,540,l),
(381,410,l)
);
},
{
closed = 1;
nodes = (
(461,-150,l),
(488,-20,l),
(197,-20,ls),
(177,-20,o),
(164,-12,o),
(164,10,cs),
(164,40,o),
(193,73,o),
(233,108,c),
(107,158,l),
(24,87,o),
(-10,27,o),
(-10,-36,cs),
(-10,-108,o),
(29,-150,o),
(126,-150,cs)
);
}
);
width = 600;
}
);
unicode = 103;
}
{
glyphname = h;
layers = (
{
anchors = (
{
name = bottom;
pos = (231,0);
},
{
name = center;
pos = (232,618);
},
{
name = top;
pos = (217,710);
}
);
background = {
shapes = (
{
closed = 1;
nodes = (
(81,0,l),
(148,317,ls),
(173,431,o),
(254,512,o),
(364,512,cs),
(474,512,o),
(499,432,o),
(474,317,cs),
(407,0,l),
(437,0,l),
(510,341,ls),
(533,453,o),
(497,542,o),
(378,542,cs),
(282,542,o),
(189,489,o),
(159,385,c),
(163,385,l),
(232,710,l),
(202,710,l),
(51,0,l)
);
}
);
};
layerId = "EE2FFE84-06F1-4AFB-BBEC-60D09A436D14";
shapes = (
{
closed = 1;
nodes = (
(79,0,l),
(146,317,ls),
(170,431,o),
(252,512,o),
(358,512,cs),
(455,512,o),
(489,464,o),
(489,406,cs),
(489,366,o),
(483,340,o),
(475,302,cs),
(410,0,l),
(440,0,l),
(503,298,ls),
(511,336,o),
(519,370,o),
(519,410,cs),
(519,485,o),
(474,542,o),
(368,542,cs),
(276,542,o),
(187,486,o),
(151,380,c),
(159,380,l),
(229,710,l),
(199,710,l),
(49,0,l)
);
}
);
width = 600;
},
{
anchors = (
{
name = bottom;
pos = (234,0);
},
{
name = center;
pos = (251,616);
},
{
name = top;
pos = (228,710);
}
);
background = {
shapes = (
{
closed = 1;
nodes = (
(118,0,l),
(185,316,ls),
(206,414,o),
(274,468,o),
(359,468,cs),
(433,468,o),
(459,419,o),
(437,317,cs),
(370,0,l),
(454,0,l),
(527,341,ls),
(552,459,o),
(506,542,o),
(392,542,cs),
(309,542,o),
(235,503,o),
(196,415,c),
(206,413,l),
(269,710,l),
(185,710,l),
(34,0,l)
);
}
);
};
layerId = "574EE4B9-5C1A-4E7E-9985-C08FACB65BD8";
shapes = (
{
closed = 1;
nodes = (
(117,0,l),
(184,316,ls),
(205,413,o),
(272,468,o),
(356,468,cs),
(420,468,o),
(449,441,o),
(449,392,cs),
(449,365,o),
(445,340,o),
(440,317,cs),
(372,0,l),
(456,0,l),
(521,306,ls),
(527,332,o),
(535,374,o),
(535,406,cs),
(535,485,o),
(489,542,o),
(386,542,cs),
(300,542,o),
(232,500,o),
(192,416,c),
(204,412,l),
(267,710,l),
(183,710,l),
(33,0,l)
);
}
);
width = 600;
},
{
anchors = (
{
name = bottom;
pos = (243,0);
},
{
name = center;
pos = (275,622);
},
{
name = top;
pos = (254,710);
}
);
background = {
shapes = (
{
closed = 1;
nodes = (
(177,0,l),
(242,304,ls),
(257,376,o),
(297,410,o),
(337,410,cs),
(372,410,o),
(392,389,o),
(377,318,cs),
(309,0,l),
(479,0,l),
(553,349,ls),
(580,475,o),
(550,552,o),
(442,552,cs),
(364,552,o),
(302,519,o),
(259,442,c),
(268,427,l),
(328,710,l),
(158,710,l),
(7,0,l)
);
}
);
};
layerId = "58B1DC7A-69F8-4375-AD2E-AC5103CCF536";
shapes = (
{
closed = 1;
nodes = (
(178,0,l),
(241,298,ls),
(258,378,o),
(292,410,o),
(340,410,cs),
(369,410,o),
(382,390,o),
(382,366,cs),
(382,343,o),
(374,304,o),
(368,278,cs),
(308,0,l),
(478,0,l),
(536,270,ls),
(549,330,o),
(562,391,o),
(562,444,cs),
(562,502,o),
(529,552,o),
(436,552,cs),
(352,552,o),
(283,508,o),
(241,410,c),
(265,410,l),
(330,710,l),
(158,710,l),
(8,0,l)
);
}
);
width = 600;
}
);
unicode = 104;
}
{
glyphname = k;
layers = (
{
anchors = (
{
name = bottom;
pos = (248,0);
},
{
name = top;
pos = (200,710);
}
);
background = {
shapes = (
{
closed = 1;
nodes = (
(56,0,l),
(207,710,l),
(177,710,l),
(26,0,l)
);
},
{
closed = 1;
nodes = (
(462,0,l),
(268,307,l),
(244,289,l),
(426,0,l)
);
},
{
closed = 1;
nodes = (
(556,530,l),
(514,530,l),
(85,187,l),
(77,149,l)
);
}
);
};
layerId = "EE2FFE84-06F1-4AFB-BBEC-60D09A436D14";
shapes = (
{
closed = 1;
nodes = (
(64,0,l),
(215,710,l),
(185,710,l),
(34,0,l)
);
},
{
closed = 1;
nodes = (
(474,0,l),
(278,311,l),
(254,293,l),
(438,0,l)
);
},
{
closed = 1;
nodes = (
(568,530,l),
(526,530,l),
(94,190,l),
(86,150,l)
);
}
);
width = 600;
},
{
anchors = (
{
name = bottom;
pos = (241,0);
},
{
name = top;
pos = (218,710);
}
);
background = {
shapes = (
{
closed = 1;
nodes = (
(96,0,l),
(247,710,l),
(163,710,l),
(12,0,l)
);
},
{
closed = 1;
nodes = (
(476,0,l),
(315,318,l),
(246,261,l),
(374,0,l)
);
},
{
closed = 1;
nodes = (
(579,530,l),
(467,530,l),
(135,233,l),
(112,126,l)
);
}
);
};
layerId = "574EE4B9-5C1A-4E7E-9985-C08FACB65BD8";
shapes = (
{
closed = 1;
nodes = (
(108,0,l),
(259,710,l),
(175,710,l),
(24,0,l)
);
},
{
closed = 1;
nodes = (
(484,0,l),
(323,318,l),
(256,261,l),
(384,0,l)
);
},
{
closed = 1;
nodes = (
(587,530,l),
(475,530,l),
(144,243,l),
(122,126,l)
);
}
);
width = 600;
},
{
anchors = (
{
name = bottom;
pos = (241,0);
},
{
name = top;
pos = (229,710);
}
);
background = {
shapes = (
{
closed = 1;
nodes = (
(143,0,l),
(294,710,l),
(124,710,l),
(-27,0,l)
);
},
{
closed = 1;
nodes = (
(513,0,l),
(364,321,l),
(232,213,l),
(323,0,l)
);
},
{
closed = 1;
nodes = (
(620,540,l),
(426,540,l),
(202,328,l),
(160,130,l)
);
}
);
};
layerId = "58B1DC7A-69F8-4375-AD2E-AC5103CCF536";
shapes = (
{
closed = 1;
nodes = (
(163,0,l),
(314,710,l),
(144,710,l),
(-7,0,l)
);
},
{
closed = 1;
nodes = (
(521,0,l),
(370,324,l),
(244,214,l),
(333,0,l)
);
},
{
closed = 1;
nodes = (
(637,540,l),
(433,540,l),
(202,334,l),
(160,118,l)
);
}
);
width = 600;
}
);
unicode = 107;
}
{
glyphname = l;
layers = (
{
anchors = (
{
name = bottom;
pos = (248,0);
},
{
name = center;
pos = (318,356);
},
{
name = top;
pos = (375,710);
},
{
name = topright;
pos = (447,530);
}
);
background = {
shapes = (
{
closed = 1;
nodes = (
(465,0,l),
(470,28,l),
(322,28,ls),
(272,28,o),
(259,47,o),
(269,97,cs),
(399,710,l),
(369,710,l),
(239,97,ls),
(225,30,o),
(249,0,o),
(317,0,cs)
);
},
{
closed = 1;
nodes = (
(386,682,l),
(391,710,l),
(175,710,l),
(170,682,l)
);
}
);
};
layerId = "EE2FFE84-06F1-4AFB-BBEC-60D09A436D14";
shapes = (
{
closed = 1;
nodes = (
(494,0,l),
(500,28,l),
(315,28,ls),
(278,28,o),
(265,42,o),
(265,62,cs),
(265,85,o),
(271,114,o),
(279,150,cs),
(399,710,l),
(145,710,l),
(140,682,l),
(377,682,l),
(366,696,l),
(249,148,ls),
(242,114,o),
(235,84,o),
(235,56,cs),
(235,17,o),
(259,0,o),
(311,0,cs)
);
}
);
width = 600;
},
{
anchors = (
{
name = bottom;
pos = (240,0);
},
{
name = center;
pos = (310,396);
},
{
name = top;
pos = (375,710);
},
{
name = topright;
pos = (457,530);
}
);
background = {
shapes = (
{
closed = 1;
nodes = (
(485,0,l),
(500,74,l),
(341,74,ls),
(300,74,o),
(286,93,o),
(295,136,cs),
(417,710,l),
(333,710,l),
(211,136,ls),
(193,49,o),
(234,0,o),
(326,0,cs)
);
},
{
closed = 1;
nodes = (
(390,636,l),
(405,710,l),
(155,710,l),
(140,636,l)
);
}
);
};
layerId = "574EE4B9-5C1A-4E7E-9985-C08FACB65BD8";
shapes = (
{
closed = 1;
nodes = (
(503,0,l),
(519,74,l),
(335,74,ls),
(307,74,o),
(293,85,o),
(293,106,cs),
(293,124,o),
(297,146,o),
(303,173,cs),
(417,710,l),
(135,710,l),
(120,636,l),
(358,636,l),
(325,676,l),
(221,184,ls),
(213,146,o),
(205,106,o),
(205,80,cs),
(205,28,o),
(234,0,o),
(313,0,cs)
);
}
);
width = 600;
},
{
anchors = (
{
name = bottom;
pos = (248,0);
},
{
name = center;
pos = (320,360);
},
{
name = top;
pos = (374,710);
},
{
name = topright;
pos = (447,540);
}
);
background = {
shapes = (
{
closed = 1;
nodes = (
(505,0,l),
(532,130,l),
(400,130,ls),
(362,130,o),
(348,148,o),
(356,186,cs),
(467,710,l),
(297,710,l),
(185,180,ls),
(158,56,o),
(203,0,o),
(327,0,cs)
);
},
{
closed = 1;
nodes = (
(425,580,l),
(452,710,l),
(135,710,l),
(108,580,l)
);
}
);
};
layerId = "58B1DC7A-69F8-4375-AD2E-AC5103CCF536";
shapes = (
{
closed = 1;
nodes = (
(513,0,l),
(540,130,l),
(413,130,ls),
(373,130,o),
(356,146,o),
(356,170,cs),
(356,190,o),
(363,223,o),
(373,268,cs),
(467,710,l),
(124,710,l),
(97,580,l),
(338,580,l),
(283,648,l),
(203,268,ls),
(190,207,o),
(178,152,o),
(178,107,cs),
(178,35,o),
(215,0,o),
(312,0,cs)
);
}
);
width = 600;
}
);
unicode = 108;
}
{
glyphname = m;
layers = (
{
anchors = (
{
name = bottom;
pos = (244,0);
},
{
name = top;
pos = (357,530);
}
);
background = {
shapes = (
{
closed = 1;
nodes = (
(24,0,l),
(96,340,ls),
(116,433,o),
(183,512,o),
(243,512,cs),
(307,512,o),
(324,448,o),
(301,340,cs),
(229,0,l),
(259,0,l),
(331,340,ls),
(352,436,o),
(420,512,o),
(481,512,cs),
(544,512,o),
(563,466,o),
(539,352,cs),
(464,0,l),
(494,0,l),
(569,354,ls),
(597,484,o),
(571,542,o),
(491,542,cs),
(419,542,o),
(360,482,o),
(319,364,c),
(331,364,l),
(348,482,o),
(325,542,o),
(253,542,cs),
(185,542,o),
(135,487,o),
(97,382,c),
(105,380,l),
(135,530,l),
(107,530,l),
(-6,0,l)
);
}
);
};
layerId = "EE2FFE84-06F1-4AFB-BBEC-60D09A436D14";
shapes = (
{
closed = 1;
nodes = (
(24,0,l),
(96,340,ls),
(116,433,o),
(181,512,o),
(245,512,cs),
(289,512,o),
(311,480,o),
(311,420,cs),
(311,397,o),
(307,370,o),
(301,340,cs),
(229,0,l),
(259,0,l),
(331,340,ls),
(351,434,o),
(420,512,o),
(486,512,cs),
(527,512,o),
(549,487,o),
(549,434,cs),
(549,412,o),
(546,384,o),
(539,352,cs),
(464,0,l),
(494,0,l),
(568,348,ls),
(573,372,o),
(580,410,o),
(580,440,cs),
(580,509,o),
(550,542,o),
(491,542,cs),
(419,542,o),
(359,482,o),
(319,364,c),
(330,364,l),
(334,389,o),
(336,413,o),
(336,432,cs),
(336,504,o),
(310,542,o),
(253,542,cs),
(185,542,o),
(135,487,o),
(97,382,c),
(105,380,l),
(135,530,l),
(107,530,l),
(-6,0,l)
);
}
);
width = 600;
},
{
anchors = (
{
name = bottom;
pos = (247,0);
},
{
name = top;
pos = (383,530);
}
);
background = {
shapes = (
{
closed = 1;
nodes = (
(68,0,l),
(140,338,ls),
(159,428,o),
(197,468,o),
(239,468,cs),
(283,468,o),
(293,430,o),
(274,340,cs),
(202,0,l),
(286,0,l),
(358,338,ls),
(377,428,o),
(415,468,o),
(457,468,cs),
(499,468,o),
(512,434,o),
(492,340,cs),
(420,0,l),
(504,0,l),
(579,352,ls),
(608,488,o),
(582,542,o),
(497,542,cs),
(433,542,o),
(378,490,o),
(349,408,c),
(359,408,l),
(369,496,o),
(345,542,o),
(283,542,cs),
(222,542,o),
(170,492,o),
(142,414,c),
(151,412,l),
(174,530,l),
(97,530,l),
(-16,0,l)
);
}
);
};
layerId = "574EE4B9-5C1A-4E7E-9985-C08FACB65BD8";
shapes = (
{
closed = 1;
nodes = (
(68,0,l),
(140,338,ls),
(159,428,o),
(197,468,o),
(239,468,cs),
(269,468,o),
(283,450,o),
(283,412,cs),
(283,393,o),
(280,369,o),
(274,340,cs),
(202,0,l),
(286,0,l),
(358,338,ls),
(377,428,o),
(415,468,o),
(457,468,cs),
(486,468,o),
(501,450,o),
(501,412,cs),
(501,393,o),
(498,369,o),
(492,340,cs),
(420,0,l),
(504,0,l),
(576,338,ls),
(582,368,o),
(590,404,o),
(590,440,cs),
(590,511,o),
(560,542,o),
(498,542,cs),
(431,542,o),
(378,490,o),
(349,408,c),
(358,408,l),
(360,421,o),
(361,437,o),
(361,448,cs),
(361,508,o),
(336,542,o),
(283,542,cs),
(222,542,o),
(170,492,o),
(142,414,c),
(151,412,l),
(174,530,l),
(97,530,l),
(-16,0,l)
);
}
);
width = 600;
},
{
anchors = (
{
name = bottom;
pos = (244,0);
},
{
name = top;
pos = (383,540);
}
);
background = {
shapes = (
{
closed = 1;
nodes = (
(119,0,l),
(193,348,ls),
(203,393,o),
(215,410,o),
(236,410,cs),
(253,410,o),
(258,398,o),
(247,348,cs),
(173,0,l),
(313,0,l),
(387,348,ls),
(397,393,o),
(412,410,o),
(431,410,cs),
(447,410,o),
(453,401,o),
(441,348,cs),
(367,0,l),
(523,0,l),
(605,386,ls),
(629,496,o),
(605,552,o),
(531,552,cs),
(467,552,o),
(409,508,o),
(373,414,c),
(391,414,l),
(399,508,o),
(387,552,o),
(319,552,cs),
(264,552,o),
(218,511,o),
(178,417,c),
(190,413,l),
(211,540,l),
(78,540,l),
(-37,0,l)
);
}
);
};
layerId = "58B1DC7A-69F8-4375-AD2E-AC5103CCF536";
shapes = (
{
closed = 1;
nodes = (
(119,0,l),
(193,348,ls),
(203,393,o),
(215,410,o),
(236,410,cs),
(247,410,o),
(253,405,o),
(253,388,cs),
(253,379,o),
(251,366,o),
(247,348,cs),
(173,0,l),
(313,0,l),
(387,348,ls),
(397,393,o),
(412,410,o),
(431,410,cs),
(441,410,o),
(447,406,o),
(447,390,cs),
(447,381,o),
(445,367,o),
(441,348,cs),
(367,0,l),
(523,0,l),
(605,386,ls),
(611,413,o),
(614,437,o),
(614,458,cs),
(614,520,o),
(587,552,o),
(531,552,cs),
(467,552,o),
(409,508,o),
(373,414,c),
(391,414,l),
(392,430,o),
(393,445,o),
(393,458,cs),
(393,522,o),
(375,552,o),
(319,552,cs),
(264,552,o),
(218,511,o),
(178,417,c),
(190,413,l),
(211,540,l),
(78,540,l),
(-37,0,l)
);
}
);
width = 600;
}
);
unicode = 109;
}
{
glyphname = n;
layers = (
{
anchors = (
{
name = bottom;
pos = (246,0);
},
{
name = top;
pos = (361,530);
}
);
background = {
shapes = (
{
closed = 1;
nodes = (
(78,0,l),
(145,317,ls),
(170,431,o),
(255,512,o),
(365,512,cs),
(475,512,o),
(502,431,o),
(477,317,cs),
(410,0,l),
(440,0,l),
(512,341,ls),
(536,453,o),
(497,542,o),
(377,542,cs),
(282,542,o),
(187,488,o),
(155,384,c),
(160,384,l),
(189,530,l),
(161,530,l),
(48,0,l)
);
}
);
};
layerId = "EE2FFE84-06F1-4AFB-BBEC-60D09A436D14";
shapes = (
{
closed = 1;
nodes = (
(74,0,l),
(142,317,ls),
(166,431,o),
(252,512,o),
(360,512,cs),
(456,512,o),
(493,466,o),
(493,408,cs),
(493,368,o),
(487,340,o),
(479,302,cs),
(414,0,l),
(444,0,l),
(507,298,ls),
(515,336,o),
(523,370,o),
(523,412,cs),
(523,485,o),
(472,542,o),
(370,542,cs),
(273,542,o),
(183,488,o),
(151,384,c),
(156,384,l),
(185,530,l),
(157,530,l),
(44,0,l)
);
}
);
width = 600;
},
{
anchors = (
{
name = bottom;
pos = (247,0);
},
{
name = top;
pos = (360,530);
}
);
background = {
shapes = (
{
closed = 1;
nodes = (
(112,0,l),
(179,317,ls),
(200,415,o),
(275,468,o),
(357,468,cs),
(437,468,o),
(464,415,o),
(443,317,cs),
(376,0,l),
(460,0,l),
(532,341,ls),
(556,453,o),
(512,542,o),
(391,542,cs),
(308,542,o),
(224,498,o),
(184,404,c),
(192,395,l),
(218,530,l),
(141,530,l),
(28,0,l)
);
}
);
};
layerId = "574EE4B9-5C1A-4E7E-9985-C08FACB65BD8";
shapes = (
{
closed = 1;
nodes = (
(112,0,l),
(180,317,ls),
(201,415,o),
(270,468,o),
(356,468,cs),
(423,468,o),
(453,441,o),
(453,394,cs),
(453,365,o),
(449,340,o),
(444,317,cs),
(376,0,l),
(460,0,l),
(525,306,ls),
(531,332,o),
(539,374,o),
(539,408,cs),
(539,485,o),
(492,542,o),
(386,542,cs),
(299,542,o),
(224,498,o),
(184,404,c),
(192,395,l),
(218,530,l),
(141,530,l),
(28,0,l)
);
}
);
width = 600;
},
{
anchors = (
{
name = bottom;
pos = (240,0);
},
{
name = top;
pos = (355,540);
}
);
background = {
shapes = (
{
closed = 1;
nodes = (
(177,0,l),
(242,306,ls),
(257,376,o),
(299,410,o),
(337,410,cs),
(376,410,o),
(390,384,o),
(376,316,cs),
(309,0,l),
(479,0,l),
(553,351,ls),
(579,473,o),
(551,552,o),
(440,552,cs),
(348,552,o),
(276,502,o),
(234,390,c),
(249,386,l),
(277,540,l),
(122,540,l),
(7,0,l)
);
}
);
};
layerId = "58B1DC7A-69F8-4375-AD2E-AC5103CCF536";
shapes = (
{
closed = 1;
nodes = (
(173,0,l),
(238,306,ls),
(253,376,o),
(296,410,o),
(338,410,cs),
(371,410,o),
(386,388,o),
(386,362,cs),
(386,350,o),
(384,333,o),
(380,316,cs),
(313,0,l),
(483,0,l),
(552,328,ls),
(560,364,o),
(566,399,o),
(566,428,cs),
(566,506,o),
(526,552,o),
(440,552,cs),
(348,552,o),
(272,502,o),
(230,390,c),
(245,386,l),
(273,540,l),
(118,540,l),
(3,0,l)
);
}
);
width = 600;
}
);
unicode = 110;
}
{
glyphname = o;
layers = (
{
anchors = (
{
name = bottom;
pos = (244,0);
},
{
name = center;
pos = (300,265);
},
{
name = ogonek;
pos = (319,0);
},
{
name = top;
pos = (356,530);
}
);
background = {
shapes = (
{
closed = 1;
nodes = (
(379,-12,o),
(486,95,o),
(522,265,cs),
(558,435,o),
(497,542,o),
(359,542,cs),
(221,542,o),
(114,435,o),
(78,265,cs),
(42,95,o),
(103,-12,o),
(241,-12,cs)
);
},
{
closed = 1;
nodes = (
(128,18,o),
(78,113,o),
(110,265,cs),
(142,417,o),
(234,512,o),
(353,512,cs),
(472,512,o),
(522,417,o),
(490,265,cs),
(458,113,o),
(366,18,o),
(247,18,cs)
);
}
);
};
layerId = "EE2FFE84-06F1-4AFB-BBEC-60D09A436D14";
shapes = (
{
closed = 1;
nodes = (
(425,-12,o),
(532,156,o),
(532,352,cs),
(532,472,o),
(467,542,o),
(359,542,cs),
(175,542,o),
(68,374,o),
(68,178,cs),
(68,58,o),
(133,-12,o),
(241,-12,cs)
);
},
{
closed = 1;
nodes = (
(153,18,o),
(100,70,o),
(100,184,cs),
(100,370,o),
(203,512,o),
(353,512,cs),
(447,512,o),
(500,460,o),
(500,346,cs),
(500,160,o),
(397,18,o),
(247,18,cs)
);
}
);
width = 600;
},
{
anchors = (
{
name = bottom;
pos = (244,0);
},
{
name = center;
pos = (300,265);
},
{
name = ogonek;
pos = (321,0);
},
{
name = top;
pos = (356,530);
}
);
background = {
shapes = (
{
closed = 1;
nodes = (
(387,-12,o),
(506,96,o),
(542,265,cs),
(578,434,o),
(505,542,o),
(359,542,cs),
(212,542,o),
(94,434,o),
(58,265,cs),
(22,96,o),
(94,-12,o),
(241,-12,cs)
);
},
{
closed = 1;
nodes = (
(160,68,o),
(120,142,o),
(146,265,cs),
(172,388,o),
(244,462,o),
(342,462,cs),
(439,462,o),
(480,388,o),
(454,265,cs),
(428,142,o),
(355,68,o),
(258,68,cs)
);
}
);
};
layerId = "574EE4B9-5C1A-4E7E-9985-C08FACB65BD8";
shapes = (
{
closed = 1;
nodes = (
(437,-12,o),
(551,166,o),
(551,356,cs),
(551,466,o),
(483,542,o),
(357,542,cs),
(163,542,o),
(49,364,o),
(49,174,cs),
(49,64,o),
(117,-12,o),
(243,-12,cs)
);
},
{
closed = 1;
nodes = (
(175,68,o),
(137,102,o),
(137,188,cs),
(137,342,o),
(229,462,o),
(345,462,cs),
(425,462,o),
(463,426,o),
(463,342,cs),
(463,188,o),
(371,68,o),
(255,68,cs)
);
}
);
width = 600;
},
{
anchors = (
{
name = bottom;
pos = (243,0);
},
{
name = center;
pos = (300,270);
},
{
name = ogonek;
pos = (485,10);
},
{
name = top;
pos = (357,540);
}
);
background = {
shapes = (
{
closed = 1;
nodes = (
(396,-12,o),
(525,98,o),
(562,270,cs),
(599,442,o),
(516,552,o),
(360,552,cs),
(204,552,o),
(75,442,o),
(38,270,cs),
(1,98,o),
(84,-12,o),
(240,-12,cs)
);
},
{
closed = 1;
nodes = (
(215,134,o),
(195,180,o),
(214,270,cs),
(233,360,o),
(273,406,o),
(329,406,cs),
(385,406,o),
(405,360,o),
(386,270,cs),
(367,180,o),
(327,134,o),
(271,134,cs)
);
}
);
};
layerId = "58B1DC7A-69F8-4375-AD2E-AC5103CCF536";
shapes = (
{
closed = 1;
nodes = (
(470,-12,o),
(571,149,o),
(571,349,cs),
(571,479,o),
(492,552,o),
(354,552,cs),
(130,552,o),
(29,390,o),
(29,190,cs),
(29,60,o),
(108,-12,o),
(246,-12,cs)
);
},
{
closed = 1;
nodes = (
(230,134,o),
(207,156,o),
(207,212,cs),
(207,322,o),
(259,406,o),
(328,406,cs),
(370,406,o),
(393,383,o),
(393,327,cs),
(393,217,o),
(340,134,o),
(272,134,cs)
);
}
);
width = 600;
}
);
unicode = 111;
}
{
glyphname = p;
layers = (
{
anchors = (
{
name = bottom;
pos = (236,0);
},
{
name = top;
pos = (349,530);
}
);
background = {
shapes = (
{
closed = 1;
nodes = (
(46,-150,l),
(115,173,l),
(106,162,l),
(101,74,o),
(166,-12,o),
(266,-12,cs),
(398,-12,o),
(504,95,o),
(540,265,cs),
(576,435,o),
(516,542,o),
(382,542,cs),
(284,542,o),
(195,476,o),
(144,360,c),
(152,355,l),
(187,530,l),
(161,530,l),
(16,-150,l)
);
},
{
closed = 1;
nodes = (
(162,18,o),
(105,125,o),
(135,265,cs),
(164,405,o),
(265,512,o),
(375,512,cs),
(489,512,o),
(540,417,o),
(508,265,cs),
(475,113,o),
(385,18,o),
(272,18,cs)
);
}
);
};
layerId = "EE2FFE84-06F1-4AFB-BBEC-60D09A436D14";
shapes = (
{
closed = 1;
nodes = (
(22,-150,l),
(91,173,l),
(82,162,l),
(77,74,o),
(142,-12,o),
(234,-12,cs),
(404,-12,o),
(528,149,o),
(528,356,cs),
(528,472,o),
(464,542,o),
(360,542,cs),
(256,542,o),
(170,474,o),
(120,360,c),
(128,355,l),
(163,530,l),
(137,530,l),
(-8,-150,l)
);
},
{
closed = 1;
nodes = (
(162,18,o),
(101,80,o),
(101,184,cs),
(101,357,o),
(212,512,o),
(352,512,cs),
(446,512,o),
(496,460,o),
(496,348,cs),
(496,166,o),
(384,18,o),
(240,18,cs)
);
}
);
width = 600;
},
{
anchors = (
{
name = bottom;
pos = (228,0);
},
{
name = top;
pos = (340,530);
}
);
background = {
shapes = (
{
closed = 1;
nodes = (
(90,-150,l),
(147,114,l),
(132,100,l),
(135,32,o),
(196,-12,o),
(278,-12,cs),
(436,-12,o),
(534,119,o),
(565,265,cs),
(596,411,o),
(554,542,o),
(396,542,cs),
(314,542,o),
(238,498,o),
(195,416,c),
(205,410,l),
(229,530,l),
(151,530,l),
(6,-150,l)
);
},
{
closed = 1;
nodes = (
(194,68,o),
(151,135,o),
(179,265,cs),
(206,395,o),
(279,462,o),
(371,462,cs),
(463,462,o),
(503,389,o),
(477,265,cs),
(450,141,o),
(379,68,o),
(287,68,cs)
);
}
);
};
layerId = "574EE4B9-5C1A-4E7E-9985-C08FACB65BD8";
shapes = (
{
closed = 1;
nodes = (
(60,-150,l),
(116,114,l),
(102,102,l),
(108,34,o),
(164,-12,o),
(244,-12,cs),
(410,-12,o),
(542,134,o),
(542,342,cs),
(542,461,o),
(482,542,o),
(365,542,cs),
(283,542,o),
(208,498,o),
(164,416,c),
(175,410,l),
(198,530,l),
(120,530,l),
(-24,-150,l)
);
},
{
closed = 1;
nodes = (
(184,68,o),
(140,110,o),
(140,192,cs),
(140,360,o),
(232,462,o),
(342,462,cs),
(418,462,o),
(453,420,o),
(452,330,cs),
(451,190,o),
(372,68,o),
(248,68,cs)
);
}
);
width = 600;
},
{
anchors = (
{
name = bottom;
pos = (257,0);
},
{
name = top;
pos = (372,540);
}
);
background = {
shapes = (
{
closed = 1;
nodes = (
(135,-150,l),
(193,123,l),
(175,110,l),
(191,24,o),
(236,-12,o),
(323,-12,cs),
(454,-12,o),
(550,105,o),
(585,270,cs),
(620,435,o),
(574,552,o),
(443,552,cs),
(353,552,o),
(290,504,o),
(245,420,c),
(256,414,l),
(278,540,l),
(112,540,l),
(-35,-150,l)
);
},
{
closed = 1;
nodes = (
(238,134,o),
(204,174,o),
(225,270,cs),
(245,366,o),
(296,406,o),
(348,406,cs),
(406,406,o),
(430,370,o),
(409,270,cs),
(387,170,o),
(348,134,o),
(290,134,cs)
);
}
);
};
layerId = "58B1DC7A-69F8-4375-AD2E-AC5103CCF536";
shapes = (
{
closed = 1;
nodes = (
(135,-150,l),
(193,123,l),
(175,110,l),
(191,24,o),
(236,-12,o),
(323,-12,cs),
(470,-12,o),
(596,164,o),
(596,369,cs),
(596,486,o),
(541,552,o),
(443,552,cs),
(353,552,o),
(290,504,o),
(245,420,c),
(256,414,l),
(278,540,l),
(112,540,l),
(-35,-150,l)
);
},
{
closed = 1;
nodes = (
(237,134,o),
(218,158,o),
(218,206,cs),
(218,318,o),
(267,406,o),
(351,406,cs),
(389,406,o),
(416,376,o),
(416,328,cs),
(416,216,o),
(359,134,o),
(275,134,cs)
);
}
);
width = 600;
}
);
unicode = 112;
}
{
glyphname = q;
layers = (
{
anchors = (
{
name = bottom;
pos = (364,0);
},
{
name = top;
pos = (476,530);
}
);
background = {
shapes = (
{
closed = 1;
nodes = (
(572,530,l),
(546,530,l),
(507,355,l),
(518,360,l),
(517,476,o),
(456,542,o),
(358,542,cs),
(159,542,o),
(74,320,o),
(74,174,cs),
(74,58,o),
(131,-12,o),
(238,-12,cs),
(338,-12,o),
(440,74,o),
(472,162,c),
(467,173,l),
(398,-150,l),
(428,-150,l)
);
},
{
closed = 1;
nodes = (
(152,18,o),
(106,76,o),
(106,182,cs),
(106,362,o),
(221,512,o),
(353,512,cs),
(439,512,o),
(493,447,o),
(493,341,cs),
(493,169,o),
(376,18,o),
(244,18,cs)
);
}
);
};
layerId = "EE2FFE84-06F1-4AFB-BBEC-60D09A436D14";
shapes = (
{
closed = 1;
nodes = (
(572,530,l),
(546,530,l),
(507,355,l),
(518,360,l),
(518,472,o),
(456,542,o),
(358,542,cs),
(198,542,o),
(76,380,o),
(76,174,cs),
(76,58,o),
(131,-12,o),
(238,-12,cs),
(338,-12,o),
(440,74,o),
(472,162,c),
(467,173,l),
(398,-150,l),
(428,-150,l)
);
},
{
closed = 1;
nodes = (
(152,18,o),
(108,72,o),
(108,182,cs),
(108,362,o),
(221,512,o),
(353,512,cs),
(443,512,o),
(493,447,o),
(493,348,cs),
(493,171,o),
(376,18,o),
(244,18,cs)
);
}
);
width = 600;
},
{
anchors = (
{
name = bottom;
pos = (371,0);
},
{
name = top;
pos = (484,530);
}
);
background = {
shapes = (
{
closed = 1;
nodes = (
(591,530,l),
(513,530,l),
(485,410,l),
(499,416,l),
(490,498,o),
(434,542,o),
(352,542,cs),
(194,542,o),
(96,411,o),
(65,265,cs),
(59,236,o),
(56,207,o),
(56,180,cs),
(56,72,o),
(108,-12,o),
(234,-12,cs),
(316,-12,o),
(395,32,o),
(428,100,c),
(419,114,l),
(362,-150,l),
(446,-150,l)
);
},
{
closed = 1;
nodes = (
(186,68,o),
(145,114,o),
(145,196,cs),
(145,217,o),
(147,240,o),
(153,265,cs),
(179,389,o),
(251,462,o),
(343,462,cs),
(417,462,o),
(459,419,o),
(459,335,cs),
(459,314,o),
(456,291,o),
(451,265,cs),
(423,135,o),
(352,68,o),
(259,68,cs)
);
}
);
};
layerId = "574EE4B9-5C1A-4E7E-9985-C08FACB65BD8";
shapes = (
{
closed = 1;
nodes = (
(590,530,l),
(512,530,l),
(484,410,l),
(498,416,l),
(489,498,o),
(434,542,o),
(352,542,cs),
(163,542,o),
(58,350,o),
(58,180,cs),
(58,72,o),
(108,-12,o),
(234,-12,cs),
(316,-12,o),
(394,32,o),
(427,100,c),
(418,114,l),
(361,-150,l),
(445,-150,l)
);
},
{
closed = 1;
nodes = (
(183,68,o),
(146,110,o),
(146,196,cs),
(146,340,o),
(236,462,o),
(336,462,cs),
(413,462,o),
(457,415,o),
(457,331,cs),
(457,187,o),
(365,68,o),
(255,68,cs)
);
}
);
width = 600;
},
{
anchors = (
{
name = bottom;
pos = (361,0);
},
{
name = top;
pos = (476,540);
}
);
background = {
shapes = (
{
closed = 1;
nodes = (
(622,540,l),
(456,540,l),
(424,414,l),
(439,420,l),
(428,504,o),
(387,552,o),
(297,552,cs),
(166,552,o),
(70,435,o),
(35,270,cs),
(27,235,o),
(24,201,o),
(24,171,cs),
(24,60,o),
(74,-12,o),
(177,-12,cs),
(264,-12,o),
(323,24,o),
(377,110,c),
(363,123,l),
(305,-150,l),
(475,-150,l)
);
},
{
closed = 1;
nodes = (
(228,134,o),
(203,155,o),
(203,208,cs),
(203,225,o),
(206,246,o),
(211,270,cs),
(232,370,o),
(272,406,o),
(330,406,cs),
(372,406,o),
(401,381,o),
(401,321,cs),
(401,306,o),
(399,289,o),
(395,270,cs),
(374,174,o),
(324,134,o),
(272,134,cs)
);
}
);
};
layerId = "58B1DC7A-69F8-4375-AD2E-AC5103CCF536";
shapes = (
{
closed = 1;
nodes = (
(621,540,l),
(455,540,l),
(423,414,l),
(437,420,l),
(427,504,o),
(385,552,o),
(295,552,cs),
(149,552,o),
(26,378,o),
(26,171,cs),
(26,53,o),
(79,-12,o),
(175,-12,cs),
(262,-12,o),
(322,24,o),
(375,110,c),
(362,123,l),
(304,-150,l),
(474,-150,l)
);
},
{
closed = 1;
nodes = (
(224,134,o),
(202,158,o),
(202,209,cs),
(202,319,o),
(257,406,o),
(328,406,cs),
(374,406,o),
(399,377,o),
(399,322,cs),
(399,222,o),
(338,134,o),
(270,134,cs)
);
}
);
width = 600;
}
);
unicode = 113;
}
{
glyphname = r;
layers = (
{
anchors = (
{
name = bottom;
pos = (202,0);
},
{
name = top;
pos = (365,530);
}
);
background = {
anchors = (
{
name = bottom;
pos = (268,0);
},
{
name = top;
pos = (319,530);
}
);
shapes = (
{
closed = 1;
nodes = (
(283,0,l),
(283,328,ls),
(283,418,o),
(340,500,o),
(420,500,cs),
(520,500,l),
(520,530,l),
(426,530,ls),
(337,530,o),
(294,476,o),
(270,372,c),
(282,364,l),
(277,530,l),
(253,530,l),
(253,0,l)
);
},
{
closed = 1;
nodes = (
(460,0,l),
(460,28,l),
(100,28,l),
(100,0,l)
);
},
{
closed = 1;
nodes = (
(268,502,l),
(268,530,l),
(100,530,l),
(100,502,l)
);
}
);
};
layerId = "EE2FFE84-06F1-4AFB-BBEC-60D09A436D14";
shapes = (
{
closed = 1;
nodes = (
(394,0,l),
(399,28,l),
(223,28,l),
(286,328,ls),
(305,418,o),
(380,500,o),
(460,500,cs),
(560,500,l),
(566,530,l),
(472,530,ls),
(391,530,o),
(340,486,o),
(295,399,c),
(298,396,l),
(323,530,l),
(146,530,l),
(140,502,l),
(293,502,l),
(193,28,l),
(40,28,l),
(35,0,l)
);
}
);
width = 600;
},
{
anchors = (
{
name = bottom;
pos = (198,0);
},
{
name = top;
pos = (380,530);
}
);
background = {
anchors = (
{
name = bottom;
pos = (269,0);
},
{
name = top;
pos = (339,530);
}
);
shapes = (
{
closed = 1;
nodes = (
(312,0,l),
(312,320,ls),
(312,407,o),
(354,454,o),
(432,454,cs),
(540,454,l),
(540,530,l),
(431,530,ls),
(356,530,o),
(311,488,o),
(298,398,c),
(306,396,l),
(298,530,l),
(228,530,l),
(228,0,l)
);
},
{
closed = 1;
nodes = (
(480,0,l),
(480,74,l),
(90,74,l),
(90,0,l)
);
},
{
closed = 1;
nodes = (
(274,456,l),
(274,530,l),
(90,530,l),
(90,456,l)
);
}
);
};
layerId = "574EE4B9-5C1A-4E7E-9985-C08FACB65BD8";
shapes = (
{
closed = 1;
nodes = (
(409,0,l),
(424,74,l),
(257,74,l),
(309,320,ls),
(327,407,o),
(379,454,o),
(457,454,cs),
(566,454,l),
(582,530,l),
(472,530,ls),
(397,530,o),
(343,488,o),
(311,397,c),
(318,389,l),
(339,530,l),
(131,530,l),
(115,456,l),
(253,456,l),
(173,74,l),
(34,74,l),
(19,0,l)
);
}
);
width = 600;
},
{
anchors = (
{
name = bottom;
pos = (204,0);
},
{
name = top;
pos = (382,540);
}
);
background = {
anchors = (
{
name = bottom;
pos = (276,0);
},
{
name = top;
pos = (340,540);
}
);
shapes = (
{
closed = 1;
nodes = (
(344,0,l),
(344,310,ls),
(344,382,o),
(376,416,o),
(450,416,cs),
(560,416,l),
(560,540,l),
(430,540,ls),
(350,540,o),
(302,490,o),
(292,404,c),
(302,406,l),
(290,540,l),
(202,540,l),
(202,0,l)
);
},
{
closed = 1;
nodes = (
(500,0,l),
(500,120,l),
(80,120,l),
(80,0,l)
);
},
{
closed = 1;
nodes = (
(274,420,l),
(274,540,l),
(80,540,l),
(80,420,l)
);
}
);
};
layerId = "58B1DC7A-69F8-4375-AD2E-AC5103CCF536";
shapes = (
{
closed = 1;
nodes = (
(440,0,l),
(467,130,l),
(307,130,l),
(343,300,ls),
(359,372,o),
(398,406,o),
(472,406,cs),
(584,406,l),
(612,540,l),
(484,540,ls),
(390,540,o),
(342,485,o),
(312,383,c),
(322,367,l),
(344,540,l),
(102,540,l),
(75,410,l),
(197,410,l),
(137,130,l),
(15,130,l),
(-12,0,l)
);
}
);
width = 600;
}
);
unicode = 114;
}
{
glyphname = s;
layers = (
{
anchors = (
{
name = bottom;
pos = (304,0);
},
{
name = top;
pos = (406,530);
}
);
background = {
shapes = (
{
closed = 1;
nodes = (
(381,-12,o),
(462,38,o),
(481,130,cs),
(498,208,o),
(461,250,o),
(310,273,cs),
(178,293,o),
(152,320,o),
(167,390,cs),
(183,468,o),
(251,512,o),
(347,512,cs),
(453,512,o),
(493,449,o),
(488,379,c),
(521,385,l),
(523,471,o),
(473,542,o),
(353,542,cs),
(239,542,o),
(154,482,o),
(135,390,cs),
(118,312,o),
(141,271,o),
(290,246,cs),
(446,220,o),
(461,186,o),
(449,128,cs),
(434,56,o),
(370,18,o),
(258,18,cs),
(142,18,o),
(85,75,o),
(98,159,c),
(67,155,l),
(53,61,o),
(116,-12,o),
(252,-12,cs)
);
}
);
};
layerId = "EE2FFE84-06F1-4AFB-BBEC-60D09A436D14";
shapes = (
{
closed = 1;
nodes = (
(408,-12,o),
(491,46,o),
(491,148,cs),
(491,228,o),
(458,264,o),
(310,312,cs),
(224,340,o),
(214,366,o),
(214,410,cs),
(214,458,o),
(250,502,o),
(322,502,cs),
(528,502,l),
(534,530,l),
(326,530,ls),
(227,530,o),
(184,468,o),
(184,408,cs),
(184,352,o),
(206,316,o),
(292,287,cs),
(442,237,o),
(460,210,o),
(460,146,cs),
(460,62,o),
(396,18,o),
(282,18,cs),
(167,18,o),
(100,65,o),
(88,159,c),
(57,155,l),
(71,45,o),
(158,-12,o),
(278,-12,cs)
);
}
);
width = 600;
},
{
anchors = (
{
name = bottom;
pos = (285,0);
},
{
name = top;
pos = (398,530);
}
);
background = {
shapes = (
{
closed = 1;
nodes = (
(371,-12,o),
(473,44,o),
(493,138,cs),
(512,226,o),
(477,269,o),
(319,296,cs),
(226,312,o),
(193,328,o),
(205,382,cs),
(214,427,o),
(258,462,o),
(336,462,cs),
(408,462,o),
(443,422,o),
(443,366,c),
(533,372,l),
(536,464,o),
(485,542,o),
(354,542,cs),
(224,542,o),
(138,474,o),
(119,382,cs),
(101,296,o),
(137,249,o),
(285,222,cs),
(397,202,o),
(417,184,o),
(407,138,cs),
(397,90,o),
(346,68,o),
(268,68,cs),
(184,68,o),
(144,107,o),
(148,173,c),
(59,167,l),
(46,67,o),
(113,-12,o),
(251,-12,cs)
);
}
);
};
layerId = "574EE4B9-5C1A-4E7E-9985-C08FACB65BD8";
shapes = (
{
closed = 1;
nodes = (
(406,-12,o),
(506,60,o),
(506,170,cs),
(506,254,o),
(463,293,o),
(312,328,cs),
(252,342,o),
(242,357,o),
(242,392,cs),
(242,434,o),
(266,456,o),
(318,456,cs),
(518,456,l),
(534,530,l),
(320,530,ls),
(202,530,o),
(154,462,o),
(154,390,cs),
(154,314,o),
(196,273,o),
(290,252,cs),
(396,228,o),
(418,206,o),
(418,162,cs),
(418,98,o),
(356,68,o),
(278,68,cs),
(194,68,o),
(145,99,o),
(137,173,c),
(49,164,l),
(59,59,o),
(144,-12,o),
(272,-12,cs)
);
}
);
width = 600;
},
{
anchors = (
{
name = bottom;
pos = (251,0);
},
{
name = top;
pos = (365,540);
}
);
background = {
shapes = (
{
closed = 1;
nodes = (
(406,-12,o),
(500,52,o),
(522,156,cs),
(541,248,o),
(504,284,o),
(362,318,cs),
(271,340,o),
(255,352,o),
(261,378,cs),
(265,395,o),
(284,416,o),
(329,416,cs),
(375,416,o),
(400,394,o),
(399,360,c),
(566,366,l),
(576,458,o),
(536,552,o),
(356,552,cs),
(197,552,o),
(107,472,o),
(87,378,cs),
(65,273,o),
(116,234,o),
(276,196,cs),
(343,180,o),
(351,171,o),
(347,152,cs),
(343,134,o),
(324,124,o),
(273,124,cs),
(219,124,o),
(203,144,o),
(198,174,c),
(33,169,l),
(21,69,o),
(76,-12,o),
(242,-12,cs)
);
}
);
};
layerId = "58B1DC7A-69F8-4375-AD2E-AC5103CCF536";
shapes = (
{
closed = 1;
nodes = (
(436,-12,o),
(526,70,o),
(526,176,cs),
(526,254,o),
(492,300,o),
(344,336,cs),
(288,350,o),
(270,357,o),
(270,382,cs),
(270,398,o),
(282,410,o),
(305,410,cs),
(547,410,l),
(574,540,l),
(326,540,ls),
(158,540,o),
(102,470,o),
(102,368,cs),
(102,284,o),
(144,242,o),
(264,214,cs),
(340,196,o),
(356,188,o),
(356,160,cs),
(356,130,o),
(329,120,o),
(274,120,cs),
(220,120,o),
(200,136,o),
(196,174,c),
(27,162,l),
(34,46,o),
(108,-12,o),
(252,-12,cs)
);
}
);
width = 600;
}
);
unicode = 115;
}
{
glyphname = t;
layers = (
{
anchors = (
{
name = bottom;
pos = (321,0);
},
{
name = center;
pos = (281,325);
},
{
name = top;
pos = (315,530);
},
{
name = topright;
pos = (421,596);
}
);
background = {
shapes = (
{
closed = 1;
nodes = (
(430,0,l),
(436,28,l),
(290,28,ls),
(241,28,o),
(219,57,o),
(229,108,cs),
(346,654,l),
(316,654,l),
(200,112,ls),
(185,42,o),
(218,0,o),
(288,0,cs)
);
},
{
closed = 1;
nodes = (
(537,502,l),
(543,530,l),
(103,530,l),
(97,502,l)
);
}
);
};
layerId = "EE2FFE84-06F1-4AFB-BBEC-60D09A436D14";
shapes = (
{
closed = 1;
nodes = (
(474,0,l),
(480,28,l),
(285,28,ls),
(248,28,o),
(235,42,o),
(235,62,cs),
(235,85,o),
(241,114,o),
(249,150,cs),
(357,654,l),
(327,654,l),
(219,148,ls),
(212,114,o),
(205,84,o),
(205,56,cs),
(205,17,o),
(229,0,o),
(281,0,cs)
);
},
{
closed = 1;
nodes = (
(580,502,l),
(586,530,l),
(96,530,l),
(90,502,l)
);
}
);
width = 600;
},
{
anchors = (
{
name = bottom;
pos = (296,0);
},
{
name = center;
pos = (286,290);
},
{
name = top;
pos = (347,530);
},
{
name = topright;
pos = (433,616);
}
);
background = {
shapes = (
{
closed = 1;
nodes = (
(450,0,l),
(466,74,l),
(324,74,ls),
(277,74,o),
(260,97,o),
(271,146,cs),
(379,654,l),
(295,654,l),
(187,146,ls),
(165,47,o),
(205,0,o),
(308,0,cs)
);
},
{
closed = 1;
nodes = (
(547,456,l),
(563,530,l),
(93,530,l),
(77,456,l)
);
}
);
};
layerId = "574EE4B9-5C1A-4E7E-9985-C08FACB65BD8";
shapes = (
{
closed = 1;
nodes = (
(483,0,l),
(499,74,l),
(316,74,ls),
(288,74,o),
(274,85,o),
(274,106,cs),
(274,124,o),
(278,146,o),
(284,173,cs),
(387,654,l),
(303,654,l),
(202,184,ls),
(193,146,o),
(186,106,o),
(186,80,cs),
(186,28,o),
(215,0,o),
(294,0,cs)
);
},
{
closed = 1;
nodes = (
(580,456,l),
(596,530,l),
(87,530,l),
(71,456,l)
);
}
);
width = 600;
},
{
anchors = (
{
name = bottom;
pos = (272,0);
},
{
name = center;
pos = (281,278);
},
{
name = top;
pos = (337,540);
},
{
name = topright;
pos = (427,682);
}
);
background = {
shapes = (
{
closed = 1;
nodes = (
(469,0,l),
(497,130,l),
(381,130,ls),
(331,130,o),
(312,154,o),
(322,204,cs),
(421,667,l),
(251,667,l),
(148,182,ls),
(121,58,o),
(167,0,o),
(299,0,cs)
);
},
{
closed = 1;
nodes = (
(556,410,l),
(584,540,l),
(84,540,l),
(56,410,l)
);
}
);
};
layerId = "58B1DC7A-69F8-4375-AD2E-AC5103CCF536";
shapes = (
{
closed = 1;
nodes = (
(493,0,l),
(520,130,l),
(379,130,ls),
(339,130,o),
(322,146,o),
(322,170,cs),
(322,190,o),
(329,223,o),
(339,268,cs),
(425,667,l),
(255,667,l),
(169,268,ls),
(156,207,o),
(143,151,o),
(143,106,cs),
(143,34,o),
(181,0,o),
(278,0,cs)
);
},
{
closed = 1;
nodes = (
(579,410,l),
(607,540,l),
(78,540,l),
(50,410,l)
);
}
);
width = 600;
}
);
unicode = 116;
}
{
glyphname = u;
layers = (
{
anchors = (
{
name = bottom;
pos = (243,0);
},
{
name = ogonek;
pos = (443,0);
},
{
name = top;
pos = (356,530);
}
);
background = {
shapes = (
{
closed = 1;
nodes = (
(329,-12,o),
(411,46,o),
(443,145,c),
(438,145,l),
(410,0,l),
(436,0,l),
(549,530,l),
(519,530,l),
(452,213,ls),
(426,94,o),
(342,18,o),
(236,18,cs),
(138,18,o),
(98,81,o),
(123,202,cs),
(193,530,l),
(163,530,l),
(91,189,ls),
(64,63,o),
(116,-12,o),
(222,-12,cs)
);
}
);
};
layerId = "EE2FFE84-06F1-4AFB-BBEC-60D09A436D14";
shapes = (
{
closed = 1;
nodes = (
(332,-12,o),
(418,46,o),
(450,145,c),
(445,145,l),
(416,0,l),
(443,0,l),
(556,530,l),
(526,530,l),
(458,213,ls),
(433,94,o),
(346,18,o),
(226,18,cs),
(142,18,o),
(108,51,o),
(108,108,cs),
(108,152,o),
(118,208,o),
(126,244,cs),
(187,530,l),
(157,530,l),
(100,263,ls),
(86,195,o),
(78,152,o),
(78,106,cs),
(78,28,o),
(126,-12,o),
(219,-12,cs)
);
}
);
width = 600;
},
{
anchors = (
{
name = bottom;
pos = (239,0);
},
{
name = ogonek;
pos = (463,0);
},
{
name = top;
pos = (352,530);
}
);
background = {
shapes = (
{
closed = 1;
nodes = (
(297,-12,o),
(370,37,o),
(410,124,c),
(398,131,l),
(370,0,l),
(450,0,l),
(563,530,l),
(479,530,l),
(412,214,ls),
(392,119,o),
(329,62,o),
(246,62,cs),
(170,62,o),
(144,109,o),
(166,212,cs),
(233,530,l),
(149,530,l),
(77,189,ls),
(50,63,o),
(102,-12,o),
(207,-12,cs)
);
}
);
};
layerId = "574EE4B9-5C1A-4E7E-9985-C08FACB65BD8";
shapes = (
{
closed = 1;
nodes = (
(307,-12,o),
(383,37,o),
(422,124,c),
(411,131,l),
(383,0,l),
(463,0,l),
(576,530,l),
(492,530,l),
(424,214,ls),
(404,119,o),
(339,62,o),
(239,62,cs),
(174,62,o),
(145,88,o),
(145,133,cs),
(145,166,o),
(150,196,o),
(157,230,cs),
(221,530,l),
(137,530,l),
(75,240,ls),
(67,204,o),
(57,157,o),
(57,118,cs),
(57,39,o),
(108,-12,o),
(207,-12,cs)
);
}
);
width = 600;
},
{
anchors = (
{
name = bottom;
pos = (242,0);
},
{
name = ogonek;
pos = (478,0);
},
{
name = top;
pos = (357,540);
}
);
background = {
shapes = (
{
closed = 1;
nodes = (
(259,-12,o),
(336,53,o),
(372,168,c),
(354,170,l),
(323,0,l),
(478,0,l),
(593,540,l),
(423,540,l),
(357,232,ls),
(342,162,o),
(299,130,o),
(263,130,cs),
(225,130,o),
(209,154,o),
(223,224,cs),
(291,540,l),
(121,540,l),
(45,182,ls),
(17,52,o),
(61,-12,o),
(159,-12,cs)
);
}
);
};
layerId = "58B1DC7A-69F8-4375-AD2E-AC5103CCF536";
shapes = (
{
closed = 1;
nodes = (
(267,-12,o),
(342,47,o),
(379,168,c),
(357,170,l),
(328,0,l),
(478,0,l),
(593,540,l),
(423,540,l),
(361,246,ls),
(344,168,o),
(308,130,o),
(258,130,cs),
(230,130,o),
(218,145,o),
(218,172,cs),
(218,197,o),
(224,225,o),
(230,253,cs),
(291,540,l),
(121,540,l),
(55,229,ls),
(47,192,o),
(40,156,o),
(40,114,cs),
(40,37,o),
(84,-12,o),
(158,-12,cs)
);
}
);
width = 600;
}
);
unicode = 117;
}
{
glyphname = v;
layers = (
{
anchors = (
{
name = bottom;
pos = (244,0);
},
{
name = top;
pos = (356,530);
}
);
background = {
shapes = (
{
closed = 1;
nodes = (
(319,0,l),
(516,530,l),
(484,530,l),
(300,28,l),
(116,530,l),
(84,530,l),
(281,0,l)
);
}
);
};
layerId = "EE2FFE84-06F1-4AFB-BBEC-60D09A436D14";
shapes = (
{
closed = 1;
nodes = (
(263,0,l),
(596,530,l),
(562,530,l),
(248,28,l),
(146,530,l),
(116,530,l),
(225,0,l)
);
}
);
width = 600;
},
{
anchors = (
{
name = bottom;
pos = (244,0);
},
{
name = top;
pos = (356,530);
}
);
background = {
shapes = (
{
closed = 1;
nodes = (
(353,0,l),
(546,530,l),
(454,530,l),
(300,86,l),
(146,530,l),
(54,530,l),
(247,0,l)
);
}
);
};
layerId = "574EE4B9-5C1A-4E7E-9985-C08FACB65BD8";
shapes = (
{
closed = 1;
nodes = (
(297,0,l),
(610,530,l),
(516,530,l),
(259,86,l),
(192,530,l),
(102,530,l),
(191,0,l)
);
}
);
width = 600;
},
{
anchors = (
{
name = bottom;
pos = (243,0);
},
{
name = top;
pos = (357,540);
}
);
background = {
shapes = (
{
closed = 1;
nodes = (
(388,0,l),
(566,540,l),
(414,540,l),
(300,158,l),
(186,540,l),
(34,540,l),
(212,0,l)
);
}
);
};
layerId = "58B1DC7A-69F8-4375-AD2E-AC5103CCF536";
shapes = (
{
closed = 1;
nodes = (
(345,0,l),
(631,540,l),
(445,540,l),
(279,190,l),
(253,540,l),
(83,540,l),
(141,0,l)
);
}
);
width = 600;
}
);
unicode = 118;
}
{
glyphname = w;
layers = (
{
anchors = (
{
name = bottom;
pos = (243,0);
},
{
name = top;
pos = (356,530);
}
);
background = {
shapes = (
{
closed = 1;
nodes = (
(139,0,l),
(331,414,l),
(347,0,l),
(383,0,l),
(626,530,l),
(594,530,l),
(371,30,l),
(356,460,l),
(326,460,l),
(127,30,l),
(118,530,l),
(86,530,l),
(103,0,l)
);
}
);
};
layerId = "EE2FFE84-06F1-4AFB-BBEC-60D09A436D14";
shapes = (
{
closed = 1;
nodes = (
(119,0,l),
(331,414,l),
(367,0,l),
(403,0,l),
(626,530,l),
(593,530,l),
(391,30,l),
(356,460,l),
(326,460,l),
(107,30,l),
(117,530,l),
(86,530,l),
(83,0,l)
);
}
);
width = 600;
},
{
anchors = (
{
name = bottom;
pos = (243,0);
},
{
name = top;
pos = (356,530);
}
);
background = {
shapes = (
{
closed = 1;
nodes = (
(173,0,l),
(314,334,l),
(313,0,l),
(419,0,l),
(636,530,l),
(544,530,l),
(381,88,l),
(381,456,l),
(299,456,l),
(143,88,l),
(168,530,l),
(76,530,l),
(68,0,l)
);
}
);
};
layerId = "574EE4B9-5C1A-4E7E-9985-C08FACB65BD8";
shapes = (
{
closed = 1;
nodes = (
(153,0,l),
(314,334,l),
(333,0,l),
(439,0,l),
(636,530,l),
(542,530,l),
(401,88,l),
(381,456,l),
(299,456,l),
(123,88,l),
(166,530,l),
(76,530,l),
(48,0,l)
);
}
);
width = 600;
},
{
anchors = (
{
name = bottom;
pos = (242,0);
},
{
name = top;
pos = (357,540);
}
);
background = {
shapes = (
{
closed = 1;
nodes = (
(194,0,l),
(288,218,l),
(290,0,l),
(438,0,l),
(647,540,l),
(483,540,l),
(386,252,l),
(390,460,l),
(290,460,l),
(206,252,l),
(231,540,l),
(67,540,l),
(46,0,l)
);
}
);
};
layerId = "58B1DC7A-69F8-4375-AD2E-AC5103CCF536";
shapes = (
{
closed = 1;
nodes = (
(184,0,l),
(288,218,l),
(300,0,l),
(448,0,l),
(643,540,l),
(475,540,l),
(396,252,l),
(390,460,l),
(290,460,l),
(196,252,l),
(231,540,l),
(71,540,l),
(36,0,l)
);
}
);
width = 600;
}
);
unicode = 119;
}
{
glyphname = x;
layers = (
{
anchors = (
{
name = bottom;
pos = (244,0);
},
{
name = top;
pos = (356,530);
}
);
background = {
shapes = (
{
closed = 1;
nodes = (
(62,0,l),
(299,249,l),
(427,0,l),
(462,0,l),
(320,266,l),
(567,530,l),
(531,530,l),
(304,284,l),
(180,530,l),
(145,530,l),
(280,266,l),
(26,0,l)
);
}
);
};
layerId = "EE2FFE84-06F1-4AFB-BBEC-60D09A436D14";
shapes = (
{
closed = 1;
nodes = (
(42,0,l),
(299,247,l),
(452,0,l),
(484,0,l),
(319,264,l),
(589,530,l),
(551,530,l),
(303,285,l),
(155,530,l),
(123,530,l),
(281,270,l),
(4,0,l)
);
}
);
width = 600;
},
{
anchors = (
{
name = bottom;
pos = (244,0);
},
{
name = top;
pos = (356,530);
}
);
background = {
shapes = (
{
closed = 1;
nodes = (
(98,0,l),
(290,214,l),
(392,0,l),
(490,0,l),
(354,270,l),
(593,530,l),
(493,530,l),
(315,330,l),
(218,530,l),
(120,530,l),
(250,272,l),
(-2,0,l)
);
}
);
};
layerId = "574EE4B9-5C1A-4E7E-9985-C08FACB65BD8";
shapes = (
{
closed = 1;
nodes = (
(89,0,l),
(291,214,l),
(409,0,l),
(504,0,l),
(354,268,l),
(607,530,l),
(502,530,l),
(314,330,l),
(201,530,l),
(106,530,l),
(250,274,l),
(-16,0,l)
);
}
);
width = 600;
},
{
anchors = (
{
name = bottom;
pos = (243,0);
},
{
name = top;
pos = (357,540);
}
);
background = {
shapes = (
{
closed = 1;
nodes = (
(143,0,l),
(277,162,l),
(343,0,l),
(523,0,l),
(395,276,l),
(628,540,l),
(448,540,l),
(326,392,l),
(265,540,l),
(85,540,l),
(209,276,l),
(-37,0,l)
);
}
);
};
layerId = "58B1DC7A-69F8-4375-AD2E-AC5103CCF536";
shapes = (
{
closed = 1;
nodes = (
(137,0,l),
(279,162,l),
(359,0,l),
(533,0,l),
(395,272,l),
(638,540,l),
(454,540,l),
(324,392,l),
(249,540,l),
(75,540,l),
(209,280,l),
(-47,0,l)
);
}
);
width = 600;
}
);
unicode = 120;
}
